<?xml version="1.0" encoding="utf-8"?><svg id="Layer_1" data-name="Layer 1" xmlns="http://www.w3.org/2000/svg" viewBox="0 0 512 512"><defs><style>.cls-1{fill:#0076bb;}</style></defs><title>ampd</title><path class="cls-1" d="M72.76,237.28a6.64,6.64,0,0,0-6.39-4.83h0a6.66,6.66,0,0,0-6.4,4.84l-7.25,25.57a6.65,6.65,0,0,0,6.39,8.47H73.67a6.66,6.66,0,0,0,6.39-8.48Z"/><path class="cls-1" d="M323.46,217.27c-3.6-2.71-9.55-4-18.19-4H294.4a6.65,6.65,0,0,0-6.65,6.65v22a6.64,6.64,0,0,0,6.65,6.64h10.87c8.64,0,14.59-1.31,18.2-4s5.37-7.27,5.37-13.57S327,220,323.46,217.27ZM315.2,234c-.86.36-3.59,1.24-9.93,1.24h-4.22v-8.7h4.22c6.4,0,9.12.89,9.91,1.22a10.16,10.16,0,0,1,.37,3.17A10.29,10.29,0,0,1,315.2,234Z"/><path class="cls-1" d="M439.06,214.57h-6a6.65,6.65,0,0,0-6.65,6.65V291a6.65,6.65,0,0,0,6.65,6.65h6.31c12.74,0,22.07-3.34,27.73-9.92s8.53-17.17,8.53-32.13c0-14-3-24.43-8.86-31S451.57,214.57,439.06,214.57Zm18,64.43c-2.95,3.42-8.93,5.25-17.32,5.3V227.87c8.2.09,14,1.94,17.13,5.5,3.59,4,5.49,11.7,5.49,22.18C462.35,269.84,459.46,276.19,457.05,279Z"/><path class="cls-1" d="M493.82,200.86h0c-12.26-13-30-19.58-52.69-19.58H397.06a5.92,5.92,0,0,0-1,.09,6,6,0,0,0-1-.09H359.29a6.65,6.65,0,0,0-6.65,6.65v8.41a41.92,41.92,0,0,0-3.06-2.89h0c-9.51-8.08-23.28-12.17-40.91-12.17H258.21a6.55,6.55,0,0,0-2,.32,6.49,6.49,0,0,0-2-.32h-43a6.65,6.65,0,0,0-6.37,4.73l-14.39,47.77L176.18,186a6.66,6.66,0,0,0-6.38-4.75H125.45a6.65,6.65,0,0,0-6.65,6.65v85.38L92.54,186a6.65,6.65,0,0,0-6.37-4.73H47.7A6.66,6.66,0,0,0,41.33,186L.28,322.15a6.65,6.65,0,0,0,6.37,8.57H42a6.64,6.64,0,0,0,6.38-4.79L54.9,303.7h23l6.26,22.18a6.64,6.64,0,0,0,6.4,4.84h67.69a6.65,6.65,0,0,0,6.65-6.65V308.58l5,17.33a6.64,6.64,0,0,0,6.39,4.81h26.54a6.65,6.65,0,0,0,6.38-4.76l5.69-19.25v17.36a6.65,6.65,0,0,0,6.65,6.65h32.63a6.49,6.49,0,0,0,2-.32,6.55,6.55,0,0,0,2,.32H294.4a6.65,6.65,0,0,0,6.65-6.65V280.82h9.86c16.62,0,29.81-4.28,39.21-12.74A41.9,41.9,0,0,0,358.28,258h23.86a6.65,6.65,0,0,0,6.12-4.06l2.15-5.07v75.17a6.65,6.65,0,0,0,6.65,6.65h43.16c23.19,0,41.2-6.61,53.52-19.66C505.86,298.22,512,279.54,512,255.55,512,232,505.88,213.64,493.82,200.86ZM95.58,317.42l-6.26-22.17a6.65,6.65,0,0,0-6.4-4.85h-33a6.64,6.64,0,0,0-6.38,4.79l-6.48,22.23H15.6l37-122.84H81.23l37,122.84Zm151.91,0H228.16V260.76a6.65,6.65,0,0,0-13-1.88l-17.31,58.54H181.26l-16.63-58a6.65,6.65,0,0,0-13,1.84v56.12H132.1V194.58h32.74l17.78,59.79q.69,2.22,1.32,4.44a6.65,6.65,0,0,0,6.37,4.83h0a6.66,6.66,0,0,0,6.38-4.77l19.35-64.29h31.42Zm93.72-59.23c-6.87,6.2-17.07,9.34-30.3,9.34H294.4a6.64,6.64,0,0,0-6.65,6.64v43.25H264.86V194.58h43.81c14.4,0,25.26,3,32.3,9s10.6,15.16,10.6,27.34C351.57,242.83,348.09,252,341.21,258.19Zm47.12-38.51-10.6,25H367.29L373,226.62a6.66,6.66,0,0,0-6.34-8.66h-.73V194.58h22.39Zm95.74,82.25c-9.71,10.28-24.46,15.49-43.85,15.49H403.71V194.58h37.42c18.89,0,33.37,5.18,43,15.41s14.55,25.56,14.55,45.56C498.7,276,493.78,291.64,484.07,301.93Z"/></svg>