<?xml version="1.0" encoding="utf-8"?><svg id="Layer_1" data-name="Layer 1" xmlns="http://www.w3.org/2000/svg" xmlns:xlink="http://www.w3.org/1999/xlink" viewBox="0 0 940 490"><defs><style>.cls-1,.cls-4{fill:none;}.cls-2{clip-path:url(#clip-path);}.cls-3{fill:#aa004f;}.cls-4{stroke:#fff;stroke-width:2px;}.cls-5{fill:#fff;}.cls-6{fill:#f3c300;}.cls-7{fill:#0075c9;}.cls-8{fill:#672666;}</style><clipPath id="clip-path"><rect class="cls-1" x="50.92" y="1.44" width="838.17" height="487.5"/></clipPath></defs><title>attendees chart</title><g class="cls-2"><path class="cls-3" d="M67.42,158.67a6.5,6.5,0,1,0-6.5-6.5,6.5,6.5,0,0,0,6.5,6.5"/><circle class="cls-4" cx="67.42" cy="152.17" r="6.5"/></g><path class="cls-5" d="M93.44,159.91c-3.52,0-5.56-2.67-5.56-7.49S90,145,93.32,145c2.68,0,4.36,1.46,5,4.32l-1.5.38c-.44-2.18-1.64-3.34-3.34-3.34-2.48,0-4,2.14-4,6.16s1.5,6,4,6c1.88,0,3.18-1.24,3.58-3.52l1.46.32Q97.49,159.91,93.44,159.91Z"/><path class="cls-5" d="M100.78,145.2h1.46v14.47h-1.46Z"/><path class="cls-5" d="M105.62,145.2h1.72V147h-1.72Zm.12,4h1.48v10.47h-1.48Z"/><path class="cls-5" d="M110.6,149.2h1.34v1.58A4.69,4.69,0,0,1,115.4,149c1.72,0,2.72,1,2.72,2.9v7.75H116.7v-7.21c0-1.5-.44-2.18-1.68-2.18a4,4,0,0,0-3,1.58v7.81H110.6Z"/><path class="cls-5" d="M121.3,145.2H123V147H121.3Zm.12,4h1.48v10.47h-1.48Z"/><path class="cls-5" d="M129.58,159.84c-2.72,0-4.2-1.88-4.2-5.42s1.6-5.42,4.2-5.42a3.85,3.85,0,0,1,3.78,2.82l-1.44.46a2.52,2.52,0,0,0-2.38-2c-1.7,0-2.68,1.42-2.68,4.16s1,4.18,2.76,4.18a3.12,3.12,0,0,0,2.72-2.1l1.22.64A4.17,4.17,0,0,1,129.58,159.84Z"/><path class="cls-5" d="M135.64,145.2h1.72V147h-1.72Zm.12,4h1.48v10.47h-1.48Z"/><path class="cls-5" d="M142.7,159.83a2.76,2.76,0,0,1-2.88-2.89c0-2.3,2-3.44,6.26-4.26v-.76c0-.94-.84-1.64-2.1-1.64a2.75,2.75,0,0,0-2.56,1.64l-1.26-.68a4.08,4.08,0,0,1,3.9-2.22c2.2,0,3.5,1.12,3.5,3.1V158a5.3,5.3,0,0,0,.22,1.54v.17h-1.6l-.16-1.42A4.41,4.41,0,0,1,142.7,159.83Zm3.38-5.79c-3.26.66-4.83,1.44-4.83,2.92a1.53,1.53,0,0,0,1.71,1.56,5.06,5.06,0,0,0,3.12-1.6Z"/><path class="cls-5" d="M150.71,149.2h1.35v1.58a4.69,4.69,0,0,1,3.46-1.76c1.72,0,2.72,1,2.72,2.9v7.75h-1.42v-7.21c0-1.5-.44-2.18-1.68-2.18a4,4,0,0,0-3,1.58v7.81h-1.45Z"/><path class="cls-5" d="M161.33,156.94a3.63,3.63,0,0,0,3,1.69c1.28,0,2.1-.71,2.1-1.77,0-1.4-1.18-1.5-3.22-2.12-1.78-.54-2.65-1.48-2.65-2.86a2.89,2.89,0,0,1,3.17-2.86,4.65,4.65,0,0,1,3.76,1.74l-1,1a3.39,3.39,0,0,0-2.72-1.5c-1.09,0-1.76.6-1.76,1.52a1.27,1.27,0,0,0,.52,1.08,10.9,10.9,0,0,0,2.78,1c1.74.56,2.54,1.44,2.54,2.9,0,1.86-1.42,3.14-3.74,3.14a4.71,4.71,0,0,1-4-2Z"/><g class="cls-2"><path class="cls-6" d="M67.42,192.67a6.5,6.5,0,1,0-6.5-6.5,6.5,6.5,0,0,0,6.5,6.5"/><circle class="cls-4" cx="67.42" cy="186.17" r="6.5"/></g><path class="cls-5" d="M89,179.2h1.62v14.47H89Z"/><path class="cls-5" d="M94.3,183.2h1.34v1.58A4.69,4.69,0,0,1,99.1,183c1.72,0,2.72,1,2.72,2.9v7.75H100.4v-7.21c0-1.5-.44-2.18-1.68-2.18a4,4,0,0,0-3,1.58v7.81H94.3Z"/><path class="cls-5" d="M112.5,190.4a25.79,25.79,0,0,0,.14,3.27h-1.12l-.34-1.33a3.32,3.32,0,0,1-2.92,1.49c-2.56,0-4.12-2-4.12-5.45s1.54-5.36,4.2-5.36a3,3,0,0,1,2.72,1.38v-5.2h1.44Zm-4.16-6.18c-1.66,0-2.7,1.42-2.7,4.06,0,2.88.94,4.32,2.86,4.32a2.93,2.93,0,0,0,2.56-1.56v-5.22A3.16,3.16,0,0,0,108.34,184.22Z"/><path class="cls-5" d="M123.2,193.67h-1.32v-1.59a4.73,4.73,0,0,1-3.48,1.76c-1.72,0-2.72-1-2.72-2.9V183.2h1.44v7.2c0,1.5.44,2.18,1.68,2.18a4,4,0,0,0,3-1.58v-7.8h1.44Z"/><path class="cls-5" d="M126.4,190.94a3.6,3.6,0,0,0,3,1.69c1.28,0,2.1-.71,2.1-1.77,0-1.4-1.18-1.5-3.22-2.12-1.78-.54-2.64-1.48-2.64-2.86a2.88,2.88,0,0,1,3.16-2.86,4.65,4.65,0,0,1,3.76,1.74l-1,1a3.39,3.39,0,0,0-2.72-1.5c-1.08,0-1.76.6-1.76,1.52a1.29,1.29,0,0,0,.52,1.08,10.9,10.9,0,0,0,2.78,1c1.74.56,2.54,1.44,2.54,2.9,0,1.86-1.42,3.14-3.74,3.14a4.68,4.68,0,0,1-4-2Z"/><path class="cls-5" d="M139.34,193.63a4.63,4.63,0,0,1-1.54.21c-1.58,0-2.38-.67-2.38-2v-7.36h-1.56V183.2h1.56v-3.38h1.52v3.38h2.38v1.24h-2.38v6.7c0,1.07.16,1.42,1.38,1.42a3.89,3.89,0,0,0,1-.16Z"/><path class="cls-5" d="M141.32,183.2h1.48v2.38c.7-1.68,1.64-2.5,3-2.5a1.94,1.94,0,0,1,.34,0v1.44H146c-1.42,0-2.54,1.14-3.18,3.3v5.83h-1.48Z"/><path class="cls-5" d="M147.08,183.2h1.48l3,8.36,2.72-8.36h1.48l-3.58,10.64c-.82,2.43-1.6,3.65-3.8,3.65a3.41,3.41,0,0,1-.92-.12V196a3.84,3.84,0,0,0,.82.1c1.46,0,2.1-.74,2.52-2.64Z"/><g class="cls-2"><path class="cls-7" d="M67.42,226.67a6.5,6.5,0,1,0-6.5-6.5,6.5,6.5,0,0,0,6.5,6.5"/><circle class="cls-4" cx="67.42" cy="220.17" r="6.5"/></g><path class="cls-5" d="M93.6,213c3.42,0,5.72,2.82,5.72,7.46s-2.3,7.49-5.72,7.49-5.72-2.87-5.72-7.49S90.18,213,93.6,213Zm0,13.54c2.52,0,4.1-2.18,4.1-6.08s-1.58-6.08-4.1-6.08-4.1,2.18-4.1,6.08S91.08,226.5,93.6,226.5Z"/><path class="cls-5" d="M106,227.63a4.63,4.63,0,0,1-1.54.21c-1.58,0-2.38-.67-2.38-2v-7.36h-1.56V217.2h1.56v-3.38h1.52v3.38H106v1.24h-2.38v6.7c0,1.07.16,1.42,1.38,1.42a3.89,3.89,0,0,0,1-.16Z"/><path class="cls-5" d="M108,213.2h1.44v5.54A4.69,4.69,0,0,1,113,217a2.59,2.59,0,0,1,2.82,2.9v7.75h-1.42v-7.21c0-1.5-.46-2.18-1.78-2.18a4.32,4.32,0,0,0-3.16,1.58v7.81H108Z"/><path class="cls-5" d="M126.5,225.38a4.21,4.21,0,0,1-4.18,2.46c-2.7,0-4.2-1.86-4.2-5.42s1.6-5.4,4.08-5.4,4.08,1.88,4.08,5.26v.44h-6.66v.34c0,2.22,1.16,3.54,2.84,3.54a3.23,3.23,0,0,0,3-1.88Zm-1.76-3.9c0-2.06-1-3.22-2.52-3.22s-2.5,1.14-2.58,3.22Z"/><path class="cls-5" d="M128.62,217.2h1.48v2.38c.7-1.68,1.64-2.5,3-2.5a1.94,1.94,0,0,1,.34,0v1.44h-.18c-1.42,0-2.54,1.14-3.18,3.3v5.83h-1.48Z"/><g class="cls-2"><path class="cls-8" d="M67.42,260.67a6.5,6.5,0,1,0-6.5-6.5,6.5,6.5,0,0,0,6.5,6.5"/><circle class="cls-4" cx="67.42" cy="254.17" r="6.5"/></g><path class="cls-5" d="M91.76,247.2H94.2l4.44,14.47H97l-1.3-4.51H90.28L89,261.67H87.3Zm3.46,8.62-2.16-7.54h-.22l-2.18,7.54Z"/><path class="cls-5" d="M103.94,261.84c-2.72,0-4.2-1.88-4.2-5.42s1.6-5.42,4.2-5.42a3.85,3.85,0,0,1,3.78,2.82l-1.44.46a2.52,2.52,0,0,0-2.38-2c-1.7,0-2.68,1.42-2.68,4.16s1,4.18,2.76,4.18a3.12,3.12,0,0,0,2.72-2.1l1.22.64A4.17,4.17,0,0,1,103.94,261.84Z"/><path class="cls-5" d="M112.1,261.83a2.76,2.76,0,0,1-2.88-2.89c0-2.3,2-3.44,6.26-4.26v-.76c0-.94-.84-1.64-2.1-1.64a2.75,2.75,0,0,0-2.56,1.64l-1.26-.68a4.08,4.08,0,0,1,3.9-2.22c2.2,0,3.5,1.12,3.5,3.1V260a5.3,5.3,0,0,0,.22,1.54v.17h-1.6l-.16-1.42A4.41,4.41,0,0,1,112.1,261.83Zm3.38-5.79c-3.26.66-4.82,1.44-4.82,2.92a1.52,1.52,0,0,0,1.7,1.56,5.06,5.06,0,0,0,3.12-1.6Z"/><path class="cls-5" d="M127.6,258.4a25.79,25.79,0,0,0,.14,3.27h-1.12l-.34-1.33a3.32,3.32,0,0,1-2.92,1.49c-2.56,0-4.12-2-4.12-5.45s1.54-5.36,4.2-5.36a3,3,0,0,1,2.72,1.38v-5.2h1.44Zm-4.16-6.18c-1.66,0-2.7,1.42-2.7,4.06,0,2.88.94,4.32,2.86,4.32a2.93,2.93,0,0,0,2.56-1.56v-5.22A3.16,3.16,0,0,0,123.44,252.22Z"/><path class="cls-5" d="M138.38,259.38a4.21,4.21,0,0,1-4.18,2.46c-2.7,0-4.2-1.86-4.2-5.42s1.6-5.4,4.08-5.4,4.08,1.88,4.08,5.26v.44H131.5v.34c0,2.22,1.16,3.54,2.84,3.54a3.23,3.23,0,0,0,3-1.88Zm-1.76-3.9c0-2.06-1-3.22-2.52-3.22s-2.5,1.14-2.58,3.22Z"/><path class="cls-5" d="M140.46,251.2h1.34v1.58a4.48,4.48,0,0,1,3.42-1.76,2.42,2.42,0,0,1,2.52,1.76A4.56,4.56,0,0,1,151.2,251c1.7,0,2.68,1,2.68,2.9v7.75h-1.44v-7.29c0-1.44-.44-2.1-1.64-2.1a3.91,3.91,0,0,0-2.94,1.58v7.81h-1.38v-7.25c0-1.46-.46-2.14-1.66-2.14a3.87,3.87,0,0,0-2.92,1.58v7.81h-1.44Z"/><path class="cls-5" d="M157.06,247.2h1.72V249h-1.72Zm.12,4h1.48v10.47h-1.48Z"/><path class="cls-5" d="M164.12,261.83a2.76,2.76,0,0,1-2.88-2.89c0-2.3,2-3.44,6.26-4.26v-.76c0-.94-.84-1.64-2.1-1.64a2.75,2.75,0,0,0-2.56,1.64l-1.26-.68a4.08,4.08,0,0,1,3.9-2.22c2.2,0,3.5,1.12,3.5,3.1V260a5.3,5.3,0,0,0,.22,1.54v.17h-1.6l-.16-1.42A4.41,4.41,0,0,1,164.12,261.83ZM167.5,256c-3.26.66-4.82,1.44-4.82,2.92a1.52,1.52,0,0,0,1.7,1.56,5.06,5.06,0,0,0,3.12-1.6Z"/><rect class="cls-3" x="60.92" y="281.67" width="13" height="13"/><rect class="cls-4" x="60.92" y="281.67" width="13" height="13"/><path class="cls-5" d="M89,281.2h1.62v14.47H89Z"/><path class="cls-5" d="M94.3,285.2h1.34v1.58A4.69,4.69,0,0,1,99.1,285c1.72,0,2.72,1,2.72,2.9v7.75H100.4v-7.21c0-1.5-.44-2.18-1.68-2.18a4,4,0,0,0-3,1.58v7.81H94.3Z"/><path class="cls-5" d="M103.58,285.2h1.48l2.88,9,2.88-9h1.48l-3.42,10.47H107Z"/><path class="cls-5" d="M121.68,293.38a4.21,4.21,0,0,1-4.18,2.46c-2.7,0-4.2-1.86-4.2-5.42s1.6-5.4,4.08-5.4,4.08,1.88,4.08,5.26v.44H114.8v.34c0,2.22,1.16,3.54,2.84,3.54a3.23,3.23,0,0,0,3-1.88Zm-1.76-3.9c0-2.06-1-3.22-2.52-3.22s-2.5,1.14-2.58,3.22Z"/><path class="cls-5" d="M123.7,292.94a3.6,3.6,0,0,0,3,1.69c1.28,0,2.1-.71,2.1-1.77,0-1.4-1.18-1.5-3.22-2.12-1.78-.54-2.64-1.48-2.64-2.86a2.88,2.88,0,0,1,3.16-2.86,4.65,4.65,0,0,1,3.76,1.74l-1,1a3.39,3.39,0,0,0-2.72-1.5c-1.08,0-1.76.6-1.76,1.52a1.29,1.29,0,0,0,.52,1.08,10.9,10.9,0,0,0,2.78,1c1.74.56,2.54,1.44,2.54,2.9,0,1.86-1.42,3.14-3.74,3.14a4.68,4.68,0,0,1-4-2Z"/><path class="cls-5" d="M136.64,295.63a4.63,4.63,0,0,1-1.54.21c-1.58,0-2.38-.67-2.38-2v-7.36h-1.56V285.2h1.56v-3.38h1.52v3.38h2.38v1.24h-2.38v6.7c0,1.07.16,1.42,1.38,1.42a3.89,3.89,0,0,0,1-.16Z"/><path class="cls-5" d="M138.58,285.2h1.34v1.58a4.48,4.48,0,0,1,3.42-1.76,2.42,2.42,0,0,1,2.52,1.76,4.56,4.56,0,0,1,3.46-1.76c1.7,0,2.68,1,2.68,2.9v7.75h-1.44v-7.29c0-1.44-.44-2.1-1.64-2.1a3.91,3.91,0,0,0-2.94,1.58v7.81H144.6v-7.25c0-1.46-.46-2.14-1.66-2.14a3.87,3.87,0,0,0-2.92,1.58v7.81h-1.44Z"/><path class="cls-5" d="M162.7,293.38a4.21,4.21,0,0,1-4.18,2.46c-2.7,0-4.2-1.86-4.2-5.42s1.6-5.4,4.08-5.4,4.08,1.88,4.08,5.26v.44h-6.66v.34c0,2.22,1.16,3.54,2.84,3.54a3.23,3.23,0,0,0,3-1.88Zm-1.76-3.9c0-2.06-1-3.22-2.52-3.22s-2.5,1.14-2.58,3.22Z"/><path class="cls-5" d="M164.82,285.2h1.34v1.58a4.69,4.69,0,0,1,3.46-1.76c1.72,0,2.72,1,2.72,2.9v7.75h-1.42v-7.21c0-1.5-.44-2.18-1.68-2.18a4,4,0,0,0-3,1.58v7.81h-1.44Z"/><path class="cls-5" d="M179.68,295.63a4.63,4.63,0,0,1-1.54.21c-1.58,0-2.38-.67-2.38-2v-7.36H174.2V285.2h1.56v-3.38h1.52v3.38h2.38v1.24h-2.38v6.7c0,1.07.16,1.42,1.38,1.42a3.89,3.89,0,0,0,1-.16Z"/><path class="cls-5" d="M180.36,297.53H179.2L184.56,281h1.18Z"/><path class="cls-5" d="M187.4,281.2h4.2c3.42,0,5.06,1.22,5.06,3.94s-1.68,4.06-4.6,4.06H189v6.47H187.4Zm4,6.64c2.52,0,3.6-.68,3.6-2.72s-1.18-2.58-3.72-2.58H189v5.3Z"/><path class="cls-5" d="M198.39,285.2h1.49v2.38c.7-1.68,1.64-2.5,3-2.5a1.94,1.94,0,0,1,.34,0v1.44h-.18c-1.42,0-2.54,1.14-3.18,3.3v5.83h-1.49Z"/><path class="cls-5" d="M204.85,281.2h1.73V283h-1.73Zm.12,4h1.49v10.47H205Z"/><path class="cls-5" d="M208.39,285.2h1.49l2.88,9,2.88-9h1.48l-3.42,10.47h-1.88Z"/><path class="cls-5" d="M221.08,295.83a2.77,2.77,0,0,1-2.89-2.89c0-2.3,2-3.44,6.27-4.26v-.76c0-.94-.84-1.64-2.1-1.64a2.76,2.76,0,0,0-2.57,1.64l-1.26-.68a4.09,4.09,0,0,1,3.91-2.22c2.2,0,3.5,1.12,3.5,3.1V294a5.3,5.3,0,0,0,.22,1.54v.17h-1.6l-.16-1.42A4.43,4.43,0,0,1,221.08,295.83Zm3.38-5.79c-3.26.66-4.83,1.44-4.83,2.92a1.52,1.52,0,0,0,1.7,1.56,5.08,5.08,0,0,0,3.13-1.6Z"/><path class="cls-5" d="M233.24,295.63a4.69,4.69,0,0,1-1.55.21c-1.58,0-2.38-.67-2.38-2v-7.36h-1.56V285.2h1.56v-3.38h1.52v3.38h2.38v1.24h-2.38v6.7c0,1.07.16,1.42,1.38,1.42a3.91,3.91,0,0,0,1-.16Z"/><path class="cls-5" d="M242.72,293.38a4.21,4.21,0,0,1-4.18,2.46c-2.71,0-4.21-1.86-4.21-5.42s1.6-5.4,4.09-5.4,4.08,1.88,4.08,5.26v.44h-6.67v.34c0,2.22,1.17,3.54,2.84,3.54a3.23,3.23,0,0,0,3-1.88Zm-1.76-3.9c0-2.06-1-3.22-2.53-3.22s-2.5,1.14-2.58,3.22Z"/><path class="cls-5" d="M251.15,281.2h8.55v1.36h-6.95v4.82h4.93v1.36h-4.93v5.55H260v1.38h-8.89Z"/><path class="cls-5" d="M269.72,288.52v11h-1.44v-5.05a3,3,0,0,1-2.67,1.42c-2.68,0-4.26-1.94-4.26-5.46s1.54-5.36,4.14-5.36a3.24,3.24,0,0,1,2.91,1.44l.34-1.26h1.12C269.76,286.34,269.72,287.46,269.72,288.52Zm-4.17-2.3c-1.66,0-2.7,1.42-2.7,4.06,0,2.88.94,4.32,2.86,4.32a3,3,0,0,0,2.57-1.56v-5.22A3.17,3.17,0,0,0,265.55,286.22Z"/><path class="cls-5" d="M280.46,295.67h-1.33v-1.59a4.73,4.73,0,0,1-3.48,1.76c-1.72,0-2.72-1-2.72-2.9V285.2h1.44v7.2c0,1.5.44,2.18,1.68,2.18a4,4,0,0,0,3-1.58v-7.8h1.45Z"/><path class="cls-5" d="M283.73,281.2h1.72V283h-1.72Zm.12,4h1.48v10.47h-1.48Z"/><path class="cls-5" d="M292.85,295.63a4.63,4.63,0,0,1-1.54.21c-1.58,0-2.38-.67-2.38-2v-7.36h-1.56V285.2h1.56v-3.38h1.52v3.38h2.38v1.24h-2.38v6.7c0,1.07.16,1.42,1.38,1.42a3.89,3.89,0,0,0,1-.16Z"/><path class="cls-5" d="M293.39,285.2h1.48l3,8.36,2.72-8.36h1.49l-3.59,10.64c-.82,2.43-1.6,3.65-3.8,3.65a3.41,3.41,0,0,1-.92-.12V298a3.84,3.84,0,0,0,.82.1c1.46,0,2.1-.74,2.52-2.64Z"/><rect class="cls-6" x="60.92" y="315.67" width="13" height="13"/><rect class="cls-4" x="60.92" y="315.67" width="13" height="13"/><path class="cls-5" d="M89.16,325.54a3.7,3.7,0,0,0,3.52,3c1.86,0,3-1,3-2.52a2.23,2.23,0,0,0-1-2,16.81,16.81,0,0,0-3.36-1.44c-2.24-.88-3.32-1.86-3.32-3.74,0-2.32,1.66-3.86,4.24-3.86a4.48,4.48,0,0,1,4.52,3.54l-1.44.42a3.2,3.2,0,0,0-3.24-2.62,2.29,2.29,0,0,0-2.54,2.36,2.19,2.19,0,0,0,.94,1.76,13.94,13.94,0,0,0,3.08,1.32c2.48.94,3.64,1.92,3.64,4.16,0,2.39-1.74,4-4.48,4A5,5,0,0,1,87.64,326Z"/><path class="cls-5" d="M107.3,327.38a4.21,4.21,0,0,1-4.18,2.46c-2.7,0-4.2-1.86-4.2-5.42s1.6-5.4,4.08-5.4,4.08,1.88,4.08,5.26v.44h-6.66v.34c0,2.22,1.16,3.54,2.84,3.54a3.23,3.23,0,0,0,3-1.88Zm-1.76-3.9c0-2.06-1-3.22-2.52-3.22s-2.5,1.14-2.58,3.22Z"/><path class="cls-5" d="M109.42,319.2h1.48v2.38c.7-1.68,1.64-2.5,3-2.5a1.94,1.94,0,0,1,.34,0v1.44h-.18c-1.42,0-2.54,1.14-3.18,3.3v5.83h-1.48Z"/><path class="cls-5" d="M115.18,319.2h1.48l2.88,9,2.88-9h1.48l-3.42,10.47H118.6Z"/><path class="cls-5" d="M125.76,315.2h1.72V317h-1.72Zm.12,4h1.48v10.47h-1.48Z"/><path class="cls-5" d="M134,329.84c-2.72,0-4.2-1.88-4.2-5.42s1.6-5.42,4.2-5.42a3.85,3.85,0,0,1,3.78,2.82l-1.44.46a2.52,2.52,0,0,0-2.38-2c-1.7,0-2.68,1.42-2.68,4.16s1,4.18,2.76,4.18a3.12,3.12,0,0,0,2.72-2.1l1.22.64A4.17,4.17,0,0,1,134,329.84Z"/><path class="cls-5" d="M147.62,327.38a4.21,4.21,0,0,1-4.18,2.46c-2.7,0-4.2-1.86-4.2-5.42s1.6-5.4,4.08-5.4,4.08,1.88,4.08,5.26v.44h-6.66v.34c0,2.22,1.16,3.54,2.84,3.54a3.23,3.23,0,0,0,3-1.88Zm-1.76-3.9c0-2.06-1-3.22-2.52-3.22s-2.5,1.14-2.58,3.22Z"/><path class="cls-5" d="M149.64,326.94a3.6,3.6,0,0,0,3,1.69c1.28,0,2.1-.71,2.1-1.77,0-1.4-1.18-1.5-3.22-2.12-1.78-.54-2.64-1.48-2.64-2.86A2.88,2.88,0,0,1,152,319a4.65,4.65,0,0,1,3.76,1.74l-1,1a3.39,3.39,0,0,0-2.72-1.5c-1.08,0-1.76.6-1.76,1.52a1.29,1.29,0,0,0,.52,1.08,10.9,10.9,0,0,0,2.78,1c1.74.56,2.54,1.44,2.54,2.9,0,1.86-1.42,3.14-3.74,3.14a4.68,4.68,0,0,1-4-2Z"/><path class="cls-5" d="M157.13,331.53H156L161.34,315h1.18Z"/><path class="cls-5" d="M168.72,329.91c-3.52,0-5.56-2.67-5.56-7.49s2.16-7.46,5.44-7.46c2.68,0,4.36,1.46,5,4.32l-1.5.38c-.44-2.18-1.64-3.34-3.34-3.34-2.48,0-4,2.14-4,6.16s1.5,6,4,6c1.88,0,3.18-1.24,3.58-3.52l1.46.32Q172.77,329.91,168.72,329.91Z"/><path class="cls-5" d="M179.36,319c2.72,0,4.36,1.92,4.36,5.4s-1.64,5.42-4.36,5.42S175,327.9,175,324.42,176.63,319,179.36,319Zm0,9.61c1.82,0,2.86-1.45,2.86-4.19s-1-4.18-2.86-4.18-2.88,1.42-2.88,4.16S177.52,328.63,179.36,328.63Z"/><path class="cls-5" d="M186,319.2h1.35v1.58a4.69,4.69,0,0,1,3.46-1.76c1.72,0,2.72,1,2.72,2.9v7.75h-1.42v-7.21c0-1.5-.44-2.18-1.68-2.18a4,4,0,0,0-3,1.58v7.81H186Z"/><path class="cls-5" d="M196.63,326.94a3.63,3.63,0,0,0,3,1.69c1.28,0,2.1-.71,2.1-1.77,0-1.4-1.18-1.5-3.22-2.12-1.79-.54-2.65-1.48-2.65-2.86A2.89,2.89,0,0,1,199,319a4.65,4.65,0,0,1,3.76,1.74l-1,1a3.39,3.39,0,0,0-2.72-1.5c-1.09,0-1.77.6-1.77,1.52a1.27,1.27,0,0,0,.53,1.08,10.9,10.9,0,0,0,2.78,1c1.74.56,2.54,1.44,2.54,2.9,0,1.86-1.42,3.14-3.74,3.14a4.68,4.68,0,0,1-4-2Z"/><path class="cls-5" d="M212.86,329.67h-1.32v-1.59a4.73,4.73,0,0,1-3.49,1.76c-1.72,0-2.72-1-2.72-2.9V319.2h1.44v7.2c0,1.5.44,2.18,1.69,2.18a4,4,0,0,0,3-1.58v-7.8h1.44Z"/><path class="cls-5" d="M216.25,315.2h1.46v14.47h-1.46Z"/><path class="cls-5" d="M225.25,329.63a4.63,4.63,0,0,1-1.54.21c-1.58,0-2.38-.67-2.38-2v-7.36h-1.56V319.2h1.56v-3.38h1.52v3.38h2.39v1.24h-2.39v6.7c0,1.07.16,1.42,1.39,1.42a3.88,3.88,0,0,0,1-.16Z"/><path class="cls-5" d="M227.21,315.2h1.72V317h-1.72Zm.12,4h1.48v10.47h-1.48Z"/><path class="cls-5" d="M232.19,319.2h1.34v1.58A4.72,4.72,0,0,1,237,319c1.72,0,2.72,1,2.72,2.9v7.75H238.3v-7.21c0-1.5-.44-2.18-1.68-2.18a4.06,4.06,0,0,0-3,1.58v7.81h-1.44Z"/><path class="cls-5" d="M242.21,327.24c0-.74.46-1.2,1.4-1.74a3.28,3.28,0,0,1-1.32-2.84c0-2.24,1.44-3.66,3.86-3.66a3.88,3.88,0,0,1,2.47.78,2.89,2.89,0,0,1,1.92-.92h.26v1.36h-.3c-.62,0-1,.06-1.22.32a3.69,3.69,0,0,1-3.2,5.68,6,6,0,0,1-1.57-.22c-.58.22-.88.58-.88.94,0,.82,1,.7,3,.88,2.79.26,4.13.81,4.13,2.83,0,1.82-1.6,2.82-4.72,2.82-2.87,0-4.31-.84-4.31-2.54,0-1,.54-1.63,1.74-2.1A1.6,1.6,0,0,1,242.21,327.24Zm3.8,5.05c2.23,0,3.32-.5,3.32-1.58s-1.08-1.54-3.33-1.54c-1.87,0-2.87.58-2.87,1.54S244.11,332.29,246,332.29Zm.08-7.25a2.23,2.23,0,0,0,2.41-2.4,2.31,2.31,0,0,0-2.49-2.48,2.21,2.21,0,0,0-2.36,2.36A2.25,2.25,0,0,0,246.09,325Z"/><path class="cls-5" d="M251.33,331.53h-1.16L255.53,315h1.18Z"/><path class="cls-5" d="M258.47,315.2h1.64v13.09h6.47v1.38h-8.11Z"/><path class="cls-5" d="M276,327.38a4.24,4.24,0,0,1-4.19,2.46c-2.7,0-4.2-1.86-4.2-5.42s1.6-5.4,4.08-5.4,4.09,1.88,4.09,5.26v.44h-6.67v.34c0,2.22,1.16,3.54,2.84,3.54a3.23,3.23,0,0,0,3-1.88Zm-1.77-3.9c0-2.06-1-3.22-2.52-3.22s-2.5,1.14-2.58,3.22Z"/><path class="cls-5" d="M277.41,327.24c0-.74.46-1.2,1.4-1.74a3.28,3.28,0,0,1-1.32-2.84c0-2.24,1.44-3.66,3.86-3.66a3.85,3.85,0,0,1,2.46.78,2.93,2.93,0,0,1,1.93-.92H286v1.36h-.3c-.62,0-1,.06-1.23.32a3.69,3.69,0,0,1-3.2,5.68,6,6,0,0,1-1.56-.22c-.58.22-.88.58-.88.94,0,.82,1,.7,3,.88,2.78.26,4.13.81,4.13,2.83,0,1.82-1.61,2.82-4.73,2.82-2.86,0-4.3-.84-4.3-2.54,0-1,.54-1.63,1.74-2.1A1.6,1.6,0,0,1,277.41,327.24Zm3.8,5.05c2.22,0,3.32-.5,3.32-1.58s-1.08-1.54-3.34-1.54c-1.86,0-2.86.58-2.86,1.54S279.31,332.29,281.21,332.29Zm.08-7.25a2.22,2.22,0,0,0,2.4-2.4,2.3,2.3,0,0,0-2.48-2.48,2.21,2.21,0,0,0-2.36,2.36A2.25,2.25,0,0,0,281.29,325Z"/><path class="cls-5" d="M289.91,329.83a2.76,2.76,0,0,1-2.88-2.89c0-2.3,2-3.44,6.26-4.26v-.76c0-.94-.84-1.64-2.1-1.64a2.75,2.75,0,0,0-2.56,1.64l-1.26-.68a4.08,4.08,0,0,1,3.9-2.22c2.2,0,3.5,1.12,3.5,3.1V328a5.3,5.3,0,0,0,.22,1.54v.17h-1.6l-.16-1.42A4.41,4.41,0,0,1,289.91,329.83Zm3.38-5.79c-3.26.66-4.82,1.44-4.82,2.92a1.52,1.52,0,0,0,1.7,1.56,5.06,5.06,0,0,0,3.12-1.6Z"/><path class="cls-5" d="M298,315.2h1.46v14.47H298Z"/><rect class="cls-7" x="60.92" y="349.67" width="13" height="13"/><rect class="cls-4" x="60.92" y="349.67" width="13" height="13"/><path class="cls-5" d="M97.34,362.08a4.36,4.36,0,0,1-3.82,1.83c-3.44,0-5.66-2.77-5.66-7.41,0-4.82,2.14-7.54,5.72-7.54,2.54,0,4.22,1.42,5,4.24l-1.64.32c-.56-2.1-1.7-3.18-3.44-3.18-2.54,0-4,2.12-4,6s1.58,6.14,4.12,6.14a3.24,3.24,0,0,0,3.5-3.48v-1H93.78v-1.38h5v7H97.4Z"/><path class="cls-5" d="M105.2,353c2.72,0,4.36,1.92,4.36,5.4s-1.64,5.42-4.36,5.42-4.36-1.94-4.36-5.42S102.48,353,105.2,353Zm0,9.61c1.82,0,2.86-1.45,2.86-4.19s-1-4.18-2.86-4.18-2.88,1.42-2.88,4.16S103.36,362.63,105.2,362.63Z"/><path class="cls-5" d="M110.42,353.2h1.48l2.88,9,2.88-9h1.48l-3.42,10.47h-1.88Z"/><path class="cls-5" d="M128.52,361.38a4.21,4.21,0,0,1-4.18,2.46c-2.7,0-4.2-1.86-4.2-5.42s1.6-5.4,4.08-5.4,4.08,1.88,4.08,5.26v.44h-6.66v.34c0,2.22,1.16,3.54,2.84,3.54a3.23,3.23,0,0,0,3-1.88Zm-1.76-3.9c0-2.06-1-3.22-2.52-3.22s-2.5,1.14-2.58,3.22Z"/><path class="cls-5" d="M130.64,353.2h1.48v2.38c.7-1.68,1.64-2.5,3-2.5a1.94,1.94,0,0,1,.34,0v1.44h-.18c-1.42,0-2.54,1.14-3.18,3.3v5.83h-1.48Z"/><path class="cls-5" d="M137.12,353.2h1.34v1.58a4.69,4.69,0,0,1,3.46-1.76c1.72,0,2.72,1,2.72,2.9v7.75h-1.42v-7.21c0-1.5-.44-2.18-1.68-2.18a4,4,0,0,0-3,1.58v7.81h-1.44Z"/><path class="cls-5" d="M147.8,353.2h1.34v1.58a4.48,4.48,0,0,1,3.42-1.76,2.42,2.42,0,0,1,2.52,1.76,4.56,4.56,0,0,1,3.46-1.76c1.7,0,2.68,1,2.68,2.9v7.75h-1.44v-7.29c0-1.44-.44-2.1-1.64-2.1a3.91,3.91,0,0,0-2.94,1.58v7.81h-1.38v-7.25c0-1.46-.46-2.14-1.66-2.14a3.87,3.87,0,0,0-2.92,1.58v7.81H147.8Z"/><path class="cls-5" d="M171.92,361.38a4.21,4.21,0,0,1-4.18,2.46c-2.7,0-4.2-1.86-4.2-5.42s1.6-5.4,4.08-5.4,4.08,1.88,4.08,5.26v.44H165v.34c0,2.22,1.16,3.54,2.84,3.54a3.23,3.23,0,0,0,3-1.88Zm-1.76-3.9c0-2.06-1-3.22-2.52-3.22s-2.5,1.14-2.58,3.22Z"/><path class="cls-5" d="M174,353.2h1.34v1.58a4.69,4.69,0,0,1,3.46-1.76c1.72,0,2.72,1,2.72,2.9v7.75h-1.42v-7.21c0-1.5-.44-2.18-1.68-2.18a4,4,0,0,0-3,1.58v7.81H174Z"/><path class="cls-5" d="M188.9,363.63a4.63,4.63,0,0,1-1.54.21c-1.58,0-2.38-.67-2.38-2v-7.36h-1.56V353.2H185v-3.38h1.52v3.38h2.38v1.24H186.5v6.7c0,1.07.16,1.42,1.38,1.42a3.89,3.89,0,0,0,1-.16Z"/><rect class="cls-8" x="60.92" y="383.67" width="13" height="13"/><rect class="cls-4" x="60.92" y="383.67" width="13" height="13"/><path class="cls-5" d="M88.9,383.2h2.46l4,12.22,4.06-12.22h2.32v14.47h-1.54V384.92l-4.36,12.75H94.8l-4.36-12.75v12.75H88.9Z"/><path class="cls-5" d="M112.86,395.38a4.21,4.21,0,0,1-4.18,2.46c-2.7,0-4.2-1.86-4.2-5.42s1.6-5.4,4.08-5.4,4.08,1.88,4.08,5.26v.44H106v.34c0,2.22,1.16,3.54,2.84,3.54a3.23,3.23,0,0,0,3-1.88Zm-1.76-3.9c0-2.06-1-3.22-2.52-3.22s-2.5,1.14-2.58,3.22Z"/><path class="cls-5" d="M122.46,394.4a25.79,25.79,0,0,0,.14,3.27h-1.12l-.34-1.33a3.32,3.32,0,0,1-2.92,1.49c-2.56,0-4.12-2-4.12-5.45s1.54-5.36,4.2-5.36A3,3,0,0,1,121,388.4v-5.2h1.44Zm-4.16-6.18c-1.66,0-2.7,1.42-2.7,4.06,0,2.88.94,4.32,2.86,4.32A2.93,2.93,0,0,0,121,395v-5.22A3.16,3.16,0,0,0,118.3,388.22Z"/><path class="cls-5" d="M125.72,383.2h1.72V385h-1.72Zm.12,4h1.48v10.47h-1.48Z"/><path class="cls-5" d="M132.78,397.83a2.76,2.76,0,0,1-2.88-2.89c0-2.3,2-3.44,6.26-4.26v-.76c0-.94-.84-1.64-2.1-1.64a2.75,2.75,0,0,0-2.56,1.64l-1.26-.68a4.08,4.08,0,0,1,3.9-2.22c2.2,0,3.5,1.12,3.5,3.1V396a5.3,5.3,0,0,0,.22,1.54v.17h-1.6l-.16-1.42A4.41,4.41,0,0,1,132.78,397.83Zm3.38-5.79c-3.26.66-4.82,1.44-4.82,2.92a1.52,1.52,0,0,0,1.7,1.56,5.06,5.06,0,0,0,3.12-1.6Z"/><path class="cls-5" d="M68.88,60.23h4.27l7.77,25.3H78l-2.27-7.87H66.29l-2.24,7.87h-3Zm6.06,15.08L71.16,62.12h-.39L67,75.31Z"/><path class="cls-5" d="M91.67,85.46a8.12,8.12,0,0,1-2.7.39c-2.76,0-4.16-1.19-4.16-3.57V69.4H82.08V67.23h2.73V61.31h2.66v5.92h4.16V69.4H87.47V81.12c0,1.86.28,2.49,2.41,2.49a6.85,6.85,0,0,0,1.79-.28Z"/><path class="cls-5" d="M102.38,85.46a8.12,8.12,0,0,1-2.7.39c-2.76,0-4.16-1.19-4.16-3.57V69.4H92.79V67.23h2.73V61.31h2.66v5.92h4.16V69.4H98.18V81.12c0,1.86.28,2.49,2.41,2.49a6.85,6.85,0,0,0,1.79-.28Z"/><path class="cls-5" d="M119,81.54c-1.44,2.94-3.82,4.31-7.32,4.31-4.72,0-7.35-3.26-7.35-9.49,0-6,2.8-9.45,7.14-9.45s7.14,3.29,7.14,9.21v.77H106.93v.59c0,3.89,2,6.2,5,6.2a5.65,5.65,0,0,0,5.21-3.29Zm-3.08-6.82c-.07-3.61-1.82-5.64-4.41-5.64s-4.38,2-4.52,5.64Z"/><path class="cls-5" d="M122.68,67.23H125V70c2-2.06,3.85-3.08,6.06-3.08,3,0,4.76,1.82,4.76,5.08V85.53h-2.49V72.93c0-2.62-.77-3.81-2.94-3.81-1.82,0-3.53.91-5.21,2.76V85.53h-2.52Z"/><path class="cls-5" d="M154.53,79.83a45.53,45.53,0,0,0,.24,5.7h-2l-.59-2.31a5.8,5.8,0,0,1-5.11,2.59c-4.48,0-7.21-3.43-7.21-9.52s2.69-9.38,7.35-9.38A5.22,5.22,0,0,1,152,69.33v-9.1h2.52ZM147.25,69c-2.91,0-4.73,2.49-4.73,7.11,0,5,1.65,7.56,5,7.56A5.13,5.13,0,0,0,152,81V71.81A5.53,5.53,0,0,0,147.25,69Z"/><path class="cls-5" d="M173.39,81.54c-1.43,2.94-3.81,4.31-7.31,4.31-4.73,0-7.35-3.26-7.35-9.49,0-6,2.8-9.45,7.14-9.45S173,70.2,173,76.12v.77H161.35v.59c0,3.89,2,6.2,5,6.2a5.66,5.66,0,0,0,5.22-3.29Zm-3.08-6.82c-.07-3.61-1.82-5.64-4.41-5.64s-4.37,2-4.51,5.64Z"/><path class="cls-5" d="M190.23,81.54c-1.44,2.94-3.82,4.31-7.32,4.31-4.72,0-7.35-3.26-7.35-9.49,0-6,2.8-9.45,7.14-9.45s7.14,3.29,7.14,9.21v.77H178.19v.59c0,3.89,2,6.2,5,6.2a5.65,5.65,0,0,0,5.21-3.29Zm-3.08-6.82c-.07-3.61-1.82-5.64-4.41-5.64s-4.38,2-4.52,5.64Z"/><path class="cls-5" d="M204.5,79.72V60.23H207V69.4a5.28,5.28,0,0,1,4.65-2.49c4.69,0,7.46,3.4,7.46,9.56s-2.7,9.38-7.49,9.38a5.41,5.41,0,0,1-4.84-2.52l-.59,2.2h-2C204.43,83.54,204.5,81.58,204.5,79.72Zm7.29,4c2.9,0,4.72-2.52,4.72-7.14,0-5-1.64-7.53-5-7.53A5.13,5.13,0,0,0,207,71.81V81A5.52,5.52,0,0,0,211.79,83.75Z"/><path class="cls-5" d="M220.78,67.23h2.59l5.32,14.63,4.76-14.63H236l-6.26,18.62c-1.44,4.23-2.8,6.37-6.66,6.37a6,6,0,0,1-1.61-.21V89.66a6.81,6.81,0,0,0,1.44.18c2.55,0,3.67-1.3,4.41-4.62Z"/><path class="cls-5" d="M250.56,60.23h2.84v25.3h-2.84Z"/><path class="cls-5" d="M259.84,67.23h2.34V70c2-2.06,3.85-3.08,6.06-3.08,3,0,4.76,1.82,4.76,5.08V85.53h-2.49V72.93c0-2.62-.76-3.81-2.94-3.81-1.82,0-3.53.91-5.21,2.76V85.53h-2.52Z"/><path class="cls-5" d="M291.69,79.83a45.53,45.53,0,0,0,.24,5.7h-2l-.59-2.31a5.8,5.8,0,0,1-5.11,2.59c-4.48,0-7.21-3.43-7.21-9.52s2.69-9.38,7.35-9.38a5.22,5.22,0,0,1,4.76,2.42v-9.1h2.52ZM284.41,69c-2.91,0-4.73,2.49-4.73,7.11,0,5,1.65,7.56,5,7.56A5.13,5.13,0,0,0,289.17,81V71.81A5.52,5.52,0,0,0,284.41,69Z"/><path class="cls-5" d="M310.41,85.53H308.1V82.77c-2,2.06-3.88,3.08-6.09,3.08-3,0-4.76-1.82-4.76-5.08V67.23h2.52v12.6c0,2.62.77,3.81,2.94,3.81,1.82,0,3.5-.91,5.18-2.76V67.23h2.52Z"/><path class="cls-5" d="M316,80.77a6.3,6.3,0,0,0,5.22,2.94c2.24,0,3.67-1.22,3.67-3.08,0-2.45-2.06-2.62-5.63-3.71-3.12-.94-4.62-2.59-4.62-5,0-3,2.27-5,5.53-5a8.14,8.14,0,0,1,6.58,3l-1.68,1.68A5.94,5.94,0,0,0,320.32,69c-1.89,0-3.08,1-3.08,2.66a2.25,2.25,0,0,0,.91,1.89c1.22.88,2.94,1.09,4.86,1.72,3.05,1,4.45,2.52,4.45,5.07,0,3.26-2.49,5.5-6.55,5.5A8.23,8.23,0,0,1,314,82.38Z"/><path class="cls-5" d="M338.66,85.46a8.12,8.12,0,0,1-2.7.39c-2.76,0-4.16-1.19-4.16-3.57V69.4h-2.73V67.23h2.73V61.31h2.66v5.92h4.16V69.4h-4.16V81.12c0,1.86.28,2.49,2.41,2.49a6.85,6.85,0,0,0,1.79-.28Z"/><path class="cls-5" d="M342.12,67.23h2.59v4.16C345.94,68.45,347.58,67,350,67a3.89,3.89,0,0,1,.59,0v2.52h-.31c-2.49,0-4.45,2-5.57,5.78V85.53h-2.59Z"/><path class="cls-5" d="M352.2,67.23h2.59l5.32,14.63,4.76-14.63h2.59L361.2,85.85c-1.44,4.23-2.8,6.37-6.65,6.37a6,6,0,0,1-1.61-.21V89.66a6.81,6.81,0,0,0,1.43.18c2.56,0,3.68-1.3,4.41-4.62Z"/><g class="cls-2"><path class="cls-6" d="M645.37,244.76,628.37,2c5.37-.38,11.62-.59,17-.59Z"/><path class="cls-8" d="M645.37,244.76,598.87,5.91A225.33,225.33,0,0,1,628.37,2Z"/><path class="cls-7" d="M645.37,244.76,554.08,19.15A235.11,235.11,0,0,1,598.87,5.91Z"/><path class="cls-6" d="M645.37,244.76l-169.3-175a236.27,236.27,0,0,1,78-50.58Z"/><path class="cls-3" d="M645.37,244.76,424.49,141.92c13.66-29.22,28.35-49.79,51.58-72.19Z"/><path class="cls-8" d="M645.37,244.76l-243.12,17c-3-42.9,4-80.83,22.24-119.81Z"/><path class="cls-7" d="M645.37,244.76,502.12,441.6c-61-44.23-94.61-104.8-99.87-179.87Z"/><path class="cls-6" d="M645.37,244.76,763.53,457.57c-84.76,46.9-183,40.9-261.41-16Z"/><path class="cls-3" d="M645.37,244.76V1.44c134.6,0,243.71,108.93,243.71,243.32,0,91.37-45.5,168.5-125.55,212.81Z"/><path d="M639.92,365.56A120.37,120.37,0,1,0,519.55,245.19,120.37,120.37,0,0,0,639.92,365.56"/><path class="cls-3" d="M817.74,218.39a10.9,10.9,0,1,0-10.9-10.9,10.9,10.9,0,0,0,10.9,10.9"/><path class="cls-4" d="M817.74,218.39a10.9,10.9,0,1,0-10.9-10.9A10.9,10.9,0,0,0,817.74,218.39Z"/></g><rect class="cls-3" x="484.81" y="127.79" width="17.83" height="17.83"/><rect class="cls-4" x="484.81" y="127.79" width="17.83" height="17.83"/><g class="cls-2"><path class="cls-6" d="M633.44,439.72a10.9,10.9,0,1,0-10.9-10.89,10.9,10.9,0,0,0,10.9,10.89"/><path class="cls-4" d="M633.44,439.72a10.9,10.9,0,1,0-10.9-10.89A10.9,10.9,0,0,0,633.44,439.72Z"/><path class="cls-7" d="M480.26,342.38a10.9,10.9,0,1,0-10.9-10.9,10.9,10.9,0,0,0,10.9,10.9"/><path class="cls-4" d="M480.26,342.38a10.9,10.9,0,1,0-10.9-10.9A10.9,10.9,0,0,0,480.26,342.38Z"/><path class="cls-8" d="M459.85,220.68a10.9,10.9,0,1,0-10.9-10.9,10.89,10.89,0,0,0,10.9,10.9"/><path class="cls-4" d="M459.85,220.68a10.9,10.9,0,1,0-10.9-10.9A10.89,10.89,0,0,0,459.85,220.68Z"/></g><rect class="cls-6" x="536.34" y="80.02" width="17.83" height="17.83"/><rect class="cls-4" x="536.34" y="80.02" width="17.83" height="17.83"/><rect class="cls-7" x="585.88" y="58.23" width="17.84" height="17.83"/><rect class="cls-4" x="585.88" y="58.23" width="17.84" height="17.83"/><rect class="cls-8" x="612.63" y="54.26" width="17.84" height="17.83"/><rect class="cls-4" x="612.63" y="54.26" width="17.84" height="17.83"/><polygon class="cls-6" points="637.93 27.49 628.1 44.35 647.77 44.35 637.93 27.49"/><polygon class="cls-4" points="637.93 27.49 628.1 44.35 647.77 44.35 637.93 27.49"/></svg>