<?xml version="1.0" encoding="utf-8"?><svg id="Layer_1" data-name="Layer 1" xmlns="http://www.w3.org/2000/svg" viewBox="0 0 512 512"><defs><style>.cls-1{fill:#fff;}</style></defs><title>betterapproach white</title><path class="cls-1" d="M243.27,207.94c1.37,1.27,5.79,3.37,12.73,3.37s11.36-2.1,12.73-3.37c-1.37-1.27-5.79-3.37-12.73-3.37s-11.36,2.1-12.73,3.37"/><polygon class="cls-1" points="63.09 409.53 84.57 409.53 73.83 371.16 63.09 409.53"/><path class="cls-1" d="M507.78,202l-76.67-26.76v16.33l52.5,16.37L452.88,217a134.65,134.65,0,0,1,15,10.8l39.91-13.93a6.29,6.29,0,0,0,0-11.88"/><path class="cls-1" d="M388.88,160.5l-11.12-3.89c-5,2.94-9.08,9.47-10.73,12.94l21.85,7.28Z"/><path class="cls-1" d="M252.93,301a13.77,13.77,0,0,0,3.07.35,6.38,6.38,0,0,0,2.07-.35l70.62-24.65a21,21,0,0,1,21.83-7.62l38.36-13.39V239.05L256,285.43l-160.65-53,137.33-17.57c3.92,5.47,12.54,9,23.32,9,14.84,0,25.61-6.71,25.61-15.95S270.84,192,256,192c-11.59,0-20.7,4.1-24.14,10.3L72.12,221.93l-38.73-14L256,130.45l72.07,25.15c1.48-3.87,3.44-10.65,5.81-14.3l-75.81-26.46a6.25,6.25,0,0,0-4.14,0L4.22,202c-2.53.88-4.22,4.26-4.22,6.94s1.69,6.06,4.22,6.94L67.54,238V347L48.73,414.12a6.29,6.29,0,0,0,6.06,8H92.87a6.29,6.29,0,0,0,6.06-8L80.13,347V242.37l28.15,9.18-9.94,52.07a6.29,6.29,0,0,0,4,7.18l151.49,55.54a6.39,6.39,0,0,0,4.34,0l101.55-37.23c-5-2.69-11.45-7.6-15.25-10.55L256,350.72,113.76,299.85l8.51-43.12Z"/><path class="cls-1" d="M482.45,275.29c0-26.76-22.67-48.57-61.21-59.59v-75c27.88,4.38,39.79,23.05,40.31,23.88A11.25,11.25,0,1,0,480.86,153c-.79-1.33-18.51-30.17-59.62-35V101.13a11.25,11.25,0,0,0-22.5,0v16.59c-44.26,3.64-64.57,30.22-64.57,55.05,0,27.53,24,49.83,64.57,60.51v74.53c-30.19-3.32-43.05-23.34-43.7-24.4A11.25,11.25,0,0,0,335.76,295c.82,1.38,19.48,31.77,63,35.41v25.9a11.25,11.25,0,0,0,22.5,0V330C463.18,325.36,482.45,299.49,482.45,275.29ZM356.67,172.77c0-14.26,13.26-29.48,42.07-32.46V209.9C372.49,201.8,356.67,188.08,356.67,172.77Zm64.57,134.57V239.25c24.23,8.21,38.72,21.39,38.72,36C460,289,447.73,303.56,421.24,307.34Z"/></svg>