<?xml version="1.0" encoding="utf-8"?><svg id="Layer_1" data-name="Layer 1" xmlns="http://www.w3.org/2000/svg" viewBox="0 0 512 512"><defs><style>.cls-1{fill:#fff;}</style></defs><title>biggernetwork white</title><path class="cls-1" d="M356.05,386.88c-14.54-14.75-40.17-22.23-76.19-22.23-87,0-89.26,44.28-89.31,46.16a6.68,6.68,0,0,0,6.44,6.86h.23a6.63,6.63,0,0,0,6.67-6.46c0-.09.53-8.37,10.08-16.56C230,380.9,258.66,378,279.86,378c73.06,0,74.24,31.58,74.26,32.89a6.68,6.68,0,0,0,13.35.2C367.48,410.59,367.56,398.56,356.05,386.88Z"/><path class="cls-1" d="M503.82,160.39H444.43V101a6.67,6.67,0,0,0-6.67-6.67H371.69A6.68,6.68,0,0,0,365,101v59.39H305.62a6.69,6.69,0,0,0-6.68,6.68v11.72a80.14,80.14,0,0,0-99.42,66.74c0,.18-.05.37-.07.58l0,.12c0,.17,0,.35-.05.53a80.12,80.12,0,0,0-.63,9.75c0,.14,0,.28,0,.42v.4a1.54,1.54,0,0,0,0,.24c-2.93,30.91-15.3,86.61-15.42,87.17a6.68,6.68,0,0,0,6.51,8.13h59.66c9.58,6,19.5,9.05,29.49,9.05s19.91-3,29.48-9.05h59.66a6.68,6.68,0,0,0,6.52-8.13h0c-.08-.35-4.35-19.65-8.46-41.72a6.67,6.67,0,0,0,5.48,2.86h66.07a6.67,6.67,0,0,0,6.67-6.67v-59.4h59.39a6.68,6.68,0,0,0,6.68-6.67V167.07A6.69,6.69,0,0,0,503.82,160.39Zm-291.1,87.16a67.09,67.09,0,0,1,66.29-58A66.42,66.42,0,0,1,300,193a65.36,65.36,0,0,1,6.21,2.4,71.91,71.91,0,0,1-7,13.56c-11.71,17.94-36.21,39.6-86.54,41.53C212.69,249.46,212.71,248.48,212.72,247.55Zm-14.57,92c2.08-9.79,5.53-26.49,8.56-43.71,6.3,16.66,15.79,32.2,26.72,43.71Zm106.07.27h0c-7.14,5-14.46,7.93-21.74,8.62a36.57,36.57,0,0,1-6.94,0c-7.29-.69-14.6-3.59-21.74-8.62-23.73-16.69-38.8-51.16-41.29-75.9,47.88-1.71,74.83-20.87,89.05-36.74a96.57,96.57,0,0,0,7.06-8.89c.21,1.28.44,2.59.7,3.93.47,2.36.92,4.32,1.43,6.17a67.63,67.63,0,0,0,3.82,10.59,48.39,48.39,0,0,0,8,12.37,37.68,37.68,0,0,0,23,12.15C343.17,288.28,328.11,323,304.22,339.78Zm16.51-135.52a67.07,67.07,0,0,1,22.76,34.45,65.94,65.94,0,0,1,1.8,8.84c0,.76,0,1.54.06,2.32a24.07,24.07,0,0,1-12.91-7.52,32.08,32.08,0,0,1-3.58-4.82,46.49,46.49,0,0,1-4.46-10A88.76,88.76,0,0,1,320.73,204.26Zm3.87,135.25C335.52,328,345,312.46,351.31,295.79c3,17.27,6.48,33.95,8.56,43.72Zm34.65-81.94a1.45,1.45,0,0,0,0-.48v-.16c0-.14,0-.28,0-.42a80.12,80.12,0,0,0-.63-9.75c0-.17,0-.33-.05-.5l-.09-.71c-.26-1.93-.62-3.84-1-5.74H365v56.64C362.54,282.7,360.29,268.51,359.25,257.57Zm137.9-31.11H437.76a6.68,6.68,0,0,0-6.68,6.68v59.39H378.36V233.14a6.68,6.68,0,0,0-6.67-6.68h-18.3a80.76,80.76,0,0,0-35.53-40.15l-.46-.27c-1.61-.87-3.29-1.71-5.1-2.53v-9.76h59.39a6.68,6.68,0,0,0,6.67-6.68V107.68h52.72v59.39a6.69,6.69,0,0,0,6.68,6.68h59.39Z"/><path class="cls-1" d="M170.21,256.93c0-.14,0-.28,0-.42a80.41,80.41,0,0,0-41.34-70.17l-.53-.3A80.23,80.23,0,0,0,9.71,256.51c0,.14,0,.28,0,.42v.4a2.62,2.62,0,0,0,0,.37c.32,21.17,9.18,47,23.14,67.49C49,348.88,69.3,361.92,90,361.92s40.94-13,57.09-36.73c14-20.48,22.84-46.38,23.14-67.48a2.43,2.43,0,0,0,0-.38v-.4Zm-50.64-38.65c2.17,14.13,6.85,25.23,13.92,33a37.66,37.66,0,0,0,23,12.15c-1.71,18.06-9.8,39.22-21.29,55.59-13.37,19-29.43,29.52-45.25,29.52-35.34,0-63-50.36-66.49-84.69C77.11,262,105.17,238.81,119.57,218.28Zm-96.22,32.2A67,67,0,0,1,90,189.6a66.12,66.12,0,0,1,27.18,5.79,76.88,76.88,0,0,1-22.45,31C77.06,241.28,53.07,249.39,23.35,250.48Zm108.34-46.22a66.73,66.73,0,0,1,24.83,45.65,24,24,0,0,1-13.12-7.56C134.27,232.3,132.07,215.27,131.69,204.26Z"/><path class="cls-1" d="M167,386.88c-14.54-14.75-40.17-22.23-76.18-22.23-87,0-89.26,44.28-89.32,46.16a6.68,6.68,0,0,0,6.44,6.86h.24a6.63,6.63,0,0,0,6.67-6.46c0-.09.53-8.36,10.07-16.55C41,380.9,69.61,378,90.82,378c73,0,74.24,31.58,74.25,32.89a6.68,6.68,0,0,0,13.36.19C178.43,410.58,178.45,398.49,167,386.88Z"/></svg>