<?xml version="1.0" encoding="utf-8"?><svg id="Layer_1" data-name="Layer 1" xmlns="http://www.w3.org/2000/svg" viewBox="0 0 512 512"><defs><style>.cls-1{fill:#672666;}.cls-2{fill:#231f20;}.cls-3{fill:none;}</style></defs><title>connect</title><path class="cls-1" d="M245.42,136.79a45.85,45.85,0,1,0,45.85,45.85,45.9,45.9,0,0,0-45.85-45.85m0,105.8a60,60,0,1,1,60-60,60,60,0,0,1-60,60"/><path class="cls-1" d="M452.05,234.16A45.85,45.85,0,1,0,497.89,280a45.9,45.9,0,0,0-45.84-45.84m0,105.8A60,60,0,1,1,512,280a60,60,0,0,1-59.95,60"/><path class="cls-1" d="M60,283.52a45.85,45.85,0,1,0,45.85,45.84A45.89,45.89,0,0,0,60,283.52m0,105.8a60,60,0,1,1,60-60,60,60,0,0,1-60,60"/><path class="cls-2" d="M452,287.06a7.11,7.11,0,0,1-3-.67l-9.57-4.52a7.05,7.05,0,1,1,6-12.76l9.57,4.51a7.06,7.06,0,0,1-3,13.44"/><path class="cls-2" d="M296.65,213.83a7,7,0,0,1-3-.67l-20.83-9.82a7.05,7.05,0,1,1,6-12.76l20.83,9.82a7.05,7.05,0,0,1-3,13.43m41.66,19.63a7,7,0,0,1-3-.67L314.48,223a7.06,7.06,0,0,1,6-12.77L341.33,220a7.05,7.05,0,0,1-3,13.43M380,253.1a7.19,7.19,0,0,1-3-.67l-20.83-9.82a7.05,7.05,0,1,1,6-12.76L383,239.66a7.06,7.06,0,0,1-3,13.44m41.66,19.63a7,7,0,0,1-3-.67l-20.83-9.82a7.05,7.05,0,0,1,6-12.76l20.83,9.82a7.05,7.05,0,0,1-3,13.43"/><path class="cls-2" d="M237.13,196.25a7,7,0,0,1-4.38-12.58L241,177.1a7.08,7.08,0,0,1,7.38-.85l9.58,4.51a7.06,7.06,0,0,1-6,12.77l-5.62-2.65-4.87,3.85a7,7,0,0,1-4.37,1.52"/><path class="cls-2" d="M206.43,220.54A7,7,0,0,1,202.05,208l15.35-12.15a7.05,7.05,0,0,1,8.75,11.06L210.8,219a7,7,0,0,1-4.37,1.52m-30.71,24.29a7.05,7.05,0,0,1-4.38-12.58l15.35-12.15a7.06,7.06,0,1,1,8.75,11.07l-15.35,12.14a7,7,0,0,1-4.37,1.52M145,269.12a7,7,0,0,1-4.38-12.58L156,244.39a7.06,7.06,0,0,1,8.75,11.07L149.38,267.6a7,7,0,0,1-4.36,1.52m-30.71,24.29a7.05,7.05,0,0,1-4.38-12.58l15.35-12.14A7.05,7.05,0,1,1,134,279.75l-15.35,12.14a7,7,0,0,1-4.37,1.52M83.61,317.7a7,7,0,0,1-4.38-12.58L94.58,293A7.05,7.05,0,1,1,103.33,304L88,316.18a7,7,0,0,1-4.37,1.52"/><path class="cls-2" d="M60,336.42a7.06,7.06,0,0,1-4.38-12.59l8.29-6.56a7.05,7.05,0,0,1,8.76,11.06l-8.3,6.56A7,7,0,0,1,60,336.42"/><rect class="cls-3" width="512" height="512"/></svg>