<?xml version="1.0" encoding="utf-8"?><svg id="Layer_1" data-name="Layer 1" xmlns="http://www.w3.org/2000/svg" viewBox="0 0 512 512"><defs><style>.cls-1{fill:#dae343;}</style></defs><title>criteria</title><path class="cls-1" d="M77.37,490.35H434.63V21.65H77.37ZM445.45,512H66.55a10.83,10.83,0,0,1-10.83-10.83V10.83A10.83,10.83,0,0,1,66.55,0h378.9a10.83,10.83,0,0,1,10.83,10.83V501.17A10.83,10.83,0,0,1,445.45,512"/><path class="cls-1" d="M312.29,198.11h0a10.82,10.82,0,0,1-7.65-3.17l-42.53-42.53a10.82,10.82,0,1,1,15.3-15.31L312.29,172l77.35-77.34A10.83,10.83,0,0,1,405,109.94l-85,85a10.8,10.8,0,0,1-7.65,3.17"/><path class="cls-1" d="M213.17,155.61H114.71a10.83,10.83,0,1,1,0-21.65h98.46a10.83,10.83,0,0,1,0,21.65"/><path class="cls-1" d="M312.29,309.32a10.75,10.75,0,0,1-7.65-3.17l-42.53-42.53a10.82,10.82,0,1,1,15.3-15.31l34.88,34.88,77.35-77.34A10.83,10.83,0,0,1,405,221.16l-85,85a10.75,10.75,0,0,1-7.65,3.17"/><path class="cls-1" d="M213.17,271.87H114.71a10.83,10.83,0,1,1,0-21.65h98.46a10.83,10.83,0,0,1,0,21.65"/><path class="cls-1" d="M312.29,420.54h0a10.82,10.82,0,0,1-7.65-3.17l-42.53-42.54a10.82,10.82,0,1,1,15.3-15.3l34.88,34.87,77.35-77.34A10.83,10.83,0,0,1,405,332.37l-85,85a10.8,10.8,0,0,1-7.65,3.17"/><path class="cls-1" d="M213.17,380.94H114.71a10.83,10.83,0,1,1,0-21.65h98.46a10.83,10.83,0,0,1,0,21.65"/></svg>