<?xml version="1.0" encoding="utf-8"?><svg id="Layer_1" data-name="Layer 1" xmlns="http://www.w3.org/2000/svg" viewBox="0 0 512 512"><defs><style>.cls-1{fill:#231f20;}.cls-2{fill:#f3c300;}.cls-3{fill:none;}</style></defs><title>discover</title><path class="cls-1" d="M340,307.55a9.38,9.38,0,0,1-9.39-9.39V168.22a9.39,9.39,0,0,1,9.39-9.4H451.33a9.4,9.4,0,1,1,0,18.79h-102V298.16a9.39,9.39,0,0,1-9.4,9.39"/><path class="cls-1" d="M502.61,340.25H381.24a9.4,9.4,0,0,1-9.4-9.4V284.3a9.4,9.4,0,1,1,18.79,0v37.16H493.21V218.88H447.52a9.4,9.4,0,0,1,0-18.79h55.09a9.4,9.4,0,0,1,9.39,9.39V330.85a9.4,9.4,0,0,1-9.39,9.4"/><path class="cls-2" d="M221.43,195.79a9.4,9.4,0,0,1-9.21-7.61,108.52,108.52,0,0,1,6.75-63.5,9.39,9.39,0,0,1,17.27,7.39,89.79,89.79,0,0,0-5.57,52.54,9.38,9.38,0,0,1-7.44,11,9.14,9.14,0,0,1-1.8.17"/><path class="cls-2" d="M319,276.14a111.26,111.26,0,0,1-11.36-.59,9.4,9.4,0,0,1,1.94-18.69A89.93,89.93,0,0,0,350.25,83.13a9.39,9.39,0,0,1,6.52-17.62A108.72,108.72,0,0,1,319,276.14"/><path class="cls-2" d="M419.2,67.17a141.84,141.84,0,0,0-223.82,170L11.13,421.37A38.08,38.08,0,0,0,65,475.23L249.23,291a141.83,141.83,0,0,0,170-223.82ZM51.7,461.94a19.29,19.29,0,0,1-27.28-27.29L205,254.05l27.29,27.29ZM405.91,254.41a123,123,0,0,1-173.86.09l-.2-.19a123,123,0,1,1,174.06.1Z"/><rect class="cls-3" width="512" height="512"/></svg>