<?xml version="1.0" encoding="utf-8"?><svg id="Layer_1" data-name="Layer 1" xmlns="http://www.w3.org/2000/svg" viewBox="0 0 512 512"><defs><style>.cls-1{fill:#243746;}</style></defs><title>established</title><path class="cls-1" d="M82.23,380.83h29.36V204.61H82.23Zm39.15,19.58H72.44a9.79,9.79,0,0,1-9.79-9.79V194.82A9.79,9.79,0,0,1,72.44,185h48.94a9.79,9.79,0,0,1,9.79,9.79v195.8a9.79,9.79,0,0,1-9.79,9.79"/><path class="cls-1" d="M188.29,380.83h29.37V204.61H188.29Zm39.16,19.58H178.5a9.79,9.79,0,0,1-9.79-9.79V194.82A9.79,9.79,0,0,1,178.5,185h48.95a9.79,9.79,0,0,1,9.79,9.79v195.8a9.79,9.79,0,0,1-9.79,9.79"/><path class="cls-1" d="M294.34,380.83h29.37V204.61H294.34Zm39.16,19.58H284.56a9.79,9.79,0,0,1-9.79-9.79V194.82a9.79,9.79,0,0,1,9.79-9.79H333.5a9.79,9.79,0,0,1,9.79,9.79v195.8a9.79,9.79,0,0,1-9.79,9.79"/><path class="cls-1" d="M400.41,380.83h29.37V204.61H400.41Zm39.16,19.58H390.62a9.79,9.79,0,0,1-9.79-9.79V194.82a9.79,9.79,0,0,1,9.79-9.79h48.95a9.79,9.79,0,0,1,9.79,9.79v195.8a9.79,9.79,0,0,1-9.79,9.79"/><path class="cls-1" d="M78.81,146.86H433.19L256,21.78ZM464,166.44H48a9.79,9.79,0,0,1-5.65-17.79L250.35,1.8a9.75,9.75,0,0,1,11.29,0L469.69,148.65A9.79,9.79,0,0,1,464,166.44"/><path class="cls-1" d="M57.75,492.42h396.5V438.58H57.75ZM464,512H48a9.79,9.79,0,0,1-9.79-9.79V428.78A9.79,9.79,0,0,1,48,419H464a9.79,9.79,0,0,1,9.79,9.79v73.43A9.79,9.79,0,0,1,464,512"/></svg>