<?xml version="1.0" encoding="utf-8"?><svg id="Layer_1" data-name="Layer 1" xmlns="http://www.w3.org/2000/svg" viewBox="0 0 512 512"><defs><style>.cls-1{fill:#243746;}</style></defs><title>healthIT</title><path class="cls-1" d="M185.19,490.21H326.81V337.7a10.9,10.9,0,0,1,10.89-10.89H490.21V185.19H337.7a10.9,10.9,0,0,1-10.89-10.89V21.79H185.19V174.3a10.9,10.9,0,0,1-10.89,10.89H21.79V326.81H174.3a10.9,10.9,0,0,1,10.89,10.89ZM337.7,512H174.3a10.9,10.9,0,0,1-10.9-10.89V348.6H10.89A10.9,10.9,0,0,1,0,337.7V174.3a10.9,10.9,0,0,1,10.89-10.9H163.4V10.89A10.9,10.9,0,0,1,174.3,0H337.7a10.89,10.89,0,0,1,10.89,10.89V163.4H501.1A10.9,10.9,0,0,1,512,174.3V337.7a10.9,10.9,0,0,1-10.9,10.9H348.59V501.11A10.89,10.89,0,0,1,337.7,512"/><path class="cls-1" d="M256,141.62A16.34,16.34,0,1,0,272.34,158,16.35,16.35,0,0,0,256,141.62m0,54.46A38.13,38.13,0,1,1,294.13,158,38.17,38.17,0,0,1,256,196.08"/><path class="cls-1" d="M239.66,375.83h32.68V234.21H239.66Zm43.57,21.79H228.77a10.9,10.9,0,0,1-10.9-10.9V223.32a10.9,10.9,0,0,1,10.9-10.9h54.46a10.9,10.9,0,0,1,10.9,10.9v163.4a10.9,10.9,0,0,1-10.9,10.9"/></svg>