<?xml version="1.0" encoding="utf-8"?><svg id="Layer_1" data-name="Layer 1" xmlns="http://www.w3.org/2000/svg" viewBox="0 0 512 512"><defs><style>.cls-1{fill:#0076bb;}</style></defs><title>incubator</title><path class="cls-1" d="M496.25,425.34H157.54V87.46l338.71,33.87Zm-480.5-305,126-31.51v336.5h-126Zm489.16-14L150.45,70.92a4.51,4.51,0,0,0-.52,0c-.23,0-.46,0-.68,0a8,8,0,0,0-1.2.16l-.3,0L6,106.56a7.87,7.87,0,0,0-6,7.64v319a7.87,7.87,0,0,0,7.88,7.87H504.12a7.87,7.87,0,0,0,7.88-7.87v-319a7.88,7.88,0,0,0-7.09-7.84"/><path class="cls-1" d="M184.49,157.5l284.14,22.35.62,0a7.88,7.88,0,0,0,.61-15.73L185.72,141.79a7.88,7.88,0,1,0-1.23,15.71"/><path class="cls-1" d="M184.67,228.4l283.89,16H469a7.88,7.88,0,0,0,.43-15.75l-283.89-16a7.88,7.88,0,1,0-.88,15.73"/><path class="cls-1" d="M184.84,299.3l284.88,9.61H470a7.88,7.88,0,0,0,.26-15.75l-284.88-9.6a7.78,7.78,0,0,0-8.13,7.6,7.86,7.86,0,0,0,7.6,8.14"/><path class="cls-1" d="M185,370.2l283.88,3.19H469a7.88,7.88,0,0,0,.09-15.76L185.2,354.45h-.09A7.88,7.88,0,0,0,185,370.2"/><path class="cls-1" d="M112.67,141.92,41.34,156.19a7.88,7.88,0,0,0,1.53,15.6,8.22,8.22,0,0,0,1.55-.15l71.34-14.27a7.88,7.88,0,0,0-3.09-15.45"/><path class="cls-1" d="M122,219.42a7.87,7.87,0,0,0-8.91-6.68L41.77,222.93a7.88,7.88,0,0,0,1.1,15.68,8.56,8.56,0,0,0,1.12-.08l71.34-10.19a7.88,7.88,0,0,0,6.68-8.92"/><path class="cls-1" d="M113.54,283.58,42.21,289.7a7.87,7.87,0,0,0,.66,15.72c.22,0,.45,0,.68,0l71.34-6.12a7.88,7.88,0,0,0-1.35-15.7"/><path class="cls-1" d="M114,354.45l-71.34,2a7.88,7.88,0,0,0,.22,15.75h.23l71.34-2a7.88,7.88,0,0,0,7.65-8.1,7.74,7.74,0,0,0-8.1-7.65"/></svg>