<?xml version="1.0" encoding="utf-8"?><svg id="Layer_1" data-name="Layer 1" xmlns="http://www.w3.org/2000/svg" viewBox="0 0 512 512"><defs><style>.cls-1{fill:#0076bb;}</style></defs><title>innovcenters</title><path class="cls-1" d="M197.31,349.68H314.69c24.5-57.84,57.49-113.66,61-119.5.09-.17.18-.34.28-.51A138.67,138.67,0,0,0,395.87,158c0-76.83-62.74-139.33-139.87-139.33S116.13,81.15,116.13,158a138.65,138.65,0,0,0,19.93,71.69c.1.17.19.34.28.51,3.49,5.84,36.47,61.67,61,119.5M320.9,368.33H191.1a9.33,9.33,0,0,1-8.62-5.77c-25.38-61.53-62-122.65-62.41-123.26q-.15-.24-.27-.48A157.24,157.24,0,0,1,97.48,158C97.48,70.87,168.59,0,256,0S414.52,70.87,414.52,158a157.29,157.29,0,0,1-22.32,80.84q-.12.24-.27.48c-.36.61-37.05,61.78-62.41,123.26a9.33,9.33,0,0,1-8.62,5.77"/><path class="cls-1" d="M314.28,406.5H197.72a9.33,9.33,0,1,1,0-18.65H314.28a9.33,9.33,0,1,1,0,18.65"/><path class="cls-1" d="M302.62,444.38H209.38a9.33,9.33,0,1,1,0-18.65h93.24a9.33,9.33,0,1,1,0,18.65"/><path class="cls-1" d="M237.21,481.69a21,21,0,0,0,37.58,0ZM256,512a39.68,39.68,0,0,1-39.63-39.63,9.33,9.33,0,0,1,9.32-9.33h60.62a9.33,9.33,0,0,1,9.32,9.33A39.68,39.68,0,0,1,256,512"/><path class="cls-1" d="M324.41,189.92a9.32,9.32,0,0,0-12.74-1.61c-.29.21-29,20.95-49.08.92a9.32,9.32,0,0,0-13.18,0c-19.88,19.87-47.92-.08-49.08-.92a9.33,9.33,0,0,0-11.79,14.42c34.28,31.09,38.87,104.2,38.92,104.94a9.32,9.32,0,0,0,9.3,8.79l.54,0a9.32,9.32,0,0,0,8.78-9.83c-.15-2.62-3.21-51.93-24.19-90.39,11.12,1.31,23.17-.53,34.11-8.31,10.94,7.79,23,9.64,34.11,8.31-21,38.46-24,87.77-24.19,90.39a9.33,9.33,0,0,0,8.78,9.84h.54a9.32,9.32,0,0,0,9.3-8.8c0-.73,4.56-73.77,38.92-104.93a9.33,9.33,0,0,0,1-12.81"/></svg>