<?xml version="1.0" encoding="utf-8"?><svg id="Layer_1" data-name="Layer 1" xmlns="http://www.w3.org/2000/svg" viewBox="0 0 512 512"><defs><style>.cls-1{fill:#243746;}</style></defs><title>jobs</title><path class="cls-1" d="M442.46,468.54H69.53a49.72,49.72,0,0,1-49.66-49.67V310.22H492.13V418.87a49.72,49.72,0,0,1-49.67,49.67M69.53,132H442.46a49.72,49.72,0,0,1,49.67,49.67V290.35H19.87V181.7A49.72,49.72,0,0,1,69.53,132M198.46,43.46H313.53v68.71H198.46Zm244,68.71H333.4V33.53a9.94,9.94,0,0,0-9.93-9.94H188.53a9.94,9.94,0,0,0-9.93,9.94v78.64H69.53A69.61,69.61,0,0,0,0,181.7V418.87a69.62,69.62,0,0,0,69.53,69.54H442.46A69.61,69.61,0,0,0,512,418.87V181.7a69.6,69.6,0,0,0-69.53-69.53"/><path class="cls-1" d="M211.5,266.14h89a9.94,9.94,0,1,0,0-19.87h-89a9.94,9.94,0,0,0,0,19.87"/></svg>