<?xml version="1.0" encoding="utf-8"?><svg id="Layer_1" data-name="Layer 1" xmlns="http://www.w3.org/2000/svg" viewBox="0 0 512 512"><defs><style>.cls-1{fill:#243746;}</style></defs><title>licenses</title><path class="cls-1" d="M452.66,101.05a32.71,32.71,0,0,1-62.45,13.68,32.7,32.7,0,1,1,62.45-13.68M343.73,193A32.68,32.68,0,1,1,341.05,180,32.78,32.78,0,0,1,343.73,193M234.79,331.82a32.72,32.72,0,0,1-64.33,8.45,32.27,32.27,0,0,1-1.15-8.45,32.74,32.74,0,0,1,65.48,0M125.86,394.06a33.15,33.15,0,1,1-1-7.73,32.78,32.78,0,0,1,1,7.73M510.58,41.58a8.87,8.87,0,0,0-12.26-2.65L456.22,66a50.41,50.41,0,0,0-79.82,60.48l-32.78,28A50.41,50.41,0,0,0,273.86,227l-47.27,60.7a50.37,50.37,0,0,0-71.89,61.41L132,361.93A50.44,50.44,0,0,0,49.34,419.1L3.09,458.89a8.87,8.87,0,0,0,11.57,13.45l46.06-39.62a50.39,50.39,0,0,0,80-55.31l22.91-12.92A50.43,50.43,0,1,0,240.32,299L288,237.82a50.42,50.42,0,0,0,67-69.66l33-28.12a50.43,50.43,0,0,0,78.23-59.26l41.81-26.93a8.87,8.87,0,0,0,2.65-12.27"/></svg>