<?xml version="1.0" encoding="utf-8"?><svg id="Layer_1" data-name="Layer 1" xmlns="http://www.w3.org/2000/svg" viewBox="0 0 512 512"><defs><style>.cls-1{fill:#243746;}</style></defs><title>monetized</title><path class="cls-1" d="M317.7,368c0,8.94-7.91,18.43-25,21.4V344.06c15.66,5.73,25,14.39,25,23.92M246,293.71c0-9.36,8.65-19.33,27.39-21.78v46.55c-17.13-5.7-27.39-14.76-27.39-24.77m37.09-61.6a9.7,9.7,0,0,0-9.7,9.7v10.64c-32,3.17-46.78,22.83-46.78,41.26,0,20.42,17.35,37,46.78,45v51c-19.8-2.86-28.34-16-28.81-16.7a9.69,9.69,0,0,0-16.6,10c.6,1,14.14,23,45.41,26.23v17.4a9.7,9.7,0,1,0,19.39,0V409c30.35-3.9,44.35-23,44.35-41,0-19.85-16.42-36-44.35-44.29V272.35c18.15,3.55,26,15.68,26.33,16.21a9.69,9.69,0,0,0,16.65-9.93c-.59-1-13.46-21.81-43-25.91V241.81a9.69,9.69,0,0,0-9.69-9.7"/><path class="cls-1" d="M281.83,156.5c-98,0-177.75,79.73-177.75,177.75a9.69,9.69,0,0,0,19.38,0c0-87.32,71-158.37,158.37-158.37s158.36,71.05,158.36,158.37-71,158.36-158.36,158.36c-115.81,0-210-94.21-210-210,0-108.91,83.34-198.71,189.6-209l-35.63,35.63a9.69,9.69,0,1,0,13.71,13.71l53.07-53.06a9.69,9.69,0,0,0,0-13.71L239.25,2.84a9.69,9.69,0,1,0-13.71,13.71L263,54C145.29,63.63,52.42,162.44,52.42,282.59,52.42,409.09,155.33,512,281.83,512c98,0,177.75-79.74,177.75-177.75S379.84,156.5,281.83,156.5"/></svg>