<?xml version="1.0" encoding="utf-8"?><svg id="Layer_1" data-name="Layer 1" xmlns="http://www.w3.org/2000/svg" viewBox="0 0 512 512"><defs><style>.cls-1{fill:#243746;}</style></defs><title>patents</title><path class="cls-1" d="M256,96a68.5,68.5,0,1,0,68.5,68.5A68.57,68.57,0,0,0,256,96m0,155.42a86.92,86.92,0,1,1,86.93-86.92A87,87,0,0,1,256,251.44"/><path class="cls-1" d="M429,465.24,358.73,277.36h0l14.15-.28a9.2,9.2,0,0,0,9-10L379,233.84l30.21-14.18a9.19,9.19,0,0,0,4.15-12.78l-16.1-29.23,21.83-25.24a9.22,9.22,0,0,0-1.4-13.36l-26.6-20.15L400.81,87a9.21,9.21,0,0,0-6.72-11.64l-32.5-7.59-4.16-33.11a9.21,9.21,0,0,0-10.87-7.9L313.79,33,296.53,4.44a9.21,9.21,0,0,0-13.15-2.78L256,20.73,228.62,1.66a9.19,9.19,0,0,0-13.14,2.78L198.21,33l-32.77-6.29a9.23,9.23,0,0,0-10.88,7.9l-4.15,33.11-32.49,7.59A9.21,9.21,0,0,0,111.2,87l9.68,31.93L94.27,139.05a9.22,9.22,0,0,0-1.4,13.36l21.83,25.24L98.59,206.88a9.21,9.21,0,0,0,4.16,12.78L133,233.84l-2.83,33.26a9.2,9.2,0,0,0,9,10l14.15.28h0L83,465.24a9.21,9.21,0,0,0,10.59,12.22l51.19-11.19,31.29,42A9.22,9.22,0,0,0,183.5,512a9.32,9.32,0,0,0,1.29-.09,9.19,9.19,0,0,0,7.33-5.89L256,335.11,319.89,506a9.18,9.18,0,0,0,7.32,5.89,9.58,9.58,0,0,0,1.3.09,9.24,9.24,0,0,0,7.39-3.71l31.28-42,51.19,11.19A9.21,9.21,0,0,0,429,465.24ZM149.32,258.86,151.86,229a9.24,9.24,0,0,0-5.27-9.12l-27.12-12.72,14.46-26.25a9.2,9.2,0,0,0-1.1-10.46l-19.6-22.66,23.88-18.09a9.23,9.23,0,0,0,3.26-10L131.68,91l29.17-6.81a9.2,9.2,0,0,0,7-7.83l3.73-29.72L201,52.3A9.22,9.22,0,0,0,210.66,48l15.5-25.65L250.74,39.5a9.17,9.17,0,0,0,10.52,0l24.59-17.12L301.34,48A9.22,9.22,0,0,0,311,52.3l29.42-5.64,3.73,29.73a9.22,9.22,0,0,0,7,7.82L380.33,91l-8.69,28.68a9.18,9.18,0,0,0,3.25,10l23.88,18.09-19.6,22.66a9.2,9.2,0,0,0-1.1,10.46l14.47,26.25-27.13,12.72a9.21,9.21,0,0,0-5.26,9.12l2.54,29.85-10.79.22-19.17.38c-.11,0-.22.05-.33.05a9.21,9.21,0,0,0-8.19,6.13L314.39,294l-27.6-11.64a9.19,9.19,0,0,0-10.3,2.19l-2.61,2.79L256,306.36l-17.88-19.08-2.61-2.78a9.21,9.21,0,0,0-6.72-2.91,9.11,9.11,0,0,0-3.57.72L197.61,294l-9.82-28.31a9.22,9.22,0,0,0-8.19-6.13c-.11,0-.21-.05-.33-.05l-19.16-.38ZM341.2,277.71l-1.69,0h0Zm-168.71,0h0l-1.76,0Zm69.94,41.07L180.79,483.74,156,450.51a9.21,9.21,0,0,0-7.38-3.71,8.74,8.74,0,0,0-2,.21l-40.49,8.85,66.43-177.7,10.8,31.11a9.21,9.21,0,0,0,12.28,5.47l30.75-13,16,17Zm27.14,0,16-17.05,30.75,13a9.19,9.19,0,0,0,12.27-5.47l10.81-31.11,0-.06,0,0,66.42,177.71L365.31,447a9.23,9.23,0,0,0-9.35,3.5l-24.74,33.23L269.57,318.82Z"/></svg>