<?xml version="1.0" encoding="utf-8"?><svg id="Layer_1" data-name="Layer 1" xmlns="http://www.w3.org/2000/svg" viewBox="0 0 512 512"><defs><style>.cls-1{fill:#243746;}</style></defs><title>staff</title><path class="cls-1" d="M121,107.86a91.92,91.92,0,0,1,38,8.25c-7.3,18.87-36.43,73.31-130.13,76.61A92.6,92.6,0,0,1,121,107.86m92.11,84.19a33.81,33.81,0,0,1-19.08-10.72c-12.94-14.24-15.86-38.29-16.29-53.88a92.39,92.39,0,0,1,35.37,64.6M121,327.5C73.07,327.5,33.6,259.71,29,209.87c76.16-2.55,114.62-36.64,133.12-63.59,2.28,15.83,7.56,33.75,19.19,46.59a51.3,51.3,0,0,0,31.86,16.58c-4.47,49.87-44,118.05-92.11,118.05M11.32,201.88C12.08,260,57.9,344.71,121,344.71S230,260,230.73,201.88c0-.12,0-.24,0-.36s0-.15,0-.22c0-.3,0-.61,0-.91a109.83,109.83,0,0,0-56.52-95.93,6.55,6.55,0,0,0-.78-.44A109.7,109.7,0,0,0,11.28,200.39c0,.3,0,.61,0,.91a1.66,1.66,0,0,0,0,.22c0,.12,0,.24,0,.36"/><path class="cls-1" d="M226.5,380c-19.86-20.16-55-30.38-104.31-30.38C3.17,349.61.08,409.93,0,412.49a8.61,8.61,0,0,0,8.36,8.85h.25a8.61,8.61,0,0,0,8.6-8.35c0-.47,2.5-46.17,105-46.17,100.7,0,102.61,44.05,102.65,45.8a8.61,8.61,0,0,0,17.21.24c0-1.73-.21-17.31-15.55-32.87"/><path class="cls-1" d="M382,349.61c-119,0-122.11,60.31-122.18,62.89a8.6,8.6,0,0,0,8.36,8.84h.24a8.61,8.61,0,0,0,8.6-8.36c0-.45,2.51-46.16,105-46.16,100.7,0,102.61,44.05,102.65,45.8a8.59,8.59,0,0,0,8.48,8.72,8.46,8.46,0,0,0,8.72-8.48c0-1.72-.2-17.32-15.54-32.87-19.87-20.16-55-30.38-104.31-30.38"/><path class="cls-1" d="M442.88,315.06c16.46-17,29.43-39.36,37.67-62.22,4.31,24.68,9.31,48.87,12.17,62.22Zm-173.87,0c2.86-13.35,7.86-37.54,12.17-62.22,8.24,22.86,21.21,45.25,37.67,62.22Zm111.86-207.2a91.68,91.68,0,0,1,38,8.27C411.54,135,382.45,189.31,289,192.72c.06-1.41.14-2.86.16-4.14a92.61,92.61,0,0,1,91.69-80.72m91.68,80.72c0,1,.09,2.26.13,3.4a33.87,33.87,0,0,1-18.79-10.65C441,167.1,438,143.06,437.6,127.48a92.51,92.51,0,0,1,34.95,61.1m-56.2,126.48c-10.93,7.77-22.91,12.44-35.48,12.44s-24.56-4.67-35.49-12.44c-30.77-21.89-53.13-68.42-56.55-105.19,76.15-2.56,114.59-36.64,133.08-63.59,2.29,15.83,7.57,33.75,19.2,46.59A51.19,51.19,0,0,0,473,209.44c-3.29,36.84-25.71,83.65-56.6,105.62m95.44,6.73c-.19-.87-17.24-77.77-21.22-120a2.85,2.85,0,0,0,0-.29,1.64,1.64,0,0,0,0-.22c0-.31,0-.61,0-.91a109.66,109.66,0,0,0-1-14.47c0-.2-.05-.39-.08-.59a109.86,109.86,0,0,0-54.91-80.46,8.57,8.57,0,0,0-2.5-1.37,109.48,109.48,0,0,0-159.94,81.83c0,.2-.06.39-.08.59a109.66,109.66,0,0,0-1,14.47c0,.3,0,.6,0,.91a1.64,1.64,0,0,0,0,.22c0,.1,0,.19,0,.29-4,42.2-21,119.11-21.21,120a8.58,8.58,0,0,0,8.39,10.47h81.58c12.48,7.81,26.24,12.45,41,12.45s28.47-4.64,40.95-12.45h81.57a8.58,8.58,0,0,0,8.4-10.47"/></svg>