<?xml version="1.0" encoding="utf-8"?><svg id="Layer_1" data-name="Layer 1" xmlns="http://www.w3.org/2000/svg" viewBox="0 0 512 512"><defs><style>.cls-1{fill:#243746;}</style></defs><title>stategrants</title><path class="cls-1" d="M467.07,192.29c-9,6.67-9.33,12.17-6.6,21.27.33,1.12.74,2.47,1.2,4.12,2.34,8.52,1.71,17.35-2,27.8-3.73,10.61-7.81,21.36-11.76,31.77-3.8,10-7.58,20-11.16,30-2.09,5.88-1.74,11.66-1.45,16.29.08,1.12.15,2.24.17,3.52-2.55,2.46-5,5-7.49,7.57-5.06,5.22-9.84,10.16-15.15,14.07a110.67,110.67,0,0,1-19.52,11.15,17.61,17.61,0,0,0-9.75-4.85,11.28,11.28,0,0,0-7.59,1.61c-6,3.78-8.88,9.28-11,13.29-.46.88-.9,1.75-1.4,2.59-.19.34-.37.63-.52.86-6.52.11-11.58,3.86-15.05,11.18a9.55,9.55,0,0,1-.48,1c-2.85,5.13-3.19,12.35-3.48,23.71-.07,2.64-.16,6.36-.37,9.33-4.22-6.3-10.73-9.11-14.57-10.74-2.28-.94-10.21-3.39-17.13,5.11-6.57,8.05-12,16.63-17.53,25.46a12.22,12.22,0,0,0-1.45,3.33c-.13.33-.21.68-.31,1,0,.17-.1.32-.15.48a.61.61,0,0,1,0,.13c-.06.28-.06.56-.1.84a10.73,10.73,0,0,0-.15,1.27,11,11,0,0,0,.08,1.41,5.81,5.81,0,0,0,.05.72l0,.22v0l2.59,16.2c-6.91,2.5-11.26,8.26-12.08,16.17a26.89,26.89,0,0,0-.07,3.6c0,.39,0,.72-.07,1a58.67,58.67,0,0,0-9.36,3c-.67.26-1.35.52-2,.77-3.34-4.18-7.11-8.47-11.48-13a22.83,22.83,0,0,0-11.66-7.08c-.08-.39-.16-.78-.23-1.16-1-5.14-2.33-11.44-6.13-17.36-.13-.24-.27-.47-.42-.7s-.21-.4-.34-.58-.27-.29-.39-.44a5.56,5.56,0,0,0-.39-.44,11.24,11.24,0,0,0-9.48-3.76,14.58,14.58,0,0,0-3.51,0,18.81,18.81,0,0,0-8.39,3.4c-1.55,1.1-3.19,2.1-4.82,3.11a63.27,63.27,0,0,0-11.73,8.63c-2.41,2.37-4.19,3.55-12.85.25-6-2.29-11.82-4.9-18-7.66l-2.16-1c-9.84-4.4-17.05-.75-20.87,4.39a74,74,0,0,1-5.21-5.36c-7.66-9-17.77-10.75-25.73-11.25a153.25,153.25,0,0,0-15.61-.11c-1.29-2.95-2.53-5.92-3.78-8.9-1.92-4.62-3.86-9.23-6-13.79a22.49,22.49,0,0,0-13.59-12.17c-7.44-2.6-14.9-5.12-22.36-7.63l-9-3.06c-1.06-.37-2.13-.73-3.19-1-1.21-.3-2.09-.56-2.82-.79q.07-127.26,0-254.54v-54c0-7.76,0-15.52,0-23.59q26.8-.9,53.6-1.73l19.38-.61c1.64,0,3.27-.08,4.89-.11,3.83-.08,7.65-.15,11.46-.45,14-1.13,30.59-1.67,46.92,2.95,7.73,2.19,15.09,5.58,22.89,9.16l5.11,2.33c1,.45,2,.83,3,1.2.35.13.73.25,1.08.39a54.47,54.47,0,0,0,7.76,8.7,52.27,52.27,0,0,1,3.82,3.92,20.17,20.17,0,0,0,18.31,7.41c5.71-.61,10,.38,13.51,3.12,8.38,6.58,18,7.35,28.65,2.32,1.28-.6,2.55-1.24,3.82-1.88,3.56-1.78,6.92-3.46,9.76-4l6.94-1.34c14.1-2.76,27.42-5.36,40.7-4.08,9.44.92,17.59-2.3,24.27-9.53l2.11-2.33c2.72-3,5.29-5.88,7.75-7.35,18-10.73,34.28-20.29,51.1-28.62,6-2.94,12.83-4.82,20.09-6.82,3.08-.84,6.16-1.68,9.19-2.62,2.48-.75,4.94-1.61,7.4-2.46q2.87-1,5.62-1.9c0,.32,0,.64,0,.95q.07,45.21.06,90.43c0,24.36,0,48.73,0,73.59-1.41,1.12-2.56,2-3.48,2.66M489.17,5.21A11,11,0,0,0,487,2.92l-.17-.12c-.11-.1-.22-.16-.32-.25a12.52,12.52,0,0,0-1.09-.83l-.26-.13a8.16,8.16,0,0,0-.84-.41,9.7,9.7,0,0,0-1.19-.54c-.22-.09-.46-.12-.69-.19A12.89,12.89,0,0,0,481,.1c-.22,0-.45,0-.67,0a11.47,11.47,0,0,0-1.55,0h-.18c-7.87.57-14.93,3-21.15,5.22-2.17.76-4.33,1.53-6.52,2.19-2.82.86-5.69,1.65-8.56,2.43-8,2.19-16.24,4.45-24.14,8.36C400.62,26.9,384,36.69,365.54,47.66c-5.42,3.23-9.44,7.71-13,11.66l-1.91,2.12c-2.09,2.26-3.4,2.57-5.5,2.35-16.58-1.59-32.14,1.45-47.2,4.4l-6.79,1.31c-5.95,1.11-11.12,3.71-15.69,6-1.12.56-2.24,1.13-3.37,1.65-3.37,1.61-4,1.18-5,.34-7.95-6.25-17.67-8.89-29-7.9-1.66-1.9-3.38-3.57-4.92-5a33,33,0,0,1-5-5.44c-3.51-5.57-8.73-7.48-11.85-8.61-.51-.18-1-.36-1.47-.57l-5-2.26c-8.24-3.79-16.76-7.7-26.18-10.37-19.78-5.6-38.85-5-54.88-3.74-3.34.27-6.7.33-10.06.39-1.73,0-3.47.06-5.19.12l-19.38.61q-29.08.91-58.17,1.88c-10.81.37-17.28,7.15-17.32,18.14,0,9.3,0,18.61,0,27.91v54q0,128.46,0,256.89a29,29,0,0,0,4.21,15.86,11.33,11.33,0,0,0,9.61,5.34,11.17,11.17,0,0,0,4.77-1.19c.46.13.87.25,1.4.37.34.09.67.23,1,.34l9.43,3.2c7.38,2.48,14.76,5,22.1,7.54.41.14.55.23.58.42,2,4.26,3.8,8.59,5.61,12.93,1.63,3.92,3.28,7.85,5,11.72a18.17,18.17,0,0,0,18.25,11.13,142.94,142.94,0,0,1,15.54,0c6.25.39,8.43,1.57,9.93,3.33a103,103,0,0,0,7.67,7.88l1.93,1.84c9.85,9.55,17.14,9.46,27.2-.63l.62-.64c5.82,2.61,11.83,5.26,18,7.62,3.19,1.22,9.11,3.47,16,3.47a28.67,28.67,0,0,0,20.76-8.75,41.86,41.86,0,0,1,7.23-5.18c.1.51.2,1,.3,1.52.26,1.31.51,2.6.8,3.91,1.9,8.51,8,14.07,16.28,14.95.22.21.42.43.65.67a167.93,167.93,0,0,1,12,13.88,16.93,16.93,0,0,0,13.64,7,21.67,21.67,0,0,0,5.92-.88c2.17-.64,4.3-1.43,6.42-2.25a38.2,38.2,0,0,1,5.89-1.94c6.41-1.23,17.27-5.75,18-22.1a1.77,1.77,0,0,0,0-.23A20.48,20.48,0,0,0,316.67,477a11.37,11.37,0,0,0,2-8.42l-3.35-20.91c3.4-5.42,6.67-10.49,10.19-15.27a38.93,38.93,0,0,0,5.13,8.39h0a11.38,11.38,0,0,0,1.49,1.61c.18.15.38.27.57.42a10.41,10.41,0,0,0,1.15.82,8.69,8.69,0,0,0,.81.4,8.54,8.54,0,0,0,1.11.5,9.46,9.46,0,0,0,.91.26,10.34,10.34,0,0,0,1.13.27c.34.06.69.07,1,.1s.51.07.76.07l.46,0,.38,0,.31,0c.31,0,.6-.12.9-.17a9,9,0,0,0,.93-.18,11.67,11.67,0,0,0,1.6-.58l.36-.15h.05l1.16-.15a19.49,19.49,0,0,0,10.36-5.44l.16-.06a45.38,45.38,0,0,0,2.71-1.1,10.73,10.73,0,0,0,1-.74,12.27,12.27,0,0,0,1.33-1.05,11,11,0,0,0,.81-1,12.35,12.35,0,0,0,1-1.45c.07-.12.17-.21.24-.33,2.65-5,3-12,3.25-23,.11-4.32.3-11.45.9-13.79l.13-.24c9.21-1.34,13.43-8.48,15.37-11.77.4-.68.78-1.38,1.16-2.08a18.08,18.08,0,0,0,4.25,1.85,11.35,11.35,0,0,0,7.58-.43c8.62-3.64,19.83-8.81,30.17-16.43,6.84-5,12.51-10.88,18-16.55,2.59-2.68,5.18-5.35,7.87-7.91a19.35,19.35,0,0,0,6-14.63c0-1.87-.1-3.78-.23-5.68-.17-2.84-.36-5.78.18-7.3,3.53-9.91,7.26-19.75,11-29.58,4-10.53,8.13-21.42,12-32.27,5.21-14.81,6-28.32,2.44-41.31-.29-1.05-.56-2-.81-2.83.76-.58,1.59-1.23,2.5-2a20.27,20.27,0,0,0,8-16.86q0-37,0-74,0-45.24-.06-90.46c0-.81.06-1.64.1-2.47.27-4.51.66-11.35-4-17.9"/><path class="cls-1" d="M268.72,320.25V267.42c18.26,6.67,29.1,16.79,29.1,27.89,0,10.42-9.23,21.47-29.1,24.94M214.18,208.72c0-10.9,10.08-22.53,31.94-25.39V237.6c-20-6.65-31.94-17.21-31.94-28.88m54.54,34.95V183.82c21.16,4.14,30.31,18.28,30.69,18.9a11.31,11.31,0,1,0,19.42-11.58c-.69-1.14-15.69-25.41-50.11-30.2V148.22a11.3,11.3,0,0,0-22.6,0v12.42c-37.34,3.69-54.54,26.61-54.54,48.08,0,23.82,20.23,43.1,54.54,52.49V320.7c-23.07-3.34-33-18.6-33.59-19.48a11.3,11.3,0,0,0-19.35,11.67c.7,1.18,16.48,26.8,52.94,30.58v20.28a11.3,11.3,0,0,0,22.6,0V343.09c35.38-4.55,51.7-26.86,51.7-47.78,0-23.14-19.14-42-51.7-51.64"/></svg>