<?xml version="1.0" encoding="utf-8"?><svg id="Layer_1" data-name="Layer 1" xmlns="http://www.w3.org/2000/svg" viewBox="0 0 512 512"><defs><style>.cls-1{fill:#aa004f;}.cls-2{fill:#231f20;}.cls-3{fill:none;}</style></defs><title>strategize</title><path class="cls-1" d="M142.18,197.65A9.16,9.16,0,0,1,135.71,182L232,85.7a9.16,9.16,0,0,1,12.95,13L148.65,195a9.09,9.09,0,0,1-6.47,2.69"/><path class="cls-1" d="M238.5,197.65A9.13,9.13,0,0,1,232,195L135.71,98.65a9.16,9.16,0,0,1,12.95-13L245,182a9.16,9.16,0,0,1-6.47,15.63"/><path class="cls-1" d="M346.19,452a9.16,9.16,0,0,1-6.48-15.63L436,340.09A9.15,9.15,0,0,1,449,353l-96.31,96.31a9.13,9.13,0,0,1-6.47,2.69"/><path class="cls-1" d="M442.5,452a9.11,9.11,0,0,1-6.47-2.69L339.71,353a9.16,9.16,0,0,1,13-13L449,436.41A9.16,9.16,0,0,1,442.5,452"/><path class="cls-1" d="M82.76,391.6a51,51,0,1,0,51.05,51,51.1,51.1,0,0,0-51-51m0,120.4a69.36,69.36,0,1,1,69.36-69.35A69.43,69.43,0,0,1,82.76,512"/><path class="cls-2" d="M495.9,62.88,435.76,2.73a10.06,10.06,0,0,0-1.47-1.21l-.2-.12c-.18-.11-.37-.23-.56-.33l-.26-.13c-.19-.09-.37-.18-.55-.25l-.27-.1-.58-.2-.25-.07c-.21,0-.41-.11-.62-.15l-.26,0c-.2,0-.41-.07-.62-.09l-.34,0-.54,0-.46,0-.44,0-.54.08-.34.05-.55.13-.28.08h0a4.4,4.4,0,0,0-.51.18c-.11,0-.23.07-.34.12l-.47.22-.34.16-.46.28-.31.18c-.19.13-.38.27-.56.42l-.15.11c-.25.21-.49.42-.72.65L362.56,62.88a9.15,9.15,0,1,0,12.95,12.94l44.57-44.57V96.18c0,6.7-1.87,164.21-164.22,164.21C75.43,260.39,73.34,441.1,73.34,442.92a9.16,9.16,0,0,0,18.31,0c0-6.71,1.86-164.22,164.21-164.22C436.3,278.7,438.39,98,438.39,96.18V31.25L483,75.82A9.15,9.15,0,0,0,495.9,62.88Z"/><rect class="cls-3" width="512" height="512"/></svg>