<?xml version="1.0" encoding="utf-8"?><svg id="Layer_1" data-name="Layer 1" xmlns="http://www.w3.org/2000/svg" xmlns:xlink="http://www.w3.org/1999/xlink" viewBox="0 0 288 288"><defs><style>.cls-1{fill:none;}.cls-2{fill:#0076bb;}.cls-3{clip-path:url(#clip-path);}.cls-4{fill:#007cbf;}.cls-5{fill:#fff;}</style><clipPath id="clip-path"><path class="cls-1" d="M3,144A141,141,0,1,0,144,3,141,141,0,0,0,3,144"/></clipPath></defs><title>success stories</title><path class="cls-2" d="M144,285A141,141,0,1,0,3,144,141,141,0,0,0,144,285"/><g class="cls-3"><path class="cls-4" d="M180,174.16a3.18,3.18,0,1,0-3.18-3.18,3.18,3.18,0,0,0,3.18,3.18"/><path class="cls-4" d="M198,174.16A3.18,3.18,0,1,0,194.8,171a3.18,3.18,0,0,0,3.18,3.18"/><path class="cls-4" d="M144,174.16a3.18,3.18,0,1,0-3.18-3.18,3.19,3.19,0,0,0,3.18,3.18"/><path class="cls-4" d="M162,174.16a3.18,3.18,0,1,0-3.18-3.18,3.19,3.19,0,0,0,3.18,3.18"/><path class="cls-4" d="M216,174.16a3.18,3.18,0,1,0-3.18-3.18,3.19,3.19,0,0,0,3.18,3.18"/><path class="cls-4" d="M234,174.16a3.18,3.18,0,1,0-3.18-3.18,3.19,3.19,0,0,0,3.18,3.18"/><path class="cls-4" d="M189,192.14a3.18,3.18,0,1,0-3.18-3.18,3.18,3.18,0,0,0,3.18,3.18"/><path class="cls-4" d="M207,192.14a3.18,3.18,0,1,0-3.18-3.18,3.18,3.18,0,0,0,3.18,3.18"/><path class="cls-4" d="M153,192.14a3.18,3.18,0,1,0-3.18-3.18,3.19,3.19,0,0,0,3.18,3.18"/><path class="cls-4" d="M171,192.14a3.18,3.18,0,1,0-3.18-3.18,3.18,3.18,0,0,0,3.18,3.18"/><path class="cls-4" d="M225,192.14a3.18,3.18,0,1,0-3.18-3.18,3.19,3.19,0,0,0,3.18,3.18"/><path class="cls-4" d="M242.94,192.14a3.18,3.18,0,1,0-3.18-3.18,3.18,3.18,0,0,0,3.18,3.18"/><path class="cls-4" d="M180,210.12a3.18,3.18,0,1,0-3.18-3.18,3.18,3.18,0,0,0,3.18,3.18"/><path class="cls-4" d="M198,210.12a3.18,3.18,0,1,0-3.18-3.18,3.18,3.18,0,0,0,3.18,3.18"/><path class="cls-4" d="M144,210.12a3.18,3.18,0,1,0-3.18-3.18,3.18,3.18,0,0,0,3.18,3.18"/><path class="cls-4" d="M162,210.12a3.18,3.18,0,1,0-3.18-3.18,3.18,3.18,0,0,0,3.18,3.18"/><path class="cls-4" d="M216,210.12a3.18,3.18,0,1,0-3.18-3.18,3.18,3.18,0,0,0,3.18,3.18"/><path class="cls-4" d="M234,210.12a3.18,3.18,0,1,0-3.18-3.18,3.18,3.18,0,0,0,3.18,3.18"/><path class="cls-4" d="M189,228.1a3.18,3.18,0,1,0-3.18-3.18A3.18,3.18,0,0,0,189,228.1"/><path class="cls-4" d="M207,228.1a3.18,3.18,0,1,0-3.18-3.18A3.18,3.18,0,0,0,207,228.1"/><path class="cls-4" d="M153,228.1a3.18,3.18,0,1,0-3.18-3.18A3.18,3.18,0,0,0,153,228.1"/><path class="cls-4" d="M171,228.1a3.18,3.18,0,1,0-3.18-3.18A3.18,3.18,0,0,0,171,228.1"/><path class="cls-4" d="M225,228.1a3.18,3.18,0,1,0-3.18-3.18A3.18,3.18,0,0,0,225,228.1"/><path class="cls-4" d="M242.94,228.1a3.18,3.18,0,1,0-3.18-3.18,3.18,3.18,0,0,0,3.18,3.18"/><path class="cls-4" d="M189,156.17a3.18,3.18,0,1,0-3.18-3.18,3.18,3.18,0,0,0,3.18,3.18"/><path class="cls-4" d="M207,156.17a3.18,3.18,0,1,0-3.18-3.18,3.18,3.18,0,0,0,3.18,3.18"/><path class="cls-4" d="M153,156.17a3.18,3.18,0,1,0-3.18-3.18,3.18,3.18,0,0,0,3.18,3.18"/><path class="cls-4" d="M171,156.17a3.18,3.18,0,1,0-3.18-3.18,3.18,3.18,0,0,0,3.18,3.18"/><path class="cls-4" d="M225,156.17a3.18,3.18,0,1,0-3.18-3.18,3.18,3.18,0,0,0,3.18,3.18"/><path class="cls-4" d="M242.94,156.17a3.18,3.18,0,1,0-3.18-3.18,3.18,3.18,0,0,0,3.18,3.18"/><path class="cls-4" d="M180,246.08a3.18,3.18,0,1,0-3.18-3.18,3.18,3.18,0,0,0,3.18,3.18"/><path class="cls-4" d="M198,246.08a3.18,3.18,0,1,0-3.18-3.18,3.18,3.18,0,0,0,3.18,3.18"/><path class="cls-4" d="M144,246.08a3.18,3.18,0,1,0-3.18-3.18,3.18,3.18,0,0,0,3.18,3.18"/><path class="cls-4" d="M162,246.08a3.18,3.18,0,1,0-3.18-3.18,3.18,3.18,0,0,0,3.18,3.18"/><path class="cls-4" d="M216,246.08a3.18,3.18,0,1,0-3.18-3.18,3.18,3.18,0,0,0,3.18,3.18"/><path class="cls-4" d="M234,246.08a3.18,3.18,0,1,0-3.18-3.18,3.18,3.18,0,0,0,3.18,3.18"/><path class="cls-4" d="M269.91,174.16a3.18,3.18,0,1,0-3.18-3.18,3.18,3.18,0,0,0,3.18,3.18"/><path class="cls-4" d="M251.93,174.16a3.18,3.18,0,1,0-3.18-3.18,3.18,3.18,0,0,0,3.18,3.18"/><path class="cls-4" d="M260.92,192.14a3.18,3.18,0,1,0-3.18-3.18,3.18,3.18,0,0,0,3.18,3.18"/><path class="cls-4" d="M251.93,210.12a3.18,3.18,0,1,0-3.18-3.18,3.18,3.18,0,0,0,3.18,3.18"/><path class="cls-4" d="M278.9,156.17a3.18,3.18,0,1,0-3.18-3.18,3.18,3.18,0,0,0,3.18,3.18"/><path class="cls-4" d="M260.92,156.17a3.18,3.18,0,1,0-3.18-3.18,3.18,3.18,0,0,0,3.18,3.18"/><path class="cls-4" d="M180,282.05a3.18,3.18,0,1,0-3.18-3.18,3.18,3.18,0,0,0,3.18,3.18"/><path class="cls-4" d="M144,282.05a3.18,3.18,0,1,0-3.18-3.18,3.18,3.18,0,0,0,3.18,3.18"/><path class="cls-4" d="M162,282.05a3.18,3.18,0,1,0-3.18-3.18,3.18,3.18,0,0,0,3.18,3.18"/><path class="cls-4" d="M189,264.07a3.18,3.18,0,1,0-3.18-3.18,3.18,3.18,0,0,0,3.18,3.18"/><path class="cls-4" d="M207,264.07a3.18,3.18,0,1,0-3.18-3.18,3.18,3.18,0,0,0,3.18,3.18"/><path class="cls-4" d="M153,264.07a3.18,3.18,0,1,0-3.18-3.18,3.19,3.19,0,0,0,3.18,3.18"/><path class="cls-4" d="M171,264.07a3.18,3.18,0,1,0-3.18-3.18,3.18,3.18,0,0,0,3.18,3.18"/><path class="cls-4" d="M18.16,174.16A3.18,3.18,0,1,0,15,171a3.19,3.19,0,0,0,3.18,3.18"/><path class="cls-4" d="M36.14,174.16A3.18,3.18,0,1,0,33,171a3.18,3.18,0,0,0,3.18,3.18"/><path class="cls-4" d="M54.12,174.16A3.18,3.18,0,1,0,50.94,171a3.18,3.18,0,0,0,3.18,3.18"/><path class="cls-4" d="M27.15,192.14A3.18,3.18,0,1,0,24,189a3.18,3.18,0,0,0,3.18,3.18"/><path class="cls-4" d="M45.13,192.14A3.18,3.18,0,1,0,42,189a3.18,3.18,0,0,0,3.18,3.18"/><path class="cls-4" d="M63.11,192.14A3.18,3.18,0,1,0,59.93,189a3.18,3.18,0,0,0,3.18,3.18"/><path class="cls-4" d="M36.14,210.12A3.18,3.18,0,1,0,33,206.94a3.18,3.18,0,0,0,3.18,3.18"/><path class="cls-4" d="M54.12,210.12a3.18,3.18,0,1,0-3.18-3.18,3.18,3.18,0,0,0,3.18,3.18"/><path class="cls-4" d="M45.13,228.1A3.18,3.18,0,1,0,42,224.92a3.18,3.18,0,0,0,3.18,3.18"/><path class="cls-4" d="M63.11,228.1a3.18,3.18,0,1,0-3.18-3.18,3.18,3.18,0,0,0,3.18,3.18"/><path class="cls-4" d="M9.17,156.17A3.18,3.18,0,1,0,6,153a3.18,3.18,0,0,0,3.18,3.18"/><path class="cls-4" d="M27.15,156.17A3.18,3.18,0,1,0,24,153a3.18,3.18,0,0,0,3.18,3.18"/><path class="cls-4" d="M45.13,156.17A3.18,3.18,0,1,0,42,153a3.18,3.18,0,0,0,3.18,3.18"/><path class="cls-4" d="M63.11,156.17A3.18,3.18,0,1,0,59.93,153a3.18,3.18,0,0,0,3.18,3.18"/><path class="cls-4" d="M54.12,246.08a3.18,3.18,0,1,0-3.18-3.18,3.18,3.18,0,0,0,3.18,3.18"/><path class="cls-4" d="M90.09,174.16A3.18,3.18,0,1,0,86.91,171a3.19,3.19,0,0,0,3.18,3.18"/><path class="cls-4" d="M108.07,174.16a3.18,3.18,0,1,0-3.18-3.18,3.18,3.18,0,0,0,3.18,3.18"/><path class="cls-4" d="M72.11,174.16A3.18,3.18,0,1,0,68.93,171a3.19,3.19,0,0,0,3.18,3.18"/><path class="cls-4" d="M126.05,174.16a3.18,3.18,0,1,0-3.18-3.18,3.18,3.18,0,0,0,3.18,3.18"/><path class="cls-4" d="M99.08,192.14A3.18,3.18,0,1,0,95.9,189a3.18,3.18,0,0,0,3.18,3.18"/><path class="cls-4" d="M117.06,192.14a3.18,3.18,0,1,0-3.18-3.18,3.18,3.18,0,0,0,3.18,3.18"/><path class="cls-4" d="M81.1,192.14A3.18,3.18,0,1,0,77.92,189a3.19,3.19,0,0,0,3.18,3.18"/><path class="cls-4" d="M135,192.14a3.18,3.18,0,1,0-3.18-3.18,3.18,3.18,0,0,0,3.18,3.18"/><path class="cls-4" d="M90.09,210.12a3.18,3.18,0,1,0-3.18-3.18,3.18,3.18,0,0,0,3.18,3.18"/><path class="cls-4" d="M108.07,210.12a3.18,3.18,0,1,0-3.18-3.18,3.18,3.18,0,0,0,3.18,3.18"/><path class="cls-4" d="M72.11,210.12a3.18,3.18,0,1,0-3.18-3.18,3.18,3.18,0,0,0,3.18,3.18"/><path class="cls-4" d="M126.05,210.12a3.18,3.18,0,1,0-3.18-3.18,3.18,3.18,0,0,0,3.18,3.18"/><path class="cls-4" d="M99.08,228.1a3.18,3.18,0,1,0-3.18-3.18,3.18,3.18,0,0,0,3.18,3.18"/><path class="cls-4" d="M117.06,228.1a3.18,3.18,0,1,0-3.18-3.18,3.18,3.18,0,0,0,3.18,3.18"/><path class="cls-4" d="M81.1,228.1a3.18,3.18,0,1,0-3.18-3.18,3.18,3.18,0,0,0,3.18,3.18"/><path class="cls-4" d="M135,228.1a3.18,3.18,0,1,0-3.18-3.18A3.18,3.18,0,0,0,135,228.1"/><path class="cls-4" d="M99.08,156.17A3.18,3.18,0,1,0,95.9,153a3.18,3.18,0,0,0,3.18,3.18"/><path class="cls-4" d="M117.06,156.17a3.18,3.18,0,1,0-3.18-3.18,3.18,3.18,0,0,0,3.18,3.18"/><path class="cls-4" d="M81.1,156.17A3.18,3.18,0,1,0,77.92,153a3.18,3.18,0,0,0,3.18,3.18"/><path class="cls-4" d="M135,156.17a3.18,3.18,0,1,0-3.18-3.18,3.18,3.18,0,0,0,3.18,3.18"/><path class="cls-4" d="M90.09,246.08a3.18,3.18,0,1,0-3.18-3.18,3.18,3.18,0,0,0,3.18,3.18"/><path class="cls-4" d="M108.07,246.08a3.18,3.18,0,1,0-3.18-3.18,3.18,3.18,0,0,0,3.18,3.18"/><path class="cls-4" d="M72.11,246.08a3.18,3.18,0,1,0-3.18-3.18,3.18,3.18,0,0,0,3.18,3.18"/><path class="cls-4" d="M126.05,246.08a3.18,3.18,0,1,0-3.18-3.18,3.18,3.18,0,0,0,3.18,3.18"/><path class="cls-4" d="M108.07,282.05a3.18,3.18,0,1,0-3.18-3.18,3.18,3.18,0,0,0,3.18,3.18"/><path class="cls-4" d="M126.05,282.05a3.18,3.18,0,1,0-3.18-3.18,3.18,3.18,0,0,0,3.18,3.18"/><path class="cls-4" d="M99.08,264.07a3.18,3.18,0,1,0-3.18-3.18,3.18,3.18,0,0,0,3.18,3.18"/><path class="cls-4" d="M117.06,264.07a3.18,3.18,0,1,0-3.18-3.18,3.18,3.18,0,0,0,3.18,3.18"/><path class="cls-4" d="M81.1,264.07a3.18,3.18,0,1,0-3.18-3.18,3.19,3.19,0,0,0,3.18,3.18"/><path class="cls-4" d="M135,264.07a3.18,3.18,0,1,0-3.18-3.18,3.18,3.18,0,0,0,3.18,3.18"/><path class="cls-4" d="M153,12.31a3.18,3.18,0,1,0-3.18-3.18A3.18,3.18,0,0,0,153,12.31"/><path class="cls-4" d="M171,12.31a3.18,3.18,0,1,0-3.18-3.18A3.18,3.18,0,0,0,171,12.31"/><path class="cls-4" d="M180,30.29a3.18,3.18,0,1,0-3.18-3.18A3.18,3.18,0,0,0,180,30.29"/><path class="cls-4" d="M198,30.29a3.18,3.18,0,1,0-3.18-3.18A3.18,3.18,0,0,0,198,30.29"/><path class="cls-4" d="M144,30.29a3.18,3.18,0,1,0-3.18-3.18A3.18,3.18,0,0,0,144,30.29"/><path class="cls-4" d="M162,30.29a3.18,3.18,0,1,0-3.18-3.18A3.18,3.18,0,0,0,162,30.29"/><path class="cls-4" d="M216,30.29a3.18,3.18,0,1,0-3.18-3.18A3.18,3.18,0,0,0,216,30.29"/><path class="cls-4" d="M180,66.26a3.18,3.18,0,1,0-3.18-3.18A3.18,3.18,0,0,0,180,66.26"/><path class="cls-4" d="M198,66.26a3.18,3.18,0,1,0-3.18-3.18A3.18,3.18,0,0,0,198,66.26"/><path class="cls-4" d="M144,66.26a3.18,3.18,0,1,0-3.18-3.18A3.18,3.18,0,0,0,144,66.26"/><path class="cls-4" d="M162,66.26a3.18,3.18,0,1,0-3.18-3.18A3.18,3.18,0,0,0,162,66.26"/><path class="cls-4" d="M216,66.26a3.18,3.18,0,1,0-3.18-3.18A3.18,3.18,0,0,0,216,66.26"/><path class="cls-4" d="M234,66.26a3.18,3.18,0,1,0-3.18-3.18A3.18,3.18,0,0,0,234,66.26"/><path class="cls-4" d="M189,84.24a3.18,3.18,0,1,0-3.18-3.18A3.18,3.18,0,0,0,189,84.24"/><path class="cls-4" d="M207,84.24a3.18,3.18,0,1,0-3.18-3.18A3.18,3.18,0,0,0,207,84.24"/><path class="cls-4" d="M153,84.24a3.18,3.18,0,1,0-3.18-3.18A3.18,3.18,0,0,0,153,84.24"/><path class="cls-4" d="M171,84.24a3.18,3.18,0,1,0-3.18-3.18A3.18,3.18,0,0,0,171,84.24"/><path class="cls-4" d="M225,84.24a3.18,3.18,0,1,0-3.18-3.18A3.18,3.18,0,0,0,225,84.24"/><path class="cls-4" d="M242.94,84.24a3.18,3.18,0,1,0-3.18-3.18,3.18,3.18,0,0,0,3.18,3.18"/><path class="cls-4" d="M180,102.22A3.18,3.18,0,1,0,176.82,99a3.18,3.18,0,0,0,3.18,3.18"/><path class="cls-4" d="M198,102.22A3.18,3.18,0,1,0,194.8,99a3.18,3.18,0,0,0,3.18,3.18"/><path class="cls-4" d="M144,102.22A3.18,3.18,0,1,0,140.86,99a3.18,3.18,0,0,0,3.18,3.18"/><path class="cls-4" d="M162,102.22A3.18,3.18,0,1,0,158.84,99a3.18,3.18,0,0,0,3.18,3.18"/><path class="cls-4" d="M216,102.22A3.18,3.18,0,1,0,212.79,99a3.18,3.18,0,0,0,3.18,3.18"/><path class="cls-4" d="M234,102.22A3.18,3.18,0,1,0,230.77,99a3.18,3.18,0,0,0,3.18,3.18"/><path class="cls-4" d="M189,120.21a3.18,3.18,0,1,0-3.18-3.18,3.18,3.18,0,0,0,3.18,3.18"/><path class="cls-4" d="M207,120.21a3.18,3.18,0,1,0-3.18-3.18,3.18,3.18,0,0,0,3.18,3.18"/><path class="cls-4" d="M153,120.21a3.18,3.18,0,1,0-3.18-3.18,3.19,3.19,0,0,0,3.18,3.18"/><path class="cls-4" d="M171,120.21a3.18,3.18,0,1,0-3.18-3.18,3.18,3.18,0,0,0,3.18,3.18"/><path class="cls-4" d="M225,120.21a3.18,3.18,0,1,0-3.18-3.18,3.19,3.19,0,0,0,3.18,3.18"/><path class="cls-4" d="M242.94,120.21a3.18,3.18,0,1,0-3.18-3.18,3.18,3.18,0,0,0,3.18,3.18"/><path class="cls-4" d="M189,48.28a3.18,3.18,0,1,0-3.18-3.18A3.18,3.18,0,0,0,189,48.28"/><path class="cls-4" d="M207,48.28a3.18,3.18,0,1,0-3.18-3.18A3.18,3.18,0,0,0,207,48.28"/><path class="cls-4" d="M153,48.28a3.18,3.18,0,1,0-3.18-3.18A3.19,3.19,0,0,0,153,48.28"/><path class="cls-4" d="M171,48.28a3.18,3.18,0,1,0-3.18-3.18A3.18,3.18,0,0,0,171,48.28"/><path class="cls-4" d="M225,48.28a3.18,3.18,0,1,0-3.18-3.18A3.19,3.19,0,0,0,225,48.28"/><path class="cls-4" d="M242.94,48.28a3.18,3.18,0,1,0-3.18-3.18,3.18,3.18,0,0,0,3.18,3.18"/><path class="cls-4" d="M180,138.19a3.18,3.18,0,1,0-3.18-3.18,3.18,3.18,0,0,0,3.18,3.18"/><path class="cls-4" d="M198,138.19A3.18,3.18,0,1,0,194.8,135a3.18,3.18,0,0,0,3.18,3.18"/><path class="cls-4" d="M144,138.19a3.18,3.18,0,1,0-3.18-3.18,3.18,3.18,0,0,0,3.18,3.18"/><path class="cls-4" d="M162,138.19a3.18,3.18,0,1,0-3.18-3.18,3.18,3.18,0,0,0,3.18,3.18"/><path class="cls-4" d="M216,138.19a3.18,3.18,0,1,0-3.18-3.18,3.18,3.18,0,0,0,3.18,3.18"/><path class="cls-4" d="M234,138.19a3.18,3.18,0,1,0-3.18-3.18,3.18,3.18,0,0,0,3.18,3.18"/><path class="cls-4" d="M251.93,66.26a3.18,3.18,0,1,0-3.18-3.18,3.18,3.18,0,0,0,3.18,3.18"/><path class="cls-4" d="M260.92,84.24a3.18,3.18,0,1,0-3.18-3.18,3.18,3.18,0,0,0,3.18,3.18"/><path class="cls-4" d="M269.91,102.22A3.18,3.18,0,1,0,266.73,99a3.18,3.18,0,0,0,3.18,3.18"/><path class="cls-4" d="M251.93,102.22A3.18,3.18,0,1,0,248.75,99a3.18,3.18,0,0,0,3.18,3.18"/><path class="cls-4" d="M278.9,120.21a3.18,3.18,0,1,0-3.18-3.18,3.18,3.18,0,0,0,3.18,3.18"/><path class="cls-4" d="M260.92,120.21a3.18,3.18,0,1,0-3.18-3.18,3.18,3.18,0,0,0,3.18,3.18"/><path class="cls-4" d="M269.91,138.19a3.18,3.18,0,1,0-3.18-3.18,3.18,3.18,0,0,0,3.18,3.18"/><path class="cls-4" d="M251.93,138.19a3.18,3.18,0,1,0-3.18-3.18,3.18,3.18,0,0,0,3.18,3.18"/><path class="cls-4" d="M117.06,12.31a3.18,3.18,0,1,0-3.18-3.18,3.18,3.18,0,0,0,3.18,3.18"/><path class="cls-4" d="M135,12.31a3.18,3.18,0,1,0-3.18-3.18A3.18,3.18,0,0,0,135,12.31"/><path class="cls-4" d="M90.09,30.29a3.18,3.18,0,1,0-3.18-3.18,3.18,3.18,0,0,0,3.18,3.18"/><path class="cls-4" d="M108.07,30.29a3.18,3.18,0,1,0-3.18-3.18,3.18,3.18,0,0,0,3.18,3.18"/><path class="cls-4" d="M72.11,30.29a3.18,3.18,0,1,0-3.18-3.18,3.18,3.18,0,0,0,3.18,3.18"/><path class="cls-4" d="M126.05,30.29a3.18,3.18,0,1,0-3.18-3.18,3.18,3.18,0,0,0,3.18,3.18"/><path class="cls-4" d="M36.14,66.26A3.18,3.18,0,1,0,33,63.08a3.18,3.18,0,0,0,3.18,3.18"/><path class="cls-4" d="M54.12,66.26a3.18,3.18,0,1,0-3.18-3.18,3.18,3.18,0,0,0,3.18,3.18"/><path class="cls-4" d="M27.15,84.24A3.18,3.18,0,1,0,24,81.06a3.18,3.18,0,0,0,3.18,3.18"/><path class="cls-4" d="M45.13,84.24A3.18,3.18,0,1,0,42,81.06a3.18,3.18,0,0,0,3.18,3.18"/><path class="cls-4" d="M63.11,84.24a3.18,3.18,0,1,0-3.18-3.18,3.18,3.18,0,0,0,3.18,3.18"/><path class="cls-4" d="M18.16,102.22A3.18,3.18,0,1,0,15,99a3.18,3.18,0,0,0,3.18,3.18"/><path class="cls-4" d="M36.14,102.22A3.18,3.18,0,1,0,33,99a3.18,3.18,0,0,0,3.18,3.18"/><path class="cls-4" d="M54.12,102.22A3.18,3.18,0,1,0,50.94,99a3.18,3.18,0,0,0,3.18,3.18"/><path class="cls-4" d="M9.17,120.21A3.18,3.18,0,1,0,6,117a3.19,3.19,0,0,0,3.18,3.18"/><path class="cls-4" d="M27.15,120.21A3.18,3.18,0,1,0,24,117a3.18,3.18,0,0,0,3.18,3.18"/><path class="cls-4" d="M45.13,120.21A3.18,3.18,0,1,0,42,117a3.18,3.18,0,0,0,3.18,3.18"/><path class="cls-4" d="M63.11,120.21A3.18,3.18,0,1,0,59.93,117a3.18,3.18,0,0,0,3.18,3.18"/><path class="cls-4" d="M45.13,48.28A3.18,3.18,0,1,0,42,45.1a3.18,3.18,0,0,0,3.18,3.18"/><path class="cls-4" d="M63.11,48.28a3.18,3.18,0,1,0-3.18-3.18,3.18,3.18,0,0,0,3.18,3.18"/><path class="cls-4" d="M18.16,138.19A3.18,3.18,0,1,0,15,135a3.18,3.18,0,0,0,3.18,3.18"/><path class="cls-4" d="M36.14,138.19A3.18,3.18,0,1,0,33,135a3.18,3.18,0,0,0,3.18,3.18"/><path class="cls-4" d="M54.12,138.19A3.18,3.18,0,1,0,50.94,135a3.18,3.18,0,0,0,3.18,3.18"/><path class="cls-4" d="M90.09,66.26a3.18,3.18,0,1,0-3.18-3.18,3.18,3.18,0,0,0,3.18,3.18"/><path class="cls-4" d="M108.07,66.26a3.18,3.18,0,1,0-3.18-3.18,3.18,3.18,0,0,0,3.18,3.18"/><path class="cls-4" d="M72.11,66.26a3.18,3.18,0,1,0-3.18-3.18,3.18,3.18,0,0,0,3.18,3.18"/><path class="cls-4" d="M126.05,66.26a3.18,3.18,0,1,0-3.18-3.18,3.18,3.18,0,0,0,3.18,3.18"/><path class="cls-4" d="M99.08,84.24a3.18,3.18,0,1,0-3.18-3.18,3.18,3.18,0,0,0,3.18,3.18"/><path class="cls-4" d="M117.06,84.24a3.18,3.18,0,1,0-3.18-3.18,3.18,3.18,0,0,0,3.18,3.18"/><path class="cls-4" d="M81.1,84.24a3.18,3.18,0,1,0-3.18-3.18,3.18,3.18,0,0,0,3.18,3.18"/><path class="cls-4" d="M135,84.24a3.18,3.18,0,1,0-3.18-3.18A3.18,3.18,0,0,0,135,84.24"/><path class="cls-4" d="M90.09,102.22A3.18,3.18,0,1,0,86.91,99a3.18,3.18,0,0,0,3.18,3.18"/><path class="cls-4" d="M108.07,102.22A3.18,3.18,0,1,0,104.89,99a3.18,3.18,0,0,0,3.18,3.18"/><path class="cls-4" d="M72.11,102.22A3.18,3.18,0,1,0,68.93,99a3.18,3.18,0,0,0,3.18,3.18"/><path class="cls-4" d="M126.05,102.22A3.18,3.18,0,1,0,122.87,99a3.18,3.18,0,0,0,3.18,3.18"/><path class="cls-4" d="M99.08,120.21A3.18,3.18,0,1,0,95.9,117a3.18,3.18,0,0,0,3.18,3.18"/><path class="cls-4" d="M117.06,120.21a3.18,3.18,0,1,0-3.18-3.18,3.18,3.18,0,0,0,3.18,3.18"/><path class="cls-4" d="M81.1,120.21A3.18,3.18,0,1,0,77.92,117a3.19,3.19,0,0,0,3.18,3.18"/><path class="cls-4" d="M135,120.21a3.18,3.18,0,1,0-3.18-3.18,3.18,3.18,0,0,0,3.18,3.18"/><path class="cls-4" d="M99.08,48.28A3.18,3.18,0,1,0,95.9,45.1a3.18,3.18,0,0,0,3.18,3.18"/><path class="cls-4" d="M117.06,48.28a3.18,3.18,0,1,0-3.18-3.18,3.18,3.18,0,0,0,3.18,3.18"/><path class="cls-4" d="M81.1,48.28a3.18,3.18,0,1,0-3.18-3.18,3.19,3.19,0,0,0,3.18,3.18"/><path class="cls-4" d="M135,48.28a3.18,3.18,0,1,0-3.18-3.18A3.18,3.18,0,0,0,135,48.28"/><path class="cls-4" d="M90.09,138.19A3.18,3.18,0,1,0,86.91,135a3.18,3.18,0,0,0,3.18,3.18"/><path class="cls-4" d="M108.07,138.19a3.18,3.18,0,1,0-3.18-3.18,3.18,3.18,0,0,0,3.18,3.18"/><path class="cls-4" d="M72.11,138.19A3.18,3.18,0,1,0,68.93,135a3.18,3.18,0,0,0,3.18,3.18"/><path class="cls-4" d="M126.05,138.19a3.18,3.18,0,1,0-3.18-3.18,3.18,3.18,0,0,0,3.18,3.18"/></g><path class="cls-5" d="M86.72,129.89c1.37,2.78,3,4,5.33,4,2.67,0,4.25-1.33,4.25-3.31,0-1.77-1.19-2.67-3.89-3.67a33.21,33.21,0,0,1-6.23-2.7,6.54,6.54,0,0,1-3.06-5.76c0-4.14,3.35-7.13,8.54-7.13,4.46,0,7.45,1.94,8.81,5.72L96,118.66c-1.08-2.3-2.48-3.34-4.71-3.34s-3.46,1.08-3.46,2.77c0,2.44,2.56,2.88,6.7,4.64,4.35,1.84,6.51,3.53,6.51,7.63,0,4.75-3.28,7.78-8.89,7.78-4.82,0-8.21-2.16-9.9-6.27Z"/><path class="cls-5" d="M109.91,138.14c-3.49,0-5.26-2-5.26-6.09V118.92h4.47v12.23c0,2.31.54,3.39,2.16,3.39,1.33,0,2.66-.72,4.17-2.13V118.92h4.43v18.86h-4.11v-2.2C113.69,137.27,112,138.14,109.91,138.14Z"/><path class="cls-5" d="M138.78,133.35a7.46,7.46,0,0,1-7.42,4.79c-5.32,0-8.13-3.35-8.13-9.79,0-6.12,3.13-9.76,8.13-9.76a7.15,7.15,0,0,1,7.24,4.9l-3.75,1.62c-.64-1.91-1.61-2.85-3.2-2.85-2.73,0-4,2-4,6.34,0,3.89,1.19,5.76,3.67,5.76,1.77,0,3-.9,4-2.85Z"/><path class="cls-5" d="M156.27,133.35a7.44,7.44,0,0,1-7.41,4.79c-5.33,0-8.14-3.35-8.14-9.79,0-6.12,3.14-9.76,8.14-9.76a7.13,7.13,0,0,1,7.23,4.9l-3.74,1.62c-.65-1.91-1.62-2.85-3.2-2.85-2.74,0-4,2-4,6.34,0,3.89,1.19,5.76,3.67,5.76,1.76,0,3-.9,4-2.85Z"/><path class="cls-5" d="M166.25,138.14c-5,0-8-3.57-8-9.76s3-9.82,7.92-9.82S174,122,174,128.13c0,.32,0,.65,0,1h-11.3c0,3.57,1.37,5.37,4,5.37,1.69,0,2.81-.76,3.85-2.42l3.28,2C172.33,136.73,169.74,138.14,166.25,138.14Zm3.34-12.24c0-2.52-1.29-4-3.41-4s-3.28,1.44-3.46,4Z"/><path class="cls-5" d="M178.85,132c1.4,1.8,2.77,2.7,4.32,2.7s2.62-.83,2.62-2.09c0-1.54-1.33-1.9-3.45-2.7-3.89-1.47-5.9-2.7-5.9-5.83s2.55-5.5,6.48-5.5a8,8,0,0,1,6.37,2.88l-2.81,2.44a5.07,5.07,0,0,0-3.67-1.9c-1.55,0-2.41.75-2.41,1.87s1.54,1.58,4.21,2.62c3.45,1.34,5.18,2.63,5.18,5.91,0,3.49-2.59,5.79-6.59,5.79a8.56,8.56,0,0,1-7.38-3.81Z"/><path class="cls-5" d="M194.69,132c1.4,1.8,2.77,2.7,4.32,2.7s2.62-.83,2.62-2.09c0-1.54-1.33-1.9-3.45-2.7-3.89-1.47-5.9-2.7-5.9-5.83s2.55-5.5,6.47-5.5a8,8,0,0,1,6.38,2.88l-2.81,2.44a5.07,5.07,0,0,0-3.67-1.9c-1.55,0-2.42.75-2.42,1.87s1.55,1.58,4.22,2.62c3.45,1.34,5.18,2.63,5.18,5.91,0,3.49-2.59,5.79-6.59,5.79a8.56,8.56,0,0,1-7.38-3.81Z"/><path class="cls-5" d="M96.34,164.89c1.36,2.78,3,4,5.32,4,2.67,0,4.25-1.33,4.25-3.31,0-1.77-1.19-2.67-3.89-3.67a32.81,32.81,0,0,1-6.22-2.7,6.54,6.54,0,0,1-3.06-5.76c0-4.14,3.34-7.13,8.53-7.13,4.46,0,7.45,1.94,8.82,5.72l-4.47,1.62c-1.08-2.3-2.48-3.34-4.71-3.34s-3.46,1.08-3.46,2.77c0,2.44,2.56,2.88,6.7,4.64,4.35,1.84,6.51,3.53,6.51,7.63,0,4.75-3.27,7.78-8.89,7.78-4.82,0-8.21-2.16-9.9-6.27Z"/><path class="cls-5" d="M121.21,169.32a12.39,12.39,0,0,0,1.84-.14v3.67a19.12,19.12,0,0,1-3.71.32c-3.1,0-4.43-1.36-4.43-4.42V157.59h-2.45v-3.67h2.45v-6h4.47v6h3.67v3.67h-3.67v9.54C119.38,168.71,119.59,169.32,121.21,169.32Z"/><path class="cls-5" d="M132.73,153.56c5,0,8.06,3.6,8.06,9.79s-3.06,9.79-8.06,9.79-8.06-3.64-8.06-9.79S127.69,153.56,132.73,153.56Zm0,15.76c2.41,0,3.56-2,3.56-6s-1.15-5.94-3.56-5.94-3.56,1.94-3.56,5.94S130.36,169.32,132.73,169.32Z"/><path class="cls-5" d="M144.22,153.92h4.24v3.13c1.23-2.31,2.81-3.46,4.68-3.46a2.83,2.83,0,0,1,.58,0v4.64h-.22a5.38,5.38,0,0,0-4.75,2.95v11.56h-4.53Z"/><path class="cls-5" d="M156.6,146.61h4.46v4.21H156.6Zm0,7.31h4.46v18.86H156.6Z"/><path class="cls-5" d="M172.47,173.14c-5,0-8-3.57-8-9.76s3-9.82,7.92-9.82,7.81,3.45,7.81,9.57c0,.32,0,.65,0,1h-11.3c0,3.57,1.36,5.37,4,5.37,1.69,0,2.81-.76,3.85-2.42l3.28,2C178.56,171.73,176,173.14,172.47,173.14Zm3.35-12.24c0-2.52-1.29-4-3.42-4s-3.27,1.44-3.45,4Z"/><path class="cls-5" d="M185.08,167c1.4,1.8,2.77,2.7,4.31,2.7s2.63-.83,2.63-2.09c0-1.54-1.33-1.9-3.45-2.7-3.89-1.47-5.91-2.7-5.91-5.83s2.56-5.5,6.48-5.5a8,8,0,0,1,6.37,2.88l-2.8,2.44A5.07,5.07,0,0,0,189,157c-1.54,0-2.41.75-2.41,1.87s1.55,1.58,4.21,2.62c3.46,1.34,5.19,2.63,5.19,5.91,0,3.49-2.59,5.79-6.59,5.79a8.56,8.56,0,0,1-7.38-3.81Z"/></svg>