<?xml version="1.0" encoding="utf-8"?><svg id="Layer_1" data-name="Layer 1" xmlns="http://www.w3.org/2000/svg" viewBox="0 0 940 490"><defs><style>.cls-1{fill:#0076bb;}.cls-2{fill:#fff;}.cls-3{fill:#aa004f;}.cls-4{fill:#672666;}.cls-5{fill:#f3c300;}.cls-6,.cls-7{fill:none;stroke-width:1.86px;}.cls-6{stroke:#bbb;}.cls-7{stroke:#353d40;}.cls-8{fill:#58595b;}</style></defs><title>summit stats</title><path class="cls-1" d="M447.2,87.35l0,0c-7.43,4.2-17.58,7.56-31.09,7.56s-23.42-3.21-30.79-7.28a.6.6,0,0,0-.08-.08,1.8,1.8,0,0,0-.7-.36,45,45,0,0,1-16.25-15.38,45,45,0,0,1,16.25-15.39,1.8,1.8,0,0,0,.7-.36.6.6,0,0,0,.08-.08c7.37-4.07,17.42-7.28,30.79-7.28s23.26,3.16,30.62,7.18c.06.06.11.13.17.18a1.75,1.75,0,0,0,.84.39,45,45,0,0,1,16.18,15.34A46.32,46.32,0,0,1,447.2,87.35M467.69,71c-.31-.63-5-9.67-16.72-16.92l7.25-8.71A1.86,1.86,0,1,0,455.35,43l-7.67,9.22a60.09,60.09,0,0,0-12.52-4.85l3.2-11.27a1.86,1.86,0,1,0-3.58-1L431.53,46.5A75.32,75.32,0,0,0,417.94,45V33.22a1.87,1.87,0,0,0-3.73,0V45a74.07,74.07,0,0,0-13.65,1.49L397.3,35.06a1.86,1.86,0,0,0-3.58,1l3.2,11.29a59.25,59.25,0,0,0-12.49,4.86L376.73,43a1.86,1.86,0,1,0-2.86,2.38l7.27,8.74c-11.7,7.24-16.36,16.26-16.68,16.89a1.89,1.89,0,0,0,0,1.67c.32.63,5,9.65,16.68,16.89l-7.27,8.74a1.86,1.86,0,0,0,.24,2.63,1.85,1.85,0,0,0,2.62-.25l7.7-9.25a59.25,59.25,0,0,0,12.49,4.86l-3.2,11.29a1.86,1.86,0,0,0,1.28,2.3,1.79,1.79,0,0,0,.51.07,1.86,1.86,0,0,0,1.79-1.35l3.26-11.46a74.07,74.07,0,0,0,13.65,1.49v11.81a1.87,1.87,0,0,0,3.73,0V98.62a75.32,75.32,0,0,0,13.59-1.47l3.25,11.44a1.86,1.86,0,0,0,1.79,1.35,1.79,1.79,0,0,0,.51-.07,1.85,1.85,0,0,0,1.28-2.3l-3.2-11.27a60.09,60.09,0,0,0,12.52-4.85l7.67,9.22a1.86,1.86,0,0,0,2.63.25,1.87,1.87,0,0,0,.24-2.63L451,89.58c11.73-7.25,16.41-16.29,16.72-16.92a1.89,1.89,0,0,0,0-1.67"/><path class="cls-1" d="M416.08,89.36a17.75,17.75,0,1,1,17.75-17.74,17.76,17.76,0,0,1-17.75,17.74m0-39.22a21.48,21.48,0,1,0,21.47,21.48,21.5,21.5,0,0,0-21.47-21.48"/><path class="cls-1" d="M416.08,76a4.35,4.35,0,1,1,4.34-4.34A4.35,4.35,0,0,1,416.08,76m0-12.42a8.08,8.08,0,1,0,8.07,8.08,8.09,8.09,0,0,0-8.07-8.08"/><path class="cls-2" d="M106.32,248.83h7.38V216.34a65,65,0,0,0-8.23.52v-5.54a36.47,36.47,0,0,0,11.1-3.85H122v41.36h7.37v6.66h-23Z"/><path class="cls-2" d="M152.84,225.15c8.36,0,14.36,6.26,14.36,15,0,10.11-6.2,16.11-16.44,16.11-10.7,0-16.71-7.7-16.71-21.92,0-17,7.83-26.88,19.71-26.88a20.25,20.25,0,0,1,12.2,3.59l-3.59,6.39c-3-1.89-5.61-2.94-8.68-2.94-5.8,0-10.57,5.29-11.09,14.36A15.47,15.47,0,0,1,152.84,225.15Zm-1.82,24c4.56,0,7.89-3.39,7.89-8.29,0-5.41-3.26-8.74-8-8.74a8.79,8.79,0,0,0-8.61,5.81C142.67,245.18,145.93,249.16,151,249.16Z"/><path class="cls-2" d="M200.21,216.6v16.77h16.38v5.29H200.21v16.83H194.8V238.66H178.42v-5.29H194.8V216.6Z"/><path class="cls-3" d="M32,294.56a26.38,26.38,0,0,1-5.59-.61c.72-1.47,2.92-3.92,9.67-5.69,6.27-1.64,6.23-4.88,5.92-6.19-.91-3.93-7.59-6.58-13.47-5.36-4.33.9-4.33.9-5.46-2.25a43.53,43.53,0,0,0-2.41-5.69c-3.35-6.52-9.83-8.16-13.42-8.55a25.71,25.71,0,0,1,3.61-7C17.18,264.26,24.6,270.32,32,270.32c3.64,0,7.28-1.47,10.8-4.28a11.55,11.55,0,0,1,3.63,5.56c.64,2.89,3.37,4.76,6.87,4.76h.5a9.53,9.53,0,0,0,3.3-.76,26.15,26.15,0,0,1-25.1,19M5.9,268.46a26.65,26.65,0,0,1,.41-4.59c2.66.2,8.3,1.27,11,6.61a39.29,39.29,0,0,1,2.21,5.24c1.75,4.88,3.16,6,9.73,4.64,4.59-.95,8.8,1.33,9.08,2.56.05.21-.65,1.06-3.23,1.74-8.48,2.21-11.37,5.76-12.34,8.22A26.15,26.15,0,0,1,5.9,268.46m-2.33-52a28.43,28.43,0,0,1,56.86,0c0,7.8-3.18,19.81-8.14,30.12-.57,1.18-1.16,2.34-1.78,3.46a48.84,48.84,0,0,1-8.06,11.23,23.89,23.89,0,0,1-3.37,2.82A12.64,12.64,0,0,1,32,266.59c-6.89,0-13.44-7.18-18.52-16.51-.62-1.12-1.21-2.28-1.77-3.46-5-10.31-8.14-22.32-8.14-30.12m54.53,52c0,.26,0,.52,0,.79-.31,2.19-2.45,3.28-4.47,3.38-1.54.07-3.24-.46-3.54-1.84a14.93,14.93,0,0,0-4.5-7.27,51.08,51.08,0,0,0,7.57-10.33,26,26,0,0,1,5,15.27m-3-18.87h0c5.43-10.78,9.07-24.08,9.07-33.09a32.16,32.16,0,0,0-64.31,0c0,9,3.64,22.31,9.07,33.09h0a29.82,29.82,0,0,0-5.94,12,.29.29,0,0,0,0,.09A29.82,29.82,0,0,0,23.5,297a1.27,1.27,0,0,0,.38.11A29.39,29.39,0,0,0,32,298.29a29.86,29.86,0,0,0,29.79-28.67h0v-.12c0-.34,0-.69,0-1a29.72,29.72,0,0,0-6.74-18.87"/><path class="cls-3" d="M32,205a12.12,12.12,0,1,1-12.12,12.12A12.13,12.13,0,0,1,32,205m0,28a15.85,15.85,0,1,0-15.85-15.85A15.87,15.87,0,0,0,32,233"/><path class="cls-2" d="M123,420.48H101.88V412l20.22-28.12h8.81v29.75h6.79v6.86h-6.79V431.7H123Zm.13-6.79V393.14l-14.81,20.55Z"/><path class="cls-2" d="M159.88,383.28c11.16,0,17,8.29,17,24.41s-5.87,24.4-17,24.4-17-8.29-17-24.4S148.72,383.28,159.88,383.28Zm0,41.5c5.61,0,8.55-5.74,8.55-17.09s-2.94-17.16-8.55-17.16-8.61,5.8-8.61,17.16S154.33,424.78,159.88,424.78Z"/><path class="cls-4" d="M63.29,403.08H3.57V377.53H63.29Zm-17,78.09H20.57l-7.06-74.36H53.34ZM30.16,354.24a.58.58,0,1,1,0-1.15.58.58,0,0,1,0,1.15m35,19.56H35.66c.59-3.86,1.25-11.79-1.81-17.95A4.3,4.3,0,1,0,30.16,358a4.89,4.89,0,0,0,.55-.05c2.5,5.44,1.68,12.81,1.17,15.88H1.7a1.86,1.86,0,0,0-1.86,1.86V405a1.86,1.86,0,0,0,1.86,1.86H9.77L17,483.22a1.86,1.86,0,0,0,1.85,1.68H48a1.86,1.86,0,0,0,1.85-1.68l7.25-76.41h8.07A1.86,1.86,0,0,0,67,405V375.66a1.86,1.86,0,0,0-1.86-1.86"/><path class="cls-2" d="M477,248.83h7.37V216.34a65,65,0,0,0-8.22.52v-5.54a36.31,36.31,0,0,0,11.09-3.85h5.42v41.36h7.37v6.66H477Z"/><path class="cls-2" d="M523.55,225.15c8.35,0,14.35,6.26,14.35,15,0,10.11-6.19,16.11-16.44,16.11-10.7,0-16.7-7.7-16.7-21.92,0-17,7.83-26.88,19.7-26.88a20.28,20.28,0,0,1,12.21,3.59l-3.59,6.39c-3-1.89-5.62-2.94-8.68-2.94-5.81,0-10.57,5.29-11.09,14.36A15.47,15.47,0,0,1,523.55,225.15Zm-1.83,24c4.57,0,7.9-3.39,7.9-8.29,0-5.41-3.26-8.74-8-8.74a8.78,8.78,0,0,0-8.61,5.81C513.37,245.18,516.63,249.16,521.72,249.16Z"/><path class="cls-2" d="M551.67,243.75A9,9,0,0,0,560,249c4.77,0,8.42-3.91,8.42-10,0-5.09-3.2-8.42-8-8.42a7.87,7.87,0,0,0-7.18,4.24l-6.72-1.56,2-25.12h25.32v7.56h-19l-.52,10.58c1.82-1.77,4.37-2.68,8-2.68,8.62,0,14.68,6.26,14.68,15.79,0,10.31-6.46,16.83-16.9,16.83-7.37,0-12.78-3.13-15.85-8.94Z"/><path class="cls-5" d="M344.6,207a21.31,21.31,0,0,1,9,2c-1.58,4.33-8.16,17.19-30.4,17.91A21.53,21.53,0,0,1,344.6,207M366,226.69a8,8,0,0,1-4.65-2.55c-3.09-3.41-3.73-9.21-3.8-12.82A21.52,21.52,0,0,1,366,226.69M344.6,258c-11.18,0-20.38-15.84-21.41-27.42,17.91-.55,26.78-8.67,31-14.93.5,3.71,1.7,8,4.45,11a11.77,11.77,0,0,0,7.41,3.81C365,242,355.82,258,344.6,258m-25.23-29.16c.19,13.08,10.95,32.89,25.23,32.89s25-19.81,25.24-32.89c0,0,0-.06,0-.09s0,0,0-.05,0-.14,0-.21a25.25,25.25,0,0,0-13-22.07l-.14-.08a25.23,25.23,0,0,0-37.33,22.15v.26s0,.06,0,.09"/><path class="cls-5" d="M368.9,270.07c-4.57-4.64-12.65-7-24-7-27.39,0-28.1,13.83-28.12,14.42a1.86,1.86,0,0,0,1.81,1.91h.06a1.87,1.87,0,0,0,1.86-1.81c0-.11.58-10.79,24.39-10.79,23.43,0,23.85,10.3,23.86,10.71a1.85,1.85,0,0,0,1.83,1.89,1.88,1.88,0,0,0,1.89-1.83c0-.4,0-3.95-3.55-7.51"/><path class="cls-5" d="M418.53,255.09a41.68,41.68,0,0,0,9.2-15.16c1,6,2.28,12,2.95,15.16Zm-39.87,0c.68-3.16,1.92-9.15,2.95-15.16a41.68,41.68,0,0,0,9.2,15.16Zm26-48.14a21.27,21.27,0,0,1,8.95,2c-1.59,4.34-8.16,17.15-30.31,17.9,0-.43,0-.84,0-1.22A21.54,21.54,0,0,1,404.67,207M426,225.6c0,.33,0,.7,0,1.08a8,8,0,0,1-4.56-2.54c-3.09-3.4-3.73-9.2-3.81-12.81A21.53,21.53,0,0,1,426,225.6M412.9,255.09a13.2,13.2,0,0,1-16.46,0c-7.2-5.09-12.42-16-13.18-24.54,17.91-.55,26.78-8.67,31-14.93.5,3.71,1.7,8,4.45,11a11.8,11.8,0,0,0,7.4,3.81c-.73,8.57-6,19.53-13.19,24.64m21.92,1.46c-.05-.2-4-18-4.91-27.76v-.33a26.07,26.07,0,0,0-.22-3.32s0-.09,0-.14a25.29,25.29,0,0,0-12.77-18.61l-.15-.08a25,25,0,0,0-12.08-3.09,25.27,25.27,0,0,0-25,21.78l0,.14a26.07,26.07,0,0,0-.22,3.32v.33c-.92,9.77-4.86,27.56-4.9,27.76a1.86,1.86,0,0,0,1.82,2.27h19a16.39,16.39,0,0,0,18.56,0H433a1.83,1.83,0,0,0,1.45-.7,1.89,1.89,0,0,0,.37-1.57"/><path class="cls-5" d="M404.94,263.08c-27.39,0-28.1,13.83-28.12,14.41a1.86,1.86,0,0,0,1.78,1.91h.08a1.88,1.88,0,0,0,1.87-1.77c0-.11.89-10.82,24.39-10.82s23.85,10.3,23.85,10.71a1.87,1.87,0,0,0,1.84,1.89h0a1.85,1.85,0,0,0,1.86-1.84c0-.39,0-3.94-3.55-7.5-4.57-4.64-12.66-7-24-7"/><path class="cls-2" d="M823.55,224.64h7.37V192.15a63.06,63.06,0,0,0-8.22.52v-5.55a36.5,36.5,0,0,0,11.09-3.85h5.42v41.37h7.37v6.65h-23Z"/><path class="cls-2" d="M867.78,183.27c11.16,0,17,8.29,17,24.4s-5.87,24.41-17,24.41-17-8.29-17-24.41S856.63,183.27,867.78,183.27Zm0,41.5c5.62,0,8.55-5.74,8.55-17.1s-2.93-17.16-8.55-17.16-8.61,5.81-8.61,17.16S862.24,224.77,867.78,224.77Z"/><path class="cls-2" d="M816.77,246.44h1.5v1.77a5.24,5.24,0,0,1,3.87-2c1.92,0,3,1.16,3,3.24v8.66h-1.59v-8.06c0-1.67-.49-2.43-1.88-2.43a4.51,4.51,0,0,0-3.33,1.77v8.72h-1.61Z"/><path class="cls-2" d="M837.15,255.59a4.72,4.72,0,0,1-4.68,2.75c-3,0-4.69-2.08-4.69-6.06s1.79-6,4.56-6,4.56,2.1,4.56,5.88v.49h-7.45V253c0,2.49,1.3,4,3.18,4a3.61,3.61,0,0,0,3.33-2.1Zm-2-4.36c0-2.31-1.16-3.61-2.82-3.61s-2.79,1.28-2.88,3.61Z"/><path class="cls-2" d="M844.15,258.09a5.1,5.1,0,0,1-1.72.25c-1.77,0-2.66-.76-2.66-2.28v-8.23H838v-1.39h1.75v-3.78h1.7v3.78h2.66v1.39h-2.66v7.49c0,1.18.17,1.59,1.54,1.59a4.32,4.32,0,0,0,1.14-.18Z"/><path class="cls-2" d="M845,246.44h1.59l2.66,9.8,2.71-9.8h1.41l2.71,9.8,2.66-9.8h1.56l-3.22,11.7h-2l-2.44-8.77-2.43,8.77h-2Z"/><path class="cls-2" d="M866.5,246.24c3,0,4.88,2.15,4.88,6s-1.84,6.06-4.88,6.06-4.88-2.17-4.88-6.06S863.46,246.24,866.5,246.24Zm0,10.74c2,0,3.2-1.62,3.2-4.68s-1.14-4.68-3.2-4.68-3.22,1.59-3.22,4.66S864.44,257,866.5,257Z"/><path class="cls-2" d="M874,246.44h1.65v2.66c.79-1.88,1.84-2.79,3.38-2.79a2.36,2.36,0,0,1,.38,0v1.61h-.2c-1.59,0-2.84,1.27-3.56,3.69v6.51H874Z"/><path class="cls-2" d="M881.2,242h1.63v10.44l5.19-6h1.79l-3.76,4.25,4.16,7.45h-1.79l-3.46-6.2-2.13,2.35v3.85H881.2Z"/><path class="cls-2" d="M892.16,242h1.92v2h-1.92Zm.13,4.47H894v11.7h-1.66Z"/><path class="cls-2" d="M897.73,246.44h1.5v1.77a5.24,5.24,0,0,1,3.87-2c1.92,0,3,1.16,3,3.24v8.66h-1.59v-8.06c0-1.67-.49-2.43-1.88-2.43a4.51,4.51,0,0,0-3.33,1.77v8.72h-1.61Z"/><path class="cls-2" d="M908.94,255.43c0-.83.51-1.34,1.56-1.94a3.69,3.69,0,0,1-1.47-3.18c0-2.51,1.61-4.09,4.31-4.09a4.29,4.29,0,0,1,2.75.87,3.26,3.26,0,0,1,2.15-1h.29v1.52h-.33c-.7,0-1.14.07-1.37.36a3.81,3.81,0,0,1,.65,2.3c0,2.49-1.63,4-4.23,4a6.53,6.53,0,0,1-1.74-.25c-.65.25-1,.65-1,1.06,0,.91,1.15.78,3.36,1,3.11.29,4.61.9,4.61,3.15,0,2-1.79,3.16-5.28,3.16-3.2,0-4.81-.94-4.81-2.84,0-1.14.6-1.81,2-2.35A1.77,1.77,0,0,1,908.94,255.43Zm4.25,5.64c2.48,0,3.71-.56,3.71-1.77s-1.21-1.72-3.74-1.72c-2.08,0-3.2.65-3.2,1.72S911.06,261.07,913.19,261.07Zm.09-8.1a2.48,2.48,0,0,0,2.68-2.68,2.58,2.58,0,0,0-2.77-2.78,2.47,2.47,0,0,0-2.64,2.64A2.52,2.52,0,0,0,913.28,253Z"/><path class="cls-2" d="M820.57,267.51c3,0,4.88,2.15,4.88,6s-1.84,6.06-4.88,6.06-4.87-2.17-4.87-6.06S817.53,267.51,820.57,267.51Zm0,10.74c2,0,3.2-1.61,3.2-4.68s-1.14-4.67-3.2-4.67-3.22,1.59-3.22,4.65S818.51,278.25,820.57,278.25Z"/><path class="cls-2" d="M828,267.71h1.25l.27,1.44a3.67,3.67,0,0,1,3.13-1.64c3.07,0,4.86,2.17,4.86,6.11s-1.75,6-4.88,6a3.51,3.51,0,0,1-3-1.45v5.5H828Zm4.74,10.56c2,0,3.09-1.61,3.09-4.63s-1.1-4.74-3.27-4.74a3.42,3.42,0,0,0-3,1.74v5.84A3.63,3.63,0,0,0,832.76,278.27Z"/><path class="cls-2" d="M840.12,267.71h1.26l.26,1.44a3.69,3.69,0,0,1,3.14-1.64c3.06,0,4.85,2.17,4.85,6.11s-1.74,6-4.88,6a3.51,3.51,0,0,1-3-1.45v5.5h-1.61Zm4.75,10.56c1.94,0,3.08-1.61,3.08-4.63s-1.09-4.74-3.26-4.74a3.42,3.42,0,0,0-3,1.74v5.84A3.64,3.64,0,0,0,844.87,278.27Z"/><path class="cls-2" d="M856,267.51c3,0,4.88,2.15,4.88,6s-1.84,6.06-4.88,6.06-4.88-2.17-4.88-6.06S853,267.51,856,267.51Zm0,10.74c2,0,3.2-1.61,3.2-4.68s-1.14-4.67-3.2-4.67-3.22,1.59-3.22,4.65S854,278.25,856,278.25Z"/><path class="cls-2" d="M863.48,267.71h1.65v2.67c.79-1.88,1.84-2.8,3.38-2.8a2.36,2.36,0,0,1,.38,0v1.61h-.2c-1.59,0-2.84,1.28-3.56,3.69v6.51h-1.65Z"/><path class="cls-2" d="M875.36,279.37a5.21,5.21,0,0,1-1.73.24c-1.76,0-2.66-.76-2.66-2.28V269.1h-1.74v-1.39H871v-3.78h1.7v3.78h2.66v1.39h-2.66v7.49c0,1.19.18,1.59,1.55,1.59a4.39,4.39,0,0,0,1.14-.18Z"/><path class="cls-2" d="M885.87,279.41h-1.48v-1.76a5.26,5.26,0,0,1-3.89,2c-1.92,0-3-1.16-3-3.24v-8.66h1.61v8.06c0,1.67.49,2.44,1.88,2.44a4.5,4.5,0,0,0,3.31-1.77v-8.73h1.61Z"/><path class="cls-2" d="M889.56,267.71h1.5v1.77a5.24,5.24,0,0,1,3.87-2c1.93,0,3,1.17,3,3.25v8.65h-1.58v-8.05c0-1.68-.5-2.44-1.88-2.44a4.52,4.52,0,0,0-3.34,1.77v8.72h-1.61Z"/><path class="cls-2" d="M901.53,263.24h1.92v2h-1.92Zm.14,4.47h1.65v11.7h-1.65Z"/><path class="cls-2" d="M911.73,279.37a5.11,5.11,0,0,1-1.72.24c-1.77,0-2.66-.76-2.66-2.28V269.1H905.6v-1.39h1.75v-3.78h1.7v3.78h2.66v1.39h-2.66v7.49c0,1.19.18,1.59,1.54,1.59a4.32,4.32,0,0,0,1.14-.18Z"/><path class="cls-2" d="M913.92,263.24h1.93v2h-1.93Zm.14,4.47h1.65v11.7h-1.65Z"/><path class="cls-2" d="M927.88,276.86a4.7,4.7,0,0,1-4.67,2.75c-3,0-4.7-2.08-4.7-6.06s1.79-6,4.56-6,4.57,2.11,4.57,5.89v.49h-7.45v.38c0,2.48,1.3,4,3.17,4a3.63,3.63,0,0,0,3.34-2.1Zm-2-4.36c0-2.3-1.16-3.6-2.81-3.6s-2.8,1.27-2.89,3.6Z"/><path class="cls-2" d="M930.14,276.37a4,4,0,0,0,3.34,1.88c1.43,0,2.34-.78,2.34-2,0-1.56-1.32-1.68-3.6-2.37-2-.6-3-1.66-3-3.2a3.22,3.22,0,0,1,3.53-3.2,5.21,5.21,0,0,1,4.21,1.95l-1.07,1.07a3.8,3.8,0,0,0-3.05-1.68,1.74,1.74,0,0,0-2,1.7,1.45,1.45,0,0,0,.59,1.21,12,12,0,0,0,3.11,1.1c1.94.63,2.84,1.61,2.84,3.24,0,2.08-1.59,3.51-4.19,3.51a5.27,5.27,0,0,1-4.43-2.21Z"/><path class="cls-2" d="M87.2,100.6h1.5v1.76a5,5,0,0,1,3.83-2,2.72,2.72,0,0,1,2.82,2,5.09,5.09,0,0,1,3.87-2c1.9,0,3,1.17,3,3.25v8.65H100.6v-8.14c0-1.61-.49-2.35-1.83-2.35a4.39,4.39,0,0,0-3.29,1.77v8.72H93.94V104.2c0-1.64-.52-2.4-1.86-2.4a4.33,4.33,0,0,0-3.26,1.77v8.72H87.2Z"/><path class="cls-2" d="M114.18,109.75a4.71,4.71,0,0,1-4.67,2.75c-3,0-4.7-2.08-4.7-6.07s1.79-6,4.56-6,4.57,2.11,4.57,5.89v.49h-7.45v.38c0,2.48,1.3,4,3.18,4A3.62,3.62,0,0,0,113,109Zm-2-4.37c0-2.3-1.16-3.6-2.81-3.6s-2.8,1.28-2.89,3.6Z"/><path class="cls-2" d="M124.92,108.65a27.87,27.87,0,0,0,.16,3.64h-1.25l-.39-1.47a3.7,3.7,0,0,1-3.26,1.65c-2.86,0-4.61-2.19-4.61-6.08s1.72-6,4.7-6a3.33,3.33,0,0,1,3,1.55V96.12h1.61Zm-4.65-6.91c-1.86,0-3,1.59-3,4.54,0,3.22,1,4.83,3.2,4.83a3.28,3.28,0,0,0,2.86-1.75v-5.83A3.53,3.53,0,0,0,120.27,101.74Z"/><path class="cls-2" d="M128.57,96.12h1.92v2h-1.92Zm.13,4.48h1.66v11.69H128.7Z"/><path class="cls-2" d="M136.46,112.47a3.08,3.08,0,0,1-3.22-3.22c0-2.57,2.24-3.84,7-4.76v-.85c0-1-.94-1.84-2.35-1.84a3.08,3.08,0,0,0-2.87,1.84l-1.41-.76a4.58,4.58,0,0,1,4.37-2.49c2.46,0,3.91,1.26,3.91,3.47v6.53a5.88,5.88,0,0,0,.25,1.73v.17h-1.79l-.18-1.58A5,5,0,0,1,136.46,112.47Zm3.79-6.46c-3.65.74-5.4,1.61-5.4,3.27a1.7,1.7,0,0,0,1.9,1.74c1,0,2.15-.6,3.5-1.79Z"/><path class="cls-2" d="M152.17,100.6h1.25l.27,1.43a3.7,3.7,0,0,1,3.13-1.64c3.07,0,4.85,2.17,4.85,6.11s-1.74,6-4.87,6a3.49,3.49,0,0,1-3-1.46v5.5h-1.61Zm4.74,10.55c2,0,3.09-1.61,3.09-4.63s-1.1-4.74-3.27-4.74a3.41,3.41,0,0,0-2.95,1.75v5.83A3.62,3.62,0,0,0,156.91,111.15Z"/><path class="cls-2" d="M164.38,96.12H166v16.17h-1.64Z"/><path class="cls-2" d="M172.15,112.47a3.08,3.08,0,0,1-3.23-3.22c0-2.57,2.24-3.84,7-4.76v-.85c0-1-.94-1.84-2.35-1.84a3.08,3.08,0,0,0-2.87,1.84l-1.41-.76a4.58,4.58,0,0,1,4.37-2.49c2.46,0,3.91,1.26,3.91,3.47v6.53a5.88,5.88,0,0,0,.25,1.73v.17H176l-.18-1.58A5,5,0,0,1,172.15,112.47Zm3.78-6.46c-3.65.74-5.4,1.61-5.4,3.27a1.7,1.7,0,0,0,1.91,1.74c1,0,2.14-.6,3.49-1.79Z"/><path class="cls-2" d="M184.81,112.5c-3.05,0-4.7-2.11-4.7-6.07s1.79-6.06,4.7-6.06a4.3,4.3,0,0,1,4.22,3.16l-1.61.51a2.81,2.81,0,0,0-2.66-2.26c-1.9,0-3,1.59-3,4.65s1.08,4.68,3.09,4.68a3.48,3.48,0,0,0,3-2.35l1.37.72A4.67,4.67,0,0,1,184.81,112.5Z"/><path class="cls-2" d="M200,109.75a4.73,4.73,0,0,1-4.68,2.75c-3,0-4.7-2.08-4.7-6.07s1.79-6,4.57-6,4.56,2.11,4.56,5.89v.49H192.3v.38c0,2.48,1.3,4,3.18,4a3.61,3.61,0,0,0,3.33-2.1Zm-2-4.37c-.05-2.3-1.17-3.6-2.82-3.6s-2.8,1.28-2.89,3.6Z"/><path class="cls-2" d="M202.32,100.6h1.5v1.76a5,5,0,0,1,3.83-2,2.71,2.71,0,0,1,2.81,2,5.12,5.12,0,0,1,3.87-2c1.91,0,3,1.17,3,3.25v8.65h-1.61v-8.14c0-1.61-.49-2.35-1.83-2.35a4.39,4.39,0,0,0-3.29,1.77v8.72h-1.54V104.2c0-1.64-.52-2.4-1.86-2.4a4.37,4.37,0,0,0-3.27,1.77v8.72h-1.61Z"/><path class="cls-2" d="M229.3,109.75a4.73,4.73,0,0,1-4.67,2.75c-3,0-4.7-2.08-4.7-6.07s1.79-6,4.56-6,4.57,2.11,4.57,5.89v.49h-7.45v.38c0,2.48,1.29,4,3.17,4a3.63,3.63,0,0,0,3.34-2.1Zm-2-4.37c0-2.3-1.16-3.6-2.82-3.6s-2.79,1.28-2.88,3.6Z"/><path class="cls-2" d="M231.67,100.6h1.5v1.76a5.24,5.24,0,0,1,3.87-2c1.93,0,3,1.17,3,3.25v8.65H238.5v-8.05c0-1.68-.5-2.44-1.88-2.44a4.56,4.56,0,0,0-3.34,1.77v8.72h-1.61Z"/><path class="cls-2" d="M248.29,112.25a5.1,5.1,0,0,1-1.72.25c-1.76,0-2.66-.76-2.66-2.29V102h-1.74V100.6h1.74V96.82h1.7v3.78h2.66V102h-2.66v7.5c0,1.18.18,1.58,1.54,1.58a4.27,4.27,0,0,0,1.14-.17Z"/><path class="cls-2" d="M250.4,109.25a4,4,0,0,0,3.33,1.88c1.43,0,2.35-.78,2.35-2,0-1.56-1.32-1.67-3.6-2.37-2-.6-2.95-1.65-2.95-3.2a3.22,3.22,0,0,1,3.53-3.2,5.22,5.22,0,0,1,4.21,2l-1.08,1.07a3.8,3.8,0,0,0-3-1.67c-1.21,0-2,.67-2,1.7a1.42,1.42,0,0,0,.58,1.2,12.16,12.16,0,0,0,3.11,1.1c1.95.63,2.84,1.61,2.84,3.24,0,2.08-1.59,3.52-4.18,3.52a5.27,5.27,0,0,1-4.43-2.22Z"/><path class="cls-2" d="M106.1,280.15c-3,0-4.7-2.11-4.7-6.07s1.79-6.06,4.7-6.06a4.3,4.3,0,0,1,4.22,3.16l-1.61.51a2.81,2.81,0,0,0-2.66-2.26c-1.9,0-3,1.59-3,4.65s1.08,4.68,3.09,4.68a3.48,3.48,0,0,0,3-2.35l1.37.72A4.67,4.67,0,0,1,106.1,280.15Z"/><path class="cls-2" d="M116.7,268c3,0,4.88,2.15,4.88,6s-1.84,6.07-4.88,6.07-4.88-2.17-4.88-6.07S113.66,268,116.7,268Zm0,10.74c2,0,3.2-1.61,3.2-4.67s-1.14-4.68-3.2-4.68-3.22,1.59-3.22,4.65S114.64,278.78,116.7,278.78Z"/><path class="cls-2" d="M132.45,279.94H131v-1.76a5.28,5.28,0,0,1-3.89,2c-1.92,0-3-1.17-3-3.25v-8.65h1.61v8.05c0,1.68.49,2.44,1.88,2.44a4.52,4.52,0,0,0,3.31-1.77v-8.72h1.61Z"/><path class="cls-2" d="M136.14,268.25h1.5V270a5.24,5.24,0,0,1,3.87-2c1.92,0,3,1.17,3,3.25v8.65H143v-8.05c0-1.68-.49-2.44-1.88-2.44a4.56,4.56,0,0,0-3.33,1.77v8.72h-1.61Z"/><path class="cls-2" d="M152.76,279.9a5.1,5.1,0,0,1-1.72.25c-1.77,0-2.66-.77-2.66-2.29v-8.23h-1.75v-1.38h1.75v-3.79h1.7v3.79h2.66v1.38h-2.66v7.5c0,1.18.18,1.58,1.54,1.58a4.34,4.34,0,0,0,1.14-.17Z"/><path class="cls-2" d="M155,268.25h1.65v2.66c.79-1.88,1.84-2.8,3.38-2.8a2.42,2.42,0,0,1,.38,0v1.61h-.2c-1.59,0-2.84,1.28-3.56,3.69v6.51H155Z"/><path class="cls-2" d="M162.2,263.77h1.93v2H162.2Zm.14,4.48H164v11.69h-1.65Z"/><path class="cls-2" d="M176.16,277.39a4.72,4.72,0,0,1-4.67,2.76c-3,0-4.7-2.08-4.7-6.07,0-3.84,1.79-6,4.56-6s4.57,2.11,4.57,5.89v.49h-7.45v.38c0,2.48,1.29,4,3.17,4a3.63,3.63,0,0,0,3.34-2.1Zm-2-4.36c0-2.3-1.16-3.6-2.82-3.6s-2.79,1.28-2.88,3.6Z"/><path class="cls-2" d="M178.42,276.9a4,4,0,0,0,3.33,1.88c1.44,0,2.35-.78,2.35-2,0-1.56-1.32-1.68-3.6-2.37-2-.6-2.95-1.65-2.95-3.2a3.22,3.22,0,0,1,3.53-3.2,5.22,5.22,0,0,1,4.21,1.95l-1.08,1.07a3.8,3.8,0,0,0-3-1.67c-1.21,0-2,.67-2,1.7a1.43,1.43,0,0,0,.59,1.2,11.94,11.94,0,0,0,3.1,1.1c2,.63,2.85,1.61,2.85,3.24,0,2.08-1.59,3.52-4.19,3.52a5.27,5.27,0,0,1-4.43-2.22Z"/><path class="cls-2" d="M102.29,453.46a4,4,0,0,0,3.34,1.88c1.43,0,2.35-.78,2.35-2,0-1.57-1.32-1.68-3.61-2.38-2-.6-3-1.65-3-3.2a3.22,3.22,0,0,1,3.54-3.19,5.19,5.19,0,0,1,4.2,1.94l-1.07,1.08a3.8,3.8,0,0,0-3-1.68,1.72,1.72,0,0,0-2,1.7,1.45,1.45,0,0,0,.58,1.21,12,12,0,0,0,3.11,1.09c1.94.63,2.84,1.61,2.84,3.25,0,2.08-1.59,3.51-4.18,3.51a5.25,5.25,0,0,1-4.43-2.22Z"/><path class="cls-2" d="M120.53,454a4.72,4.72,0,0,1-4.68,2.75c-3,0-4.7-2.08-4.7-6.06s1.79-6,4.57-6,4.56,2.1,4.56,5.88V451h-7.45v.38c0,2.48,1.3,4,3.18,4a3.61,3.61,0,0,0,3.33-2.1Zm-2-4.37c0-2.3-1.17-3.6-2.82-3.6s-2.8,1.28-2.89,3.6Z"/><path class="cls-2" d="M122.79,453.46a4,4,0,0,0,3.33,1.88c1.43,0,2.35-.78,2.35-2,0-1.57-1.32-1.68-3.6-2.38-2-.6-3-1.65-3-3.2a3.22,3.22,0,0,1,3.54-3.19,5.19,5.19,0,0,1,4.2,1.94l-1.07,1.08a3.79,3.79,0,0,0-3-1.68c-1.21,0-2,.67-2,1.7a1.45,1.45,0,0,0,.58,1.21,12,12,0,0,0,3.11,1.09c2,.63,2.84,1.61,2.84,3.25,0,2.08-1.59,3.51-4.18,3.51a5.25,5.25,0,0,1-4.43-2.22Z"/><path class="cls-2" d="M132.52,453.46a4,4,0,0,0,3.33,1.88c1.43,0,2.35-.78,2.35-2,0-1.57-1.32-1.68-3.6-2.38-2-.6-3-1.65-3-3.2a3.22,3.22,0,0,1,3.54-3.19,5.18,5.18,0,0,1,4.2,1.94l-1.07,1.08a3.79,3.79,0,0,0-3-1.68c-1.21,0-2,.67-2,1.7a1.45,1.45,0,0,0,.58,1.21A12,12,0,0,0,137,450c1.95.63,2.84,1.61,2.84,3.25,0,2.08-1.59,3.51-4.18,3.51a5.25,5.25,0,0,1-4.43-2.22Z"/><path class="cls-2" d="M142.34,440.33h1.92v2h-1.92Zm.13,4.48h1.66v11.7h-1.66Z"/><path class="cls-2" d="M151.71,444.61c3,0,4.88,2.14,4.88,6s-1.84,6.06-4.88,6.06-4.88-2.17-4.88-6.06S148.67,444.61,151.71,444.61Zm0,10.73c2,0,3.2-1.61,3.2-4.67s-1.14-4.68-3.2-4.68-3.22,1.59-3.22,4.66S149.65,455.34,151.71,455.34Z"/><path class="cls-2" d="M159.16,444.81h1.5v1.77a5.2,5.2,0,0,1,3.87-2c1.92,0,3,1.16,3,3.24v8.66H166v-8.06c0-1.67-.49-2.43-1.88-2.43a4.53,4.53,0,0,0-3.33,1.76v8.73h-1.61Z"/><path class="cls-2" d="M171,453.46a4,4,0,0,0,3.33,1.88c1.43,0,2.35-.78,2.35-2,0-1.57-1.32-1.68-3.6-2.38-2-.6-3-1.65-3-3.2a3.21,3.21,0,0,1,3.53-3.19,5.21,5.21,0,0,1,4.21,1.94l-1.08,1.08a3.79,3.79,0,0,0-3-1.68c-1.21,0-2,.67-2,1.7a1.45,1.45,0,0,0,.58,1.21,12.18,12.18,0,0,0,3.11,1.09c2,.63,2.84,1.61,2.84,3.25,0,2.08-1.58,3.51-4.18,3.51a5.27,5.27,0,0,1-4.43-2.22Z"/><path class="cls-2" d="M285.64,466.23a6.3,6.3,0,0,0,5.89,3.73c3.35,0,5.93-2.76,5.93-7,0-3.59-2.25-5.94-5.61-5.94a5.54,5.54,0,0,0-5.06,3l-4.74-1.1,1.38-17.71h17.85v5.33H287.89l-.37,7.46c1.29-1.25,3.08-1.89,5.66-1.89,6.07,0,10.35,4.42,10.35,11.13,0,7.27-4.55,11.87-11.91,11.87-5.2,0-9-2.21-11.18-6.3Z"/><path class="cls-2" d="M310,461.49h1.32v8.41l4.17-4.81h1.44l-3,3.42,3.35,6h-1.44l-2.79-5-1.71,1.9v3.09H310Z"/><path class="cls-2" d="M325.59,472.46a3.79,3.79,0,0,1-3.76,2.21c-2.43,0-3.78-1.67-3.78-4.88s1.44-4.86,3.67-4.86,3.67,1.69,3.67,4.74v.39h-6v.31c0,2,1,3.19,2.56,3.19a2.91,2.91,0,0,0,2.68-1.7ZM324,469c0-1.86-.94-2.9-2.27-2.9s-2.25,1-2.32,2.9Z"/><path class="cls-2" d="M326.2,465.09h1.34l2.73,7.53,2.45-7.53h1.33l-3.22,9.58c-.74,2.18-1.44,3.28-3.42,3.28a2.78,2.78,0,0,1-.83-.11v-1.2a3.6,3.6,0,0,0,.74.09c1.31,0,1.89-.67,2.27-2.38Z"/><path class="cls-2" d="M335.74,465.09H337v1.43a4.2,4.2,0,0,1,3.11-1.59,2.3,2.3,0,0,1,2.45,2.61v7h-1.28V468c0-1.35-.39-2-1.51-2a3.62,3.62,0,0,0-2.68,1.42v7h-1.3Z"/><path class="cls-2" d="M348.45,464.93c2.45,0,3.93,1.73,3.93,4.86s-1.48,4.88-3.93,4.88-3.92-1.74-3.92-4.88S346,464.93,348.45,464.93Zm0,8.65c1.64,0,2.58-1.3,2.58-3.77s-.92-3.76-2.58-3.76-2.59,1.28-2.59,3.74S346.79,473.58,348.45,473.58Z"/><path class="cls-2" d="M358.17,474.48a4.23,4.23,0,0,1-1.38.19c-1.43,0-2.15-.61-2.15-1.83v-6.63h-1.4v-1.12h1.4v-3H356v3h2.14v1.12H356v6c0,1,.14,1.28,1.24,1.28a3.63,3.63,0,0,0,.92-.14Z"/><path class="cls-2" d="M366.7,472.46a3.78,3.78,0,0,1-3.76,2.21c-2.43,0-3.78-1.67-3.78-4.88s1.44-4.86,3.67-4.86,3.68,1.69,3.68,4.74v.39h-6v.31c0,2,1,3.19,2.56,3.19a2.91,2.91,0,0,0,2.68-1.7ZM365.12,469c0-1.86-.94-2.9-2.27-2.9s-2.25,1-2.32,2.9Z"/><path class="cls-2" d="M368.52,472.06a3.24,3.24,0,0,0,2.68,1.52c1.16,0,1.89-.64,1.89-1.59,0-1.26-1.06-1.35-2.9-1.91-1.6-.48-2.37-1.33-2.37-2.57a2.6,2.6,0,0,1,2.84-2.58,4.2,4.2,0,0,1,3.39,1.57l-.87.86a3,3,0,0,0-2.44-1.35c-1,0-1.59.54-1.59,1.37a1.14,1.14,0,0,0,.47,1,10,10,0,0,0,2.5.89c1.57.5,2.29,1.29,2.29,2.61,0,1.67-1.28,2.82-3.37,2.82a4.22,4.22,0,0,1-3.56-1.78Z"/><path class="cls-2" d="M612.86,462.55c-5.89,0-10.12-4.37-10.12-10.54,0-7.13,4.37-11.36,11.59-11.36,7.41,0,11.78,5.48,11.78,15.46,0,12-5.52,18.95-13.89,18.95a14.15,14.15,0,0,1-8.56-2.53l2.48-4.51a11.07,11.07,0,0,0,6.12,2.07c4.1,0,7.45-3.77,7.82-10.16A10.94,10.94,0,0,1,612.86,462.55Zm1.29-16.93a5.53,5.53,0,0,0-5.57,5.89c0,3.82,2.3,6.16,5.61,6.16a6.23,6.23,0,0,0,6.08-4.14C620,448.43,617.74,445.62,614.15,445.62Z"/><path class="cls-2" d="M632.86,465.09h1l.22,1.16a3,3,0,0,1,2.52-1.32c2.47,0,3.91,1.75,3.91,4.92s-1.41,4.82-3.93,4.82a2.81,2.81,0,0,1-2.43-1.17v4.43h-1.29Zm3.81,8.5c1.57,0,2.49-1.29,2.49-3.72s-.88-3.82-2.63-3.82a2.76,2.76,0,0,0-2.38,1.4v4.7A2.92,2.92,0,0,0,636.67,473.59Z"/><path class="cls-2" d="M642.68,461.49H644v13h-1.32Z"/><path class="cls-2" d="M653.81,472.46a3.8,3.8,0,0,1-3.77,2.21c-2.43,0-3.78-1.67-3.78-4.88s1.45-4.86,3.68-4.86,3.67,1.69,3.67,4.74v.39h-6v.31c0,2,1,3.19,2.56,3.19a2.9,2.9,0,0,0,2.68-1.7ZM652.22,469c0-1.86-.93-2.9-2.26-2.9s-2.25,1-2.33,2.9Z"/><path class="cls-2" d="M655.71,465.09h1.21v1.43a4.2,4.2,0,0,1,3.12-1.59,2.3,2.3,0,0,1,2.44,2.61v7h-1.27V468c0-1.35-.4-2-1.52-2a3.63,3.63,0,0,0-2.68,1.42v7h-1.3Z"/><path class="cls-2" d="M667.23,474.66a2.48,2.48,0,0,1-2.59-2.6c0-2.07,1.8-3.09,5.64-3.83v-.69c0-.84-.76-1.47-1.89-1.47a2.48,2.48,0,0,0-2.31,1.47l-1.13-.61a3.68,3.68,0,0,1,3.51-2c2,0,3.15,1,3.15,2.79V473a4.67,4.67,0,0,0,.2,1.39v.14h-1.44l-.15-1.28A4,4,0,0,1,667.23,474.66Zm3-5.21c-2.94.6-4.34,1.3-4.34,2.63a1.37,1.37,0,0,0,1.53,1.41,4.55,4.55,0,0,0,2.81-1.45Z"/><path class="cls-2" d="M674.45,465.09h1.33v2.15c.64-1.51,1.48-2.25,2.72-2.25h.31v1.3h-.16c-1.28,0-2.29,1-2.87,3v5.24h-1.33Z"/><path class="cls-2" d="M679,465.09h1.33l2.74,7.53,2.45-7.53h1.33l-3.22,9.58c-.74,2.18-1.45,3.28-3.43,3.28a2.75,2.75,0,0,1-.82-.11v-1.2a3.52,3.52,0,0,0,.73.09c1.32,0,1.89-.67,2.27-2.38Z"/><path class="cls-2" d="M426.38,468.49c2.07-3.41,5.25-6,8.93-8.84,4.51-3.49,7.36-5.7,7.36-9.43,0-2.76-1.84-4.46-4.78-4.46a5.49,5.49,0,0,0-5.62,5.2l-5.7-1.06c1.1-5.8,5.38-9.25,11.55-9.25,6.44,0,10.62,4.1,10.62,9.85,0,4.74-2.94,8-8.28,11.91-4,3-7,4.79-8,6.81h16.1v5.29H426.38Z"/><path class="cls-2" d="M463.69,453.12c5.89,0,10.12,4.42,10.12,10.58,0,7.13-4.37,11.36-11.59,11.36-7.55,0-11.78-5.43-11.78-15.45,0-12,5.52-19,13.89-19a14.28,14.28,0,0,1,8.61,2.53l-2.53,4.51a11.15,11.15,0,0,0-6.12-2.07c-4.1,0-7.45,3.73-7.82,10.12A10.88,10.88,0,0,1,463.69,453.12Zm-1.29,16.93a5.49,5.49,0,0,0,5.57-5.84c0-3.82-2.3-6.17-5.61-6.17a6.2,6.2,0,0,0-6.08,4.1C456.51,467.24,458.81,470.05,462.4,470.05Z"/><path class="cls-2" d="M479.83,471.52v-10h1.29v4.72a2.73,2.73,0,0,1,2.4-1.28c2.41,0,3.83,1.75,3.83,4.92s-1.38,4.82-3.85,4.82a2.75,2.75,0,0,1-2.48-1.29l-.31,1.13h-1C479.79,473.49,479.83,472.48,479.83,471.52Zm3.74,2.07c1.5,0,2.43-1.29,2.43-3.67,0-2.59-.84-3.87-2.57-3.87a2.66,2.66,0,0,0-2.31,1.4v4.7A2.86,2.86,0,0,0,483.57,473.59Z"/><path class="cls-2" d="M489.49,465.09h1.34v2.15c.63-1.51,1.47-2.25,2.71-2.25h.31v1.3h-.16c-1.28,0-2.29,1-2.86,3v5.24h-1.34Z"/><path class="cls-2" d="M502.08,472.46a3.8,3.8,0,0,1-3.77,2.21c-2.43,0-3.78-1.67-3.78-4.88s1.44-4.86,3.68-4.86,3.67,1.69,3.67,4.74v.39h-6v.31c0,2,1.05,3.19,2.56,3.19a2.9,2.9,0,0,0,2.68-1.7ZM500.49,469c0-1.86-.93-2.9-2.27-2.9s-2.25,1-2.32,2.9Z"/><path class="cls-2" d="M505.86,474.66a2.49,2.49,0,0,1-2.6-2.6c0-2.07,1.8-3.09,5.64-3.83v-.69c0-.84-.76-1.47-1.89-1.47a2.48,2.48,0,0,0-2.31,1.47l-1.13-.61a3.68,3.68,0,0,1,3.51-2c2,0,3.15,1,3.15,2.79V473a4.67,4.67,0,0,0,.2,1.39v.14H509l-.14-1.28A4,4,0,0,1,505.86,474.66Zm3-5.21c-2.94.6-4.34,1.3-4.34,2.63a1.37,1.37,0,0,0,1.53,1.41A4.55,4.55,0,0,0,508.9,472Z"/><path class="cls-2" d="M513.07,461.49h1.32v8.41l4.18-4.81H520l-3,3.42,3.35,6h-1.44l-2.79-5-1.71,1.9v3.09h-1.32Z"/><path class="cls-2" d="M525,464.93c2.45,0,3.93,1.73,3.93,4.86s-1.48,4.88-3.93,4.88-3.92-1.74-3.92-4.88S522.52,464.93,525,464.93Zm0,8.65c1.64,0,2.58-1.3,2.58-3.77s-.92-3.76-2.58-3.76-2.59,1.28-2.59,3.74S523.32,473.58,525,473.58Z"/><path class="cls-2" d="M537.65,474.51h-1.19v-1.42a4.26,4.26,0,0,1-3.14,1.58,2.3,2.3,0,0,1-2.44-2.61v-7h1.29v6.49c0,1.35.4,2,1.51,2a3.62,3.62,0,0,0,2.67-1.42v-7h1.3Z"/><path class="cls-2" d="M544.34,474.48a4.25,4.25,0,0,1-1.39.19c-1.42,0-2.14-.61-2.14-1.83v-6.63h-1.4v-1.12h1.4v-3h1.37v3h2.14v1.12h-2.14v6c0,1,.14,1.28,1.24,1.28a3.63,3.63,0,0,0,.92-.14Z"/><path class="cls-2" d="M546,472.06a3.24,3.24,0,0,0,2.68,1.52c1.16,0,1.89-.64,1.89-1.59,0-1.26-1.06-1.35-2.89-1.91-1.61-.48-2.38-1.33-2.38-2.57a2.6,2.6,0,0,1,2.84-2.58,4.2,4.2,0,0,1,3.39,1.57l-.87.86a3,3,0,0,0-2.44-1.35c-1,0-1.59.54-1.59,1.37a1.14,1.14,0,0,0,.47,1,10,10,0,0,0,2.5.89c1.57.5,2.29,1.29,2.29,2.61,0,1.67-1.28,2.82-3.37,2.82a4.24,4.24,0,0,1-3.56-1.78Z"/><path class="cls-2" d="M477.06,276.9a4,4,0,0,0,3.33,1.88c1.43,0,2.35-.78,2.35-2,0-1.56-1.32-1.68-3.6-2.37-2-.6-3-1.65-3-3.2a3.23,3.23,0,0,1,3.54-3.2,5.19,5.19,0,0,1,4.2,1.95l-1.07,1.07a3.8,3.8,0,0,0-3-1.67c-1.21,0-2,.67-2,1.7a1.42,1.42,0,0,0,.58,1.2,12.16,12.16,0,0,0,3.11,1.1c2,.63,2.84,1.61,2.84,3.24,0,2.08-1.59,3.52-4.18,3.52a5.25,5.25,0,0,1-4.43-2.22Z"/><path class="cls-2" d="M486.9,268.25h1.25l.27,1.43a3.7,3.7,0,0,1,3.13-1.64c3.07,0,4.86,2.17,4.86,6.11s-1.75,6-4.88,6a3.49,3.49,0,0,1-3-1.46v5.5H486.9Zm4.74,10.55c1.95,0,3.09-1.61,3.09-4.63s-1.1-4.74-3.27-4.74a3.41,3.41,0,0,0-2.95,1.75V277A3.63,3.63,0,0,0,491.64,278.8Z"/><path class="cls-2" d="M507.39,277.39a4.72,4.72,0,0,1-4.67,2.76c-3,0-4.7-2.08-4.7-6.07,0-3.84,1.79-6,4.56-6s4.57,2.11,4.57,5.89v.49H499.7v.38c0,2.48,1.29,4,3.17,4a3.63,3.63,0,0,0,3.34-2.1Zm-2-4.36c0-2.3-1.16-3.6-2.82-3.6s-2.79,1.28-2.88,3.6Z"/><path class="cls-2" d="M512.09,280.12a3.08,3.08,0,0,1-3.22-3.22c0-2.57,2.24-3.85,7-4.76v-.85c0-1.05-.94-1.84-2.35-1.84a3.07,3.07,0,0,0-2.86,1.84l-1.41-.76a4.56,4.56,0,0,1,4.36-2.49c2.46,0,3.92,1.26,3.92,3.47V278a5.88,5.88,0,0,0,.24,1.73v.17H516l-.18-1.58A4.93,4.93,0,0,1,512.09,280.12Zm3.78-6.46c-3.65.74-5.39,1.61-5.39,3.26a1.7,1.7,0,0,0,1.9,1.75,5.63,5.63,0,0,0,3.49-1.79Z"/><path class="cls-2" d="M521.06,263.77h1.63v10.45l5.19-6h1.79l-3.76,4.25,4.17,7.44h-1.79l-3.47-6.19-2.13,2.35v3.84h-1.63Z"/><path class="cls-2" d="M540.43,277.39a4.71,4.71,0,0,1-4.67,2.76c-3,0-4.7-2.08-4.7-6.07,0-3.84,1.79-6,4.56-6s4.57,2.11,4.57,5.89v.49h-7.45v.38c0,2.48,1.3,4,3.17,4a3.63,3.63,0,0,0,3.34-2.1Zm-2-4.36c0-2.3-1.16-3.6-2.81-3.6s-2.8,1.28-2.89,3.6Z"/><path class="cls-2" d="M542.8,268.25h1.66v2.66c.78-1.88,1.83-2.8,3.38-2.8a2.48,2.48,0,0,1,.38,0v1.61H548c-1.59,0-2.85,1.28-3.56,3.69v6.51H542.8Z"/><path class="cls-2" d="M549.94,276.9a4,4,0,0,0,3.33,1.88c1.44,0,2.35-.78,2.35-2,0-1.56-1.32-1.68-3.6-2.37-2-.6-2.95-1.65-2.95-3.2a3.22,3.22,0,0,1,3.53-3.2,5.22,5.22,0,0,1,4.21,1.95l-1.08,1.07a3.8,3.8,0,0,0-3-1.67c-1.21,0-2,.67-2,1.7a1.42,1.42,0,0,0,.58,1.2,12.16,12.16,0,0,0,3.11,1.1c2,.63,2.84,1.61,2.84,3.24,0,2.08-1.58,3.52-4.18,3.52a5.27,5.27,0,0,1-4.43-2.22Z"/><path class="cls-2" d="M508.87,96.12h1.92v2h-1.92Zm.13,4.48h1.66v11.69H509Z"/><path class="cls-2" d="M514.44,100.6h1.5v1.76a5.24,5.24,0,0,1,3.87-2c1.92,0,3,1.17,3,3.25v8.65h-1.59v-8.05c0-1.68-.49-2.44-1.88-2.44a4.54,4.54,0,0,0-3.33,1.77v8.72h-1.61Z"/><path class="cls-2" d="M541.55,109.75a4.73,4.73,0,0,1-4.67,2.75c-3,0-4.7-2.08-4.7-6.07s1.79-6,4.56-6,4.57,2.11,4.57,5.89v.49h-7.45v.38c0,2.48,1.29,4,3.17,4a3.63,3.63,0,0,0,3.34-2.1Zm-2-4.37c0-2.3-1.16-3.6-2.82-3.6s-2.79,1.28-2.88,3.6Z"/><path class="cls-2" d="M543.81,109.25a4,4,0,0,0,3.33,1.88c1.44,0,2.35-.78,2.35-2,0-1.56-1.32-1.67-3.6-2.37-2-.6-2.95-1.65-2.95-3.2a3.22,3.22,0,0,1,3.53-3.2,5.21,5.21,0,0,1,4.21,2l-1.07,1.07a3.82,3.82,0,0,0-3.05-1.67c-1.21,0-2,.67-2,1.7a1.43,1.43,0,0,0,.59,1.2,11.89,11.89,0,0,0,3.11,1.1c1.94.63,2.84,1.61,2.84,3.24,0,2.08-1.59,3.52-4.19,3.52a5.28,5.28,0,0,1-4.43-2.22Z"/><path class="cls-2" d="M558.29,112.25a5.2,5.2,0,0,1-1.73.25c-1.76,0-2.66-.76-2.66-2.29V102h-1.74V100.6h1.74V96.82h1.7v3.78h2.66V102H555.6v7.5c0,1.18.18,1.58,1.54,1.58a4.42,4.42,0,0,0,1.15-.17Z"/><path class="cls-2" d="M560.48,96.12h1.92v2h-1.92Zm.13,4.48h1.66v11.69h-1.66Z"/><path class="cls-2" d="M566,100.6h1.5v1.76a5,5,0,0,1,3.83-2,2.71,2.71,0,0,1,2.81,2,5.12,5.12,0,0,1,3.87-2c1.91,0,3,1.17,3,3.25v8.65H579.4v-8.14c0-1.61-.49-2.35-1.83-2.35a4.39,4.39,0,0,0-3.29,1.77v8.72h-1.54V104.2c0-1.64-.52-2.4-1.86-2.4a4.37,4.37,0,0,0-3.27,1.77v8.72H566Z"/><path class="cls-2" d="M586.92,112.47a3.08,3.08,0,0,1-3.22-3.22c0-2.57,2.24-3.84,7-4.76v-.85c0-1-.94-1.84-2.35-1.84a3.07,3.07,0,0,0-2.86,1.84l-1.41-.76a4.56,4.56,0,0,1,4.36-2.49c2.46,0,3.92,1.26,3.92,3.47v6.53a5.88,5.88,0,0,0,.24,1.73v.17h-1.79l-.18-1.58A4.93,4.93,0,0,1,586.92,112.47ZM590.7,106c-3.65.74-5.39,1.61-5.39,3.27a1.7,1.7,0,0,0,1.9,1.74,5.63,5.63,0,0,0,3.49-1.79Z"/><path class="cls-2" d="M600.52,112.25a5.1,5.1,0,0,1-1.72.25c-1.77,0-2.66-.76-2.66-2.29V102h-1.75V100.6h1.75V96.82h1.7v3.78h2.66V102h-2.66v7.5c0,1.18.17,1.58,1.54,1.58a4.34,4.34,0,0,0,1.14-.17Z"/><path class="cls-2" d="M611.12,109.75a4.71,4.71,0,0,1-4.67,2.75c-3,0-4.7-2.08-4.7-6.07s1.79-6,4.56-6,4.57,2.11,4.57,5.89v.49h-7.45v.38c0,2.48,1.3,4,3.18,4a3.61,3.61,0,0,0,3.33-2.1Zm-2-4.37c0-2.3-1.17-3.6-2.82-3.6s-2.8,1.28-2.89,3.6Z"/><path class="cls-2" d="M621.86,108.65a27.87,27.87,0,0,0,.16,3.64h-1.25l-.39-1.47a3.7,3.7,0,0,1-3.26,1.65c-2.86,0-4.61-2.19-4.61-6.08s1.72-6,4.7-6a3.33,3.33,0,0,1,3,1.55V96.12h1.61Zm-4.65-6.91c-1.86,0-3,1.59-3,4.54,0,3.22,1,4.83,3.2,4.83a3.26,3.26,0,0,0,2.86-1.75v-5.83A3.53,3.53,0,0,0,617.21,101.74Z"/><path class="cls-2" d="M632.24,96.12h1.93v2h-1.93Zm.14,4.48H634v11.69h-1.65Z"/><path class="cls-2" d="M637.77,100.6h1.5v1.76a5,5,0,0,1,3.82-2,2.71,2.71,0,0,1,2.82,2,5.11,5.11,0,0,1,3.87-2c1.9,0,3,1.17,3,3.25v8.65h-1.61v-8.14c0-1.61-.5-2.35-1.84-2.35a4.42,4.42,0,0,0-3.29,1.77v8.72H644.5V104.2c0-1.64-.51-2.4-1.86-2.4a4.35,4.35,0,0,0-3.26,1.77v8.72h-1.61Z"/><path class="cls-2" d="M656.36,100.6h1.25l.27,1.43a3.7,3.7,0,0,1,3.13-1.64c3.07,0,4.85,2.17,4.85,6.11s-1.74,6-4.87,6a3.49,3.49,0,0,1-3-1.46v5.5h-1.61Zm4.74,10.55c1.95,0,3.09-1.61,3.09-4.63s-1.1-4.74-3.27-4.74a3.41,3.41,0,0,0-2.95,1.75v5.83A3.62,3.62,0,0,0,661.1,111.15Z"/><path class="cls-2" d="M668.46,100.6h1.66v2.66c.78-1.88,1.83-2.8,3.37-2.8a2.36,2.36,0,0,1,.38,0v1.61h-.2c-1.59,0-2.84,1.28-3.55,3.7v6.5h-1.66Z"/><path class="cls-2" d="M684.1,109.75a4.73,4.73,0,0,1-4.68,2.75c-3,0-4.7-2.08-4.7-6.07s1.79-6,4.57-6,4.56,2.11,4.56,5.89v.49H676.4v.38c0,2.48,1.3,4,3.18,4a3.61,3.61,0,0,0,3.33-2.1Zm-2-4.37c0-2.3-1.17-3.6-2.82-3.6s-2.8,1.28-2.89,3.6Z"/><path class="cls-2" d="M686.36,109.25a4,4,0,0,0,3.33,1.88c1.43,0,2.35-.78,2.35-2,0-1.56-1.32-1.67-3.6-2.37-2-.6-3-1.65-3-3.2a3.23,3.23,0,0,1,3.54-3.2,5.19,5.19,0,0,1,4.2,2l-1.07,1.07a3.8,3.8,0,0,0-3-1.67c-1.21,0-2,.67-2,1.7a1.42,1.42,0,0,0,.58,1.2,12,12,0,0,0,3.11,1.1c1.95.63,2.84,1.61,2.84,3.24,0,2.08-1.59,3.52-4.18,3.52a5.25,5.25,0,0,1-4.43-2.22Z"/><path class="cls-2" d="M696.09,109.25a4,4,0,0,0,3.33,1.88c1.43,0,2.35-.78,2.35-2,0-1.56-1.32-1.67-3.6-2.37-2-.6-3-1.65-3-3.2a3.23,3.23,0,0,1,3.54-3.2,5.22,5.22,0,0,1,4.21,2l-1.08,1.07a3.8,3.8,0,0,0-3-1.67c-1.21,0-2,.67-2,1.7a1.42,1.42,0,0,0,.58,1.2,12.16,12.16,0,0,0,3.11,1.1c2,.63,2.84,1.61,2.84,3.24,0,2.08-1.59,3.52-4.18,3.52a5.25,5.25,0,0,1-4.43-2.22Z"/><path class="cls-2" d="M705.91,96.12h1.92v2h-1.92Zm.13,4.48h1.66v11.69H706Z"/><path class="cls-2" d="M715.28,100.39c3,0,4.88,2.15,4.88,6s-1.84,6.07-4.88,6.07-4.87-2.17-4.87-6.07S712.24,100.39,715.28,100.39Zm0,10.74c2,0,3.2-1.61,3.2-4.67s-1.14-4.68-3.2-4.68-3.22,1.59-3.22,4.65S713.22,111.13,715.28,111.13Z"/><path class="cls-2" d="M722.73,100.6h1.5v1.76a5.24,5.24,0,0,1,3.87-2c1.92,0,3,1.17,3,3.25v8.65h-1.59v-8.05c0-1.68-.49-2.44-1.88-2.44a4.56,4.56,0,0,0-3.33,1.77v8.72h-1.61Z"/><path class="cls-2" d="M734.61,109.25a4,4,0,0,0,3.33,1.88c1.44,0,2.35-.78,2.35-2,0-1.56-1.32-1.67-3.6-2.37-2-.6-3-1.65-3-3.2a3.22,3.22,0,0,1,3.53-3.2,5.22,5.22,0,0,1,4.21,2l-1.08,1.07a3.8,3.8,0,0,0-3-1.67c-1.21,0-2,.67-2,1.7a1.42,1.42,0,0,0,.58,1.2,12.16,12.16,0,0,0,3.11,1.1c1.95.63,2.84,1.61,2.84,3.24,0,2.08-1.58,3.52-4.18,3.52a5.27,5.27,0,0,1-4.43-2.22Z"/><path class="cls-2" d="M508.61,122.4h1.82l5.32,9v-9H517V134h-1l-6.15-10.25V134h-1.2Z"/><path class="cls-2" d="M522.53,125.45c2.18,0,3.49,1.54,3.49,4.33s-1.31,4.33-3.49,4.33-3.49-1.55-3.49-4.33S520.35,125.45,522.53,125.45Zm0,7.69c1.46,0,2.29-1.16,2.29-3.35s-.82-3.34-2.29-3.34-2.31,1.13-2.31,3.33S521.06,133.14,522.53,133.14Z"/><path class="cls-2" d="M531.17,133.94a3.93,3.93,0,0,1-1.23.17c-1.27,0-1.91-.54-1.91-1.63v-5.89h-1.24v-1H528v-2.71h1.22v2.71h1.9v1h-1.9V132c0,.85.13,1.14,1.1,1.14a3.28,3.28,0,0,0,.82-.13Z"/><path class="cls-2" d="M534.42,134.1a2.21,2.21,0,0,1-2.31-2.31c0-1.84,1.6-2.75,5-3.41v-.61c0-.75-.67-1.31-1.68-1.31a2.22,2.22,0,0,0-2.05,1.31l-1-.54a3.3,3.3,0,0,1,3.13-1.78c1.76,0,2.8.9,2.8,2.48v4.68a4.3,4.3,0,0,0,.17,1.23V134H537.2l-.13-1.14A3.48,3.48,0,0,1,534.42,134.1Zm2.7-4.63c-2.61.53-3.85,1.15-3.85,2.34a1.22,1.22,0,0,0,1.36,1.25,4.1,4.1,0,0,0,2.49-1.28Z"/><path class="cls-2" d="M540.85,131.31V122.4H542v4.19a2.42,2.42,0,0,1,2.13-1.14c2.15,0,3.41,1.56,3.41,4.37s-1.23,4.29-3.43,4.29a2.43,2.43,0,0,1-2.2-1.15l-.28,1h-.89C540.82,133.06,540.85,132.16,540.85,131.31Zm3.33,1.84c1.33,0,2.16-1.15,2.16-3.26,0-2.31-.75-3.44-2.29-3.44a2.34,2.34,0,0,0-2,1.24v4.18A2.51,2.51,0,0,0,544.18,133.15Z"/><path class="cls-2" d="M549.52,122.4h1.17V134h-1.17Z"/><path class="cls-2" d="M559.41,132.14a3.36,3.36,0,0,1-3.34,2c-2.17,0-3.37-1.49-3.37-4.33s1.28-4.33,3.27-4.33,3.26,1.51,3.26,4.21V130H553.9v.27c0,1.77.93,2.83,2.28,2.83a2.58,2.58,0,0,0,2.38-1.5ZM558,129c0-1.65-.83-2.57-2-2.57s-2,.91-2.07,2.57Z"/><path class="cls-2" d="M561,131.79a2.88,2.88,0,0,0,2.39,1.35c1,0,1.68-.56,1.68-1.41,0-1.12-.94-1.2-2.58-1.7-1.42-.43-2.11-1.18-2.11-2.29a2.31,2.31,0,0,1,2.53-2.29,3.72,3.72,0,0,1,3,1.4l-.77.76a2.7,2.7,0,0,0-2.18-1.2,1.24,1.24,0,0,0-1.41,1.22,1,1,0,0,0,.42.86,8.84,8.84,0,0,0,2.23.79c1.39.45,2,1.15,2,2.32,0,1.49-1.14,2.51-3,2.51a3.74,3.74,0,0,1-3.17-1.58Z"/><path class="cls-2" d="M568.45,127.58H570v1.76h-1.55Zm0,4.63H570V134h-1.55Z"/><path class="cls-2" d="M580.24,123.5h-3.38v-1.1h8.07v1.1h-3.38V134h-1.31Z"/><path class="cls-2" d="M586.61,122.4h1.15v4.43a3.77,3.77,0,0,1,2.83-1.38,2.08,2.08,0,0,1,2.26,2.32V134h-1.14v-5.76c0-1.2-.36-1.75-1.42-1.75a3.45,3.45,0,0,0-2.53,1.27V134h-1.15Z"/><path class="cls-2" d="M601.41,132.14a3.36,3.36,0,0,1-3.34,2c-2.17,0-3.37-1.49-3.37-4.33s1.28-4.33,3.27-4.33,3.26,1.51,3.26,4.21V130H595.9v.27c0,1.77.93,2.83,2.28,2.83a2.58,2.58,0,0,0,2.38-1.5ZM600,129c0-1.65-.83-2.57-2-2.57s-2,.91-2.07,2.57Z"/><path class="cls-2" d="M608.16,122.4h3.36c2.74,0,4.05,1,4.05,3.15s-1.34,3.25-3.68,3.25h-2.48V134h-1.25Zm3.22,5.31c2,0,2.88-.54,2.88-2.18s-1-2.06-3-2.06h-1.87v4.24Z"/><path class="cls-2" d="M617.63,122.4h1.17V134h-1.17Z"/><path class="cls-2" d="M623.18,134.1a2.2,2.2,0,0,1-2.3-2.31c0-1.84,1.6-2.75,5-3.41v-.61c0-.75-.67-1.31-1.68-1.31a2.2,2.2,0,0,0-2.05,1.31l-1-.54a3.28,3.28,0,0,1,3.12-1.78c1.76,0,2.8.9,2.8,2.48v4.68a4.29,4.29,0,0,0,.18,1.23V134H626l-.13-1.14A3.52,3.52,0,0,1,623.18,134.1Zm2.71-4.63c-2.61.53-3.86,1.15-3.86,2.34a1.22,1.22,0,0,0,1.36,1.25,4.09,4.09,0,0,0,2.5-1.28Z"/><path class="cls-2" d="M629.58,122.4H631v1.4h-1.38Zm.1,3.2h1.18V134h-1.18Z"/><path class="cls-2" d="M633.57,125.6h1.07v1.26a3.77,3.77,0,0,1,2.77-1.41,2,2,0,0,1,2.17,2.32V134h-1.13v-5.76c0-1.2-.35-1.75-1.35-1.75a3.24,3.24,0,0,0-2.38,1.27V134h-1.15Z"/><path class="cls-2" d="M647.2,122.4H650a5.73,5.73,0,0,1,3.65.91,5.86,5.86,0,0,1,2,4.86c0,3.85-2,5.8-5.94,5.8H647.2Zm1.26,1.07v9.36h1a5.11,5.11,0,0,0,3.36-.8,4.68,4.68,0,0,0,1.5-3.84,4,4,0,0,0-4.69-4.72Z"/><path class="cls-2" d="M663.81,132.14a3.38,3.38,0,0,1-3.35,2c-2.16,0-3.36-1.49-3.36-4.33s1.28-4.33,3.27-4.33,3.26,1.51,3.26,4.21V130H658.3v.27c0,1.77.93,2.83,2.28,2.83a2.59,2.59,0,0,0,2.38-1.5ZM662.4,129c0-1.65-.83-2.57-2-2.57s-2,.91-2.06,2.57Z"/><path class="cls-2" d="M667.17,134.1a2.21,2.21,0,0,1-2.31-2.31c0-1.84,1.6-2.75,5-3.41v-.61c0-.75-.67-1.31-1.68-1.31a2.2,2.2,0,0,0-2.05,1.31l-1-.54a3.28,3.28,0,0,1,3.12-1.78c1.77,0,2.81.9,2.81,2.48v4.68a4.3,4.3,0,0,0,.17,1.23V134H670l-.13-1.14A3.5,3.5,0,0,1,667.17,134.1Zm2.7-4.63c-2.61.53-3.86,1.15-3.86,2.34a1.23,1.23,0,0,0,1.37,1.25,4.1,4.1,0,0,0,2.49-1.28Z"/><path class="cls-2" d="M673.66,122.4h1.17V134h-1.17Z"/><path class="cls-2" d="M683.55,132.14a3.35,3.35,0,0,1-3.34,2c-2.16,0-3.36-1.49-3.36-4.33s1.28-4.33,3.26-4.33,3.27,1.51,3.27,4.21V130h-5.33v.27c0,1.77.92,2.83,2.27,2.83a2.58,2.58,0,0,0,2.38-1.5ZM682.14,129c0-1.65-.83-2.57-2-2.57s-2,.91-2.07,2.57Z"/><path class="cls-2" d="M685.25,125.6h1.18v1.9c.56-1.34,1.31-2,2.42-2a1.27,1.27,0,0,1,.27,0v1.15H689c-1.14,0-2,.91-2.55,2.64V134h-1.18Z"/><path class="cls-2" d="M691.52,133.86h-.67v-1.67h1.55v1.87l-1,2.33-.78,0Z"/><path class="cls-2" d="M703.94,134.16c-2.82,0-4.45-2.13-4.45-6s1.72-6,4.35-6c2.14,0,3.49,1.17,4,3.46l-1.2.31c-.35-1.75-1.31-2.68-2.67-2.68-2,0-3.17,1.71-3.17,4.93s1.2,4.84,3.2,4.84c1.51,0,2.55-1,2.87-2.82l1.17.26Q707.18,134.16,703.94,134.16Z"/><path class="cls-2" d="M710,122.4h1.83l5.31,9v-9h1.2V134h-1l-6.14-10.25V134H710Z"/><path class="cls-2" d="M721.41,122.4h3.13c3,0,4.48.8,4.48,2.91a2.59,2.59,0,0,1-1.88,2.56,3.11,3.11,0,0,1,2.22,3c0,2.06-1.49,3.12-4.43,3.12h-3.52Zm1.26,1v3.92h2.46c1.69,0,2.6-.74,2.6-2s-1-1.87-3-1.87Zm0,5v4.43h2.38c2.05,0,3-.64,3-2.17s-1-2.26-3-2.26Z"/><path class="cls-2" d="M735.29,134.16c-2.81,0-4.45-2.13-4.45-6s1.73-6,4.36-6c2.14,0,3.49,1.17,4,3.46L738,126c-.35-1.75-1.31-2.68-2.67-2.68-2,0-3.17,1.71-3.17,4.93s1.2,4.84,3.2,4.84c1.51,0,2.55-1,2.87-2.82l1.17.26Q738.54,134.16,735.29,134.16Z"/><path class="cls-2" d="M742.17,133.86h-.67v-1.67h1.55v1.87l-1,2.33-.79,0Z"/><path class="cls-2" d="M751,122.4h1.29V134H751Z"/><path class="cls-2" d="M761.26,131.36a19.15,19.15,0,0,0,.12,2.61h-.9l-.27-1.06a2.66,2.66,0,0,1-2.34,1.19c-2,0-3.3-1.57-3.3-4.36s1.23-4.29,3.36-4.29a2.37,2.37,0,0,1,2.18,1.11V122.4h1.15Zm-3.33-5c-1.33,0-2.16,1.14-2.16,3.25,0,2.31.76,3.46,2.29,3.46a2.36,2.36,0,0,0,2.05-1.25v-4.18A2.53,2.53,0,0,0,757.93,126.41Z"/><path class="cls-2" d="M769.89,132.14a3.38,3.38,0,0,1-3.35,2c-2.16,0-3.36-1.49-3.36-4.33s1.28-4.33,3.27-4.33,3.26,1.51,3.26,4.21V130h-5.33v.27c0,1.77.93,2.83,2.27,2.83a2.6,2.6,0,0,0,2.39-1.5ZM768.48,129c0-1.65-.83-2.57-2-2.57s-2,.91-2.06,2.57Z"/><path class="cls-2" d="M773.25,134.1a2.2,2.2,0,0,1-2.31-2.31c0-1.84,1.6-2.75,5-3.41v-.61c0-.75-.67-1.31-1.68-1.31a2.2,2.2,0,0,0-2,1.31l-1-.54a3.28,3.28,0,0,1,3.12-1.78c1.76,0,2.8.9,2.8,2.48v4.68a4.29,4.29,0,0,0,.18,1.23V134H776l-.13-1.14A3.52,3.52,0,0,1,773.25,134.1Zm2.7-4.63c-2.61.53-3.86,1.15-3.86,2.34a1.22,1.22,0,0,0,1.36,1.25,4.09,4.09,0,0,0,2.5-1.28Z"/><path class="cls-2" d="M779.58,131.79a2.88,2.88,0,0,0,2.38,1.35c1,0,1.69-.56,1.69-1.41,0-1.12-.95-1.2-2.58-1.7-1.43-.43-2.11-1.18-2.11-2.29a2.31,2.31,0,0,1,2.53-2.29,3.7,3.7,0,0,1,3,1.4l-.76.76a2.73,2.73,0,0,0-2.18-1.2c-.87,0-1.41.48-1.41,1.22a1,1,0,0,0,.42.86,8.75,8.75,0,0,0,2.22.79c1.39.45,2,1.15,2,2.32,0,1.49-1.13,2.51-3,2.51a3.76,3.76,0,0,1-3.17-1.58Z"/><path class="cls-2" d="M789.93,133.94a3.85,3.85,0,0,1-1.23.17c-1.26,0-1.9-.54-1.9-1.63v-5.89h-1.25v-1h1.25v-2.71H788v2.71h1.91v1H788V132c0,.85.13,1.14,1.11,1.14a3.19,3.19,0,0,0,.81-.13Z"/><path class="cls-2" d="M791.52,125.6h1.18v1.9c.56-1.34,1.31-2,2.42-2a1.27,1.27,0,0,1,.27,0v1.15h-.14c-1.14,0-2,.91-2.55,2.64V134h-1.18Z"/><path class="cls-2" d="M802.7,132.14a3.36,3.36,0,0,1-3.34,2c-2.16,0-3.36-1.49-3.36-4.33s1.28-4.33,3.26-4.33,3.27,1.51,3.27,4.21V130H797.2v.27c0,1.77.92,2.83,2.27,2.83a2.58,2.58,0,0,0,2.38-1.5ZM801.29,129c0-1.65-.83-2.57-2-2.57s-2,.91-2.07,2.57Z"/><path class="cls-2" d="M806.06,134.1a2.21,2.21,0,0,1-2.31-2.31c0-1.84,1.61-2.75,5-3.41v-.61c0-.75-.68-1.31-1.69-1.31a2.2,2.2,0,0,0-2,1.31l-1-.54a3.27,3.27,0,0,1,3.12-1.78c1.76,0,2.8.9,2.8,2.48v4.68a4,4,0,0,0,.18,1.23V134h-1.28l-.13-1.14A3.52,3.52,0,0,1,806.06,134.1Zm2.71-4.63c-2.61.53-3.86,1.15-3.86,2.34a1.22,1.22,0,0,0,1.36,1.25,4.14,4.14,0,0,0,2.5-1.28Z"/><path class="cls-2" d="M812.44,125.6h1.08v1.26a3.57,3.57,0,0,1,2.73-1.41,2,2,0,0,1,2,1.41,3.66,3.66,0,0,1,2.77-1.41,2,2,0,0,1,2.14,2.32V134H822v-5.83c0-1.15-.35-1.68-1.31-1.68a3.12,3.12,0,0,0-2.35,1.27V134h-1.11v-5.8c0-1.16-.37-1.71-1.33-1.71a3.08,3.08,0,0,0-2.33,1.27V134h-1.16Z"/><path class="cls-4" d="M760.1,222.15a16.84,16.84,0,0,1-16.67-14.91,15.87,15.87,0,0,1,0-3.73,16.77,16.77,0,1,1,16.67,18.64m-24,19.16a20.47,20.47,0,0,0-19.16,0l-11.8-19.45a20.49,20.49,0,0,0,8.24-14.62h26.28a20.49,20.49,0,0,0,8.24,14.62Zm7.2,18.13a16.78,16.78,0,1,1-27.53-12.87,16.84,16.84,0,0,1,21.5,0,16.75,16.75,0,0,1,6,12.87M700,220.58a16.77,16.77,0,1,1,9.62-17.07,15.87,15.87,0,0,1,0,3.73,16.73,16.73,0,0,1-6.44,11.4,16.9,16.9,0,0,1-3.18,1.94m60.07-35.71a20.52,20.52,0,0,0-20.42,18.64H713.4A20.5,20.5,0,1,0,702,223.8l11.86,19.55a20.51,20.51,0,1,0,25.4,0L751.1,223.8a20.5,20.5,0,1,0,9-38.93"/><path class="cls-2" d="M510.71,62.72h7.37V30.22a63,63,0,0,0-8.22.53V25.2A36.5,36.5,0,0,0,521,21.35h5.42V62.72h7.37v6.65h-23Z"/><path class="cls-2" d="M543.79,62.72h7.37V30.22a63,63,0,0,0-8.22.53V25.2A36.5,36.5,0,0,0,554,21.35h5.42V62.72h7.37v6.65h-23Z"/><path class="cls-2" d="M576.87,62.72h7.37V30.22a63,63,0,0,0-8.22.53V25.2a36.4,36.4,0,0,0,11.09-3.85h5.42V62.72h7.37v6.65h-23Z"/><path class="cls-2" d="M613.21,59.91h8.94v9.85l-4.37,9.33h-4.11l3.13-9.91h-3.59Z"/><path class="cls-2" d="M649.62,39C658,39,664,45.3,664,54c0,10.11-6.2,16.12-16.44,16.12-10.7,0-16.7-7.7-16.7-21.93,0-17,7.83-26.88,19.7-26.88a20.25,20.25,0,0,1,12.2,3.59l-3.59,6.39c-3-1.89-5.61-2.93-8.67-2.93-5.81,0-10.57,5.28-11.1,14.35A15.5,15.5,0,0,1,649.62,39Zm-1.83,24c4.57,0,7.9-3.39,7.9-8.28,0-5.42-3.27-8.75-8-8.75a8.81,8.81,0,0,0-8.62,5.81C639.44,59.06,642.7,63,647.79,63Z"/><path class="cls-2" d="M689.55,58.54H668.41V50.06l20.23-28.12h8.8V51.69h6.79v6.85h-6.79V69.76h-7.89Zm.13-6.79V31.2L674.87,51.75Z"/><path class="cls-2" d="M726.41,21.35c11.16,0,17,8.29,17,24.4s-5.87,24.41-17,24.41-17-8.29-17-24.41S715.26,21.35,726.41,21.35Zm0,41.5c5.62,0,8.55-5.75,8.55-17.1S732,28.59,726.41,28.59s-8.61,5.81-8.61,17.16S720.87,62.85,726.41,62.85Z"/><path class="cls-2" d="M751.6,59.91h8.94v9.85l-4.37,9.33h-4.11l3.13-9.91H751.6Z"/><path class="cls-2" d="M785.72,21.35c11.16,0,17,8.29,17,24.4s-5.87,24.41-17,24.41-17-8.29-17-24.41S774.57,21.35,785.72,21.35Zm0,41.5c5.61,0,8.55-5.75,8.55-17.1s-2.94-17.16-8.55-17.16-8.61,5.81-8.61,17.16S780.18,62.85,785.72,62.85Z"/><path class="cls-2" d="M825.26,21.35c11.16,0,17,8.29,17,24.4s-5.87,24.41-17,24.41-17-8.29-17-24.41S814.11,21.35,825.26,21.35Zm0,41.5c5.62,0,8.55-5.75,8.55-17.1s-2.93-17.16-8.55-17.16-8.61,5.81-8.61,17.16S819.72,62.85,825.26,62.85Z"/><path class="cls-2" d="M864.8,21.35c11.16,0,17,8.29,17,24.4s-5.87,24.41-17,24.41-17-8.29-17-24.41S853.65,21.35,864.8,21.35Zm0,41.5c5.62,0,8.55-5.75,8.55-17.1s-2.93-17.16-8.55-17.16-8.61,5.81-8.61,17.16S859.26,62.85,864.8,62.85Z"/><path class="cls-2" d="M914.46,30.49V47.25h16.37v5.29H914.46V69.37H909V52.54H892.67V47.25H909V30.49Z"/><path class="cls-2" d="M107.86,75.18H86.72V66.7L107,38.58h8.8V68.33h6.79v6.85h-6.79V86.4h-7.89Zm.13-6.79V47.84L93.18,68.39Z"/><path class="cls-2" d="M128.41,77.46c2.94-4.83,7.44-8.48,12.66-12.53,6.4-5,10.44-8.09,10.44-13.37,0-3.91-2.61-6.33-6.79-6.33s-7.43,2.87-8,7.37l-8.09-1.5C130.24,42.88,136.31,38,145.05,38c9.14,0,15.07,5.81,15.07,14,0,6.72-4.17,11.29-11.74,16.9-5.68,4.24-9.92,6.79-11.35,9.66h22.83V86H128.41Z"/><path class="cls-3" d="M322.69,413.45a5.6,5.6,0,1,0,5.6,5.59,5.6,5.6,0,0,0-5.6-5.59m0,14a8.39,8.39,0,1,1,8.39-8.39,8.39,8.39,0,0,1-8.39,8.39"/><path class="cls-3" d="M343.67,420.44a1.4,1.4,0,0,1-1.4-1.4,19.58,19.58,0,0,0-39.15,0,1.4,1.4,0,1,1-2.8,0,22.38,22.38,0,0,1,44.75,0,1.4,1.4,0,0,1-1.4,1.4"/><path class="cls-3" d="M350.66,420.44a1.4,1.4,0,0,1-1.4-1.4,26.57,26.57,0,0,0-53.13,0,1.4,1.4,0,1,1-2.8,0,29.37,29.37,0,0,1,58.73,0,1.4,1.4,0,0,1-1.4,1.4"/><path class="cls-3" d="M357.65,420.44a1.4,1.4,0,0,1-1.4-1.4,33.56,33.56,0,0,0-67.11,0,1.4,1.4,0,1,1-2.8,0,36.36,36.36,0,0,1,72.71,0,1.4,1.4,0,0,1-1.4,1.4"/><path class="cls-3" d="M364.64,420.44a1.4,1.4,0,0,1-1.4-1.4,40.55,40.55,0,1,0-81.09,0,1.4,1.4,0,0,1-2.8,0A43.35,43.35,0,0,1,366,419a1.4,1.4,0,0,1-1.4,1.4"/><line class="cls-6" x1="310.91" y1="0.16" x2="310.91" y2="143.49"/><path class="cls-1" d="M486.92,424.64a20.14,20.14,0,1,1,20.14-20.14,20.17,20.17,0,0,1-20.14,20.14m51.67-45.82L531,371.21a1.24,1.24,0,0,0-.22-.18.31.31,0,0,0-.1,0l-.14-.08-.14,0-.12,0a1.63,1.63,0,0,0-.54,0l-.13,0-.13,0-.14.08-.11,0a1.68,1.68,0,0,0-.21.18l-7.61,7.61a1.4,1.4,0,1,0,2,2l5.23-5.23V403.1H509.81a23,23,0,0,0-21.49-21.49V359.42l5.22,5.23a1.44,1.44,0,0,0,1,.41,1.4,1.4,0,0,0,1-2.39l-7.61-7.61a1.24,1.24,0,0,0-.22-.18l-.1-.06-.14-.07-.14,0-.12,0a1.63,1.63,0,0,0-.54,0l-.13,0-.14,0-.13.07-.11.06-.21.18-7.61,7.61a1.4,1.4,0,1,0,2,2l5.23-5.23v22.19A23,23,0,0,0,464,403.1H445.25V386.34l5.22,5.23a1.41,1.41,0,0,0,1,.4,1.39,1.39,0,0,0,1-2.38L444.84,382a1.24,1.24,0,0,0-.22-.18l-.1-.06-.14-.07-.14,0-.12,0a1.63,1.63,0,0,0-.54,0l-.13,0-.14,0-.13.07-.11.06a1.18,1.18,0,0,0-.21.18l-7.61,7.61a1.4,1.4,0,0,0,2,2l5.23-5.23V404.5a1.4,1.4,0,0,0,1.4,1.4H464a22.93,22.93,0,0,0,45.78,0H530a1.4,1.4,0,0,0,1.4-1.4V375.57l5.23,5.23a1.4,1.4,0,0,0,2-2"/><path class="cls-5" d="M612.52,373.59h16.06V357.52H612.52ZM630,376.38H611.12a1.4,1.4,0,0,1-1.4-1.4V356.12a1.4,1.4,0,0,1,1.4-1.39H630a1.4,1.4,0,0,1,1.4,1.39V375a1.4,1.4,0,0,1-1.4,1.4"/><path class="cls-5" d="M638,373.59h16.07V357.52H638Zm17.47,2.79H636.65a1.39,1.39,0,0,1-1.4-1.4V356.12a1.39,1.39,0,0,1,1.4-1.39h18.86a1.39,1.39,0,0,1,1.39,1.39V375a1.39,1.39,0,0,1-1.39,1.4"/><path class="cls-5" d="M663.57,373.59h16.06V357.52H663.57ZM681,376.38H662.17a1.4,1.4,0,0,1-1.4-1.4V356.12a1.4,1.4,0,0,1,1.4-1.39H681a1.4,1.4,0,0,1,1.4,1.39V375a1.4,1.4,0,0,1-1.4,1.4"/><path class="cls-5" d="M612.52,399.11h16.06V383.05H612.52Zm17.46,2.8H611.12a1.4,1.4,0,0,1-1.4-1.4V381.65a1.4,1.4,0,0,1,1.4-1.4H630a1.4,1.4,0,0,1,1.4,1.4v18.86a1.4,1.4,0,0,1-1.4,1.4"/><path class="cls-5" d="M612.52,424.64h16.06V408.57H612.52ZM630,427.43H611.12a1.4,1.4,0,0,1-1.4-1.4V407.17a1.4,1.4,0,0,1,1.4-1.4H630a1.4,1.4,0,0,1,1.4,1.4V426a1.4,1.4,0,0,1-1.4,1.4"/><path class="cls-5" d="M638,399.11h16.07V383.05H638Zm17.47,2.8H636.65a1.4,1.4,0,0,1-1.4-1.4V381.65a1.4,1.4,0,0,1,1.4-1.4h18.86a1.4,1.4,0,0,1,1.39,1.4v18.86a1.4,1.4,0,0,1-1.39,1.4"/><path class="cls-5" d="M638,424.64h16.07V408.57H638Zm17.47,2.79H636.65a1.39,1.39,0,0,1-1.4-1.4V407.17a1.4,1.4,0,0,1,1.4-1.4h18.86a1.4,1.4,0,0,1,1.39,1.4V426a1.39,1.39,0,0,1-1.39,1.4"/><path class="cls-5" d="M663.57,399.11h16.06V383.05H663.57Zm17.46,2.8H662.17a1.4,1.4,0,0,1-1.4-1.4V381.65a1.4,1.4,0,0,1,1.4-1.4H681a1.4,1.4,0,0,1,1.4,1.4v18.86a1.4,1.4,0,0,1-1.4,1.4"/><path class="cls-5" d="M663.57,424.64h16.06V408.57H663.57ZM681,427.43H662.17a1.4,1.4,0,0,1-1.4-1.4V407.17a1.4,1.4,0,0,1,1.4-1.4H681a1.4,1.4,0,0,1,1.4,1.4V426a1.4,1.4,0,0,1-1.4,1.4"/><line class="cls-6" x1="-0.16" y1="324.07" x2="939.42" y2="324.07"/><line class="cls-6" x1="-0.16" y1="161.2" x2="939.42" y2="161.2"/><line class="cls-6" x1="626.6" y1="178.91" x2="626.6" y2="303.72"/><line class="cls-6" x1="270.88" y1="178.91" x2="270.88" y2="303.72"/><line class="cls-7" x1="225.65" y1="383.25" x2="225.65" y2="451.02"/><path class="cls-5" d="M48.24,57.08H3.42v-25H48.24Zm-16,65.27H19.41L15.5,60.67H36.16ZM12.1,23H39.57a14.56,14.56,0,0,1-3.46,5.57H15.56A14.44,14.44,0,0,1,12.1,23m-.79-4.69c0-.37,0-.74,0-1.1H40.3c0,.36.06.73.06,1.1s0,.74-.06,1.11H11.36c0-.37,0-.73,0-1.11M25.83,3.75a14.55,14.55,0,0,1,13.74,9.83H12.1A14.54,14.54,0,0,1,25.83,3.75M50,28.53H40.75a18.12,18.12,0,0,0,3.14-9.15c0-.37,0-.73,0-1.11s0-.73,0-1.1a18.55,18.55,0,0,0-.58-3.59,18.09,18.09,0,0,0-34.95,0,17.81,17.81,0,0,0-.58,3.59c0,.37-.06.73-.06,1.1s0,.74.06,1.11A17.6,17.6,0,0,0,8.36,23a18.12,18.12,0,0,0,2.56,5.57H1.63A1.79,1.79,0,0,0-.16,30.32V58.88a1.79,1.79,0,0,0,1.79,1.79H11.91l4,63.59a1.8,1.8,0,0,0,1.79,1.68h6.34c-.08,3-.79,9.47-5.09,14.6a1.8,1.8,0,0,0,.23,2.53,1.79,1.79,0,0,0,2.52-.22c5.07-6,5.87-13.45,5.94-16.91h6.28a1.79,1.79,0,0,0,1.79-1.68l4-63.59H50a1.8,1.8,0,0,0,1.8-1.79V30.32A1.8,1.8,0,0,0,50,28.53"/><line class="cls-6" x1="738.05" y1="344.43" x2="738.05" y2="489.84"/><path class="cls-8" d="M915.53,461l-36-58.42-.88-1.43-1.13-1.83-.87-1.41-.58-.94-.78-1.27-12.92-21-.11-.18a.74.74,0,0,0-.6-.33.76.76,0,0,0-.6.33l-.11.18L848.12,395.6l-.77,1.26-.81,1.3-.76,1.25-1,1.56-.78,1.28L807.83,461a2.51,2.51,0,0,1-.27-3l35.37-57.48,1.46-2.36.76-1.25,1-1.56,13.41-21.79a2.53,2.53,0,0,1,4.3,0l13.47,21.89.39.63.86,1.4,2,3.17L915.78,458a2.51,2.51,0,0,1-.25,3m-1.89.88a2.52,2.52,0,0,1-2.16-1.21l-33.69-54.74-.88-1.43-1.16-1.89-.87-1.41-1-1.7-.88-1.43-10.67-17.34a.75.75,0,0,0-1.23,0L850.7,397.57l-.77,1.25-.93,1.51-.77,1.24-1,1.62-.77,1.25-34.61,56.23a2.51,2.51,0,0,1-1.56,1.14,2.48,2.48,0,0,1-1.24,0l36.06-58.55.77-1.25,1-1.6.77-1.25.94-1.53.77-1.24,12.34-20,12.4,20.14.78,1.26,1,1.65.87,1.41,1.15,1.85.87,1.43,35.55,57.72a2.6,2.6,0,0,1-.68.1m-61.85-63.33,9.88-16.06,10.51,17.07-3.2,6.05-3.77-7.44a4,4,0,0,0-6.45-.9l-3.82,4.12ZM851,399.8l3.49,3.13a.71.71,0,0,0,1,0l4.3-4.64a2.53,2.53,0,0,1,4.11.57l4.4,8.69a.71.71,0,0,0,.63.4h0a.73.73,0,0,0,.64-.39l3.45-6.54,1,1.67L869,412l-6.91-12.16a.72.72,0,0,0-1.14-.15l-5.81,6-5-4.41Zm20.13,15.64a2.53,2.53,0,0,1-2.24,1.35v.72l0-.72a2.52,2.52,0,0,1-2.23-1.39l-5.13-10.13a.72.72,0,0,0-.55-.39h-.1a.76.76,0,0,0-.53.23l-3.3,3.57a2.53,2.53,0,0,1-3.54.16l-5.18-4.66,1-1.63,5.33,4.7a.73.73,0,0,0,1,0l5.61-5.8,7.07,12.45a.72.72,0,0,0,.63.37h0a.72.72,0,0,0,.62-.38l5.35-9.77,1.18,1.91Zm-27.43-18.8h0m34.88-.74h0M917,457.27l-52-84.44a4,4,0,0,0-6.76,0l-15,24.43h0l-36.93,60a4,4,0,0,0,3.37,6.05,3.69,3.69,0,0,0,.93-.11,3.92,3.92,0,0,0,2.46-1.78l34.47-56,5,4.48a4,4,0,0,0,5.56-.25l2.6-2.8,4.66,9.2a4,4,0,0,0,3.52,2.18h0a3.94,3.94,0,0,0,3.51-2.12l4.59-8.7,33.24,54a3.95,3.95,0,0,0,5.31,1.38l.15-.08c.08-.05.14-.11.21-.16a4,4,0,0,0,1.09-5.3"/></svg>