<?xml version="1.0" encoding="utf-8"?><svg id="Layer_1" data-name="Layer 1" xmlns="http://www.w3.org/2000/svg" xmlns:xlink="http://www.w3.org/1999/xlink" viewBox="0 0 288 288"><defs><style>.cls-1{fill:none;}.cls-2{fill:#231f20;}.cls-3{clip-path:url(#clip-path);}.cls-4{fill:#393839;}.cls-5{fill:#243746;}.cls-6{fill:#fff;}</style><clipPath id="clip-path"><path class="cls-1" d="M3,144A141,141,0,1,0,144,3,141,141,0,0,0,3,144"/></clipPath></defs><title>ventures</title><path class="cls-2" d="M144,285A141,141,0,1,0,3,144,141,141,0,0,0,144,285"/><g class="cls-3"><path class="cls-4" d="M180,174.16a3.18,3.18,0,1,0-3.18-3.18,3.18,3.18,0,0,0,3.18,3.18"/><path class="cls-4" d="M198,174.16A3.18,3.18,0,1,0,194.8,171a3.18,3.18,0,0,0,3.18,3.18"/><path class="cls-4" d="M144,174.16a3.18,3.18,0,1,0-3.18-3.18,3.19,3.19,0,0,0,3.18,3.18"/><path class="cls-4" d="M162,174.16a3.18,3.18,0,1,0-3.18-3.18,3.19,3.19,0,0,0,3.18,3.18"/><path class="cls-4" d="M216,174.16a3.18,3.18,0,1,0-3.18-3.18,3.19,3.19,0,0,0,3.18,3.18"/><path class="cls-4" d="M234,174.16a3.18,3.18,0,1,0-3.18-3.18,3.19,3.19,0,0,0,3.18,3.18"/><path class="cls-4" d="M189,192.14a3.18,3.18,0,1,0-3.18-3.18,3.18,3.18,0,0,0,3.18,3.18"/><path class="cls-4" d="M207,192.14a3.18,3.18,0,1,0-3.18-3.18,3.18,3.18,0,0,0,3.18,3.18"/><path class="cls-4" d="M153,192.14a3.18,3.18,0,1,0-3.18-3.18,3.19,3.19,0,0,0,3.18,3.18"/><path class="cls-4" d="M171,192.14a3.18,3.18,0,1,0-3.18-3.18,3.18,3.18,0,0,0,3.18,3.18"/><path class="cls-4" d="M225,192.14a3.18,3.18,0,1,0-3.18-3.18,3.19,3.19,0,0,0,3.18,3.18"/><path class="cls-4" d="M242.94,192.14a3.18,3.18,0,1,0-3.18-3.18,3.18,3.18,0,0,0,3.18,3.18"/><path class="cls-4" d="M180,210.12a3.18,3.18,0,1,0-3.18-3.18,3.18,3.18,0,0,0,3.18,3.18"/><path class="cls-4" d="M198,210.12a3.18,3.18,0,1,0-3.18-3.18,3.18,3.18,0,0,0,3.18,3.18"/><path class="cls-4" d="M144,210.12a3.18,3.18,0,1,0-3.18-3.18,3.18,3.18,0,0,0,3.18,3.18"/><path class="cls-4" d="M162,210.12a3.18,3.18,0,1,0-3.18-3.18,3.18,3.18,0,0,0,3.18,3.18"/><path class="cls-4" d="M216,210.12a3.18,3.18,0,1,0-3.18-3.18,3.18,3.18,0,0,0,3.18,3.18"/><path class="cls-4" d="M234,210.12a3.18,3.18,0,1,0-3.18-3.18,3.18,3.18,0,0,0,3.18,3.18"/><path class="cls-4" d="M189,228.1a3.18,3.18,0,1,0-3.18-3.18A3.18,3.18,0,0,0,189,228.1"/><path class="cls-4" d="M207,228.1a3.18,3.18,0,1,0-3.18-3.18A3.18,3.18,0,0,0,207,228.1"/><path class="cls-4" d="M153,228.1a3.18,3.18,0,1,0-3.18-3.18A3.18,3.18,0,0,0,153,228.1"/><path class="cls-4" d="M171,228.1a3.18,3.18,0,1,0-3.18-3.18A3.18,3.18,0,0,0,171,228.1"/><path class="cls-4" d="M225,228.1a3.18,3.18,0,1,0-3.18-3.18A3.18,3.18,0,0,0,225,228.1"/><path class="cls-4" d="M242.94,228.1a3.18,3.18,0,1,0-3.18-3.18,3.18,3.18,0,0,0,3.18,3.18"/><path class="cls-4" d="M189,156.17a3.18,3.18,0,1,0-3.18-3.18,3.18,3.18,0,0,0,3.18,3.18"/><path class="cls-4" d="M207,156.17a3.18,3.18,0,1,0-3.18-3.18,3.18,3.18,0,0,0,3.18,3.18"/><path class="cls-4" d="M153,156.17a3.18,3.18,0,1,0-3.18-3.18,3.18,3.18,0,0,0,3.18,3.18"/><path class="cls-4" d="M171,156.17a3.18,3.18,0,1,0-3.18-3.18,3.18,3.18,0,0,0,3.18,3.18"/><path class="cls-4" d="M225,156.17a3.18,3.18,0,1,0-3.18-3.18,3.18,3.18,0,0,0,3.18,3.18"/><path class="cls-4" d="M242.94,156.17a3.18,3.18,0,1,0-3.18-3.18,3.18,3.18,0,0,0,3.18,3.18"/><path class="cls-4" d="M180,246.08a3.18,3.18,0,1,0-3.18-3.18,3.18,3.18,0,0,0,3.18,3.18"/><path class="cls-4" d="M198,246.08a3.18,3.18,0,1,0-3.18-3.18,3.18,3.18,0,0,0,3.18,3.18"/><path class="cls-4" d="M144,246.08a3.18,3.18,0,1,0-3.18-3.18,3.18,3.18,0,0,0,3.18,3.18"/><path class="cls-4" d="M162,246.08a3.18,3.18,0,1,0-3.18-3.18,3.18,3.18,0,0,0,3.18,3.18"/><path class="cls-4" d="M216,246.08a3.18,3.18,0,1,0-3.18-3.18,3.18,3.18,0,0,0,3.18,3.18"/><path class="cls-4" d="M234,246.08a3.18,3.18,0,1,0-3.18-3.18,3.18,3.18,0,0,0,3.18,3.18"/><path class="cls-4" d="M269.91,174.16a3.18,3.18,0,1,0-3.18-3.18,3.18,3.18,0,0,0,3.18,3.18"/><path class="cls-4" d="M251.93,174.16a3.18,3.18,0,1,0-3.18-3.18,3.18,3.18,0,0,0,3.18,3.18"/><path class="cls-4" d="M260.92,192.14a3.18,3.18,0,1,0-3.18-3.18,3.18,3.18,0,0,0,3.18,3.18"/><path class="cls-4" d="M251.93,210.12a3.18,3.18,0,1,0-3.18-3.18,3.18,3.18,0,0,0,3.18,3.18"/><path class="cls-4" d="M278.9,156.17a3.18,3.18,0,1,0-3.18-3.18,3.18,3.18,0,0,0,3.18,3.18"/><path class="cls-4" d="M260.92,156.17a3.18,3.18,0,1,0-3.18-3.18,3.18,3.18,0,0,0,3.18,3.18"/><path class="cls-4" d="M180,282.05a3.18,3.18,0,1,0-3.18-3.18,3.18,3.18,0,0,0,3.18,3.18"/><path class="cls-4" d="M144,282.05a3.18,3.18,0,1,0-3.18-3.18,3.18,3.18,0,0,0,3.18,3.18"/><path class="cls-4" d="M162,282.05a3.18,3.18,0,1,0-3.18-3.18,3.18,3.18,0,0,0,3.18,3.18"/><path class="cls-4" d="M189,264.07a3.18,3.18,0,1,0-3.18-3.18,3.18,3.18,0,0,0,3.18,3.18"/><path class="cls-4" d="M207,264.07a3.18,3.18,0,1,0-3.18-3.18,3.18,3.18,0,0,0,3.18,3.18"/><path class="cls-4" d="M153,264.07a3.18,3.18,0,1,0-3.18-3.18,3.19,3.19,0,0,0,3.18,3.18"/><path class="cls-4" d="M171,264.07a3.18,3.18,0,1,0-3.18-3.18,3.18,3.18,0,0,0,3.18,3.18"/><path class="cls-4" d="M18.16,174.16A3.18,3.18,0,1,0,15,171a3.19,3.19,0,0,0,3.18,3.18"/><path class="cls-4" d="M36.14,174.16A3.18,3.18,0,1,0,33,171a3.18,3.18,0,0,0,3.18,3.18"/><path class="cls-4" d="M54.12,174.16A3.18,3.18,0,1,0,50.94,171a3.18,3.18,0,0,0,3.18,3.18"/><path class="cls-4" d="M27.15,192.14A3.18,3.18,0,1,0,24,189a3.18,3.18,0,0,0,3.18,3.18"/><path class="cls-4" d="M45.13,192.14A3.18,3.18,0,1,0,42,189a3.18,3.18,0,0,0,3.18,3.18"/><path class="cls-4" d="M63.11,192.14A3.18,3.18,0,1,0,59.93,189a3.18,3.18,0,0,0,3.18,3.18"/><path class="cls-4" d="M36.14,210.12A3.18,3.18,0,1,0,33,206.94a3.18,3.18,0,0,0,3.18,3.18"/><path class="cls-4" d="M54.12,210.12a3.18,3.18,0,1,0-3.18-3.18,3.18,3.18,0,0,0,3.18,3.18"/><path class="cls-4" d="M45.13,228.1A3.18,3.18,0,1,0,42,224.92a3.18,3.18,0,0,0,3.18,3.18"/><path class="cls-4" d="M63.11,228.1a3.18,3.18,0,1,0-3.18-3.18,3.18,3.18,0,0,0,3.18,3.18"/><path class="cls-4" d="M9.17,156.17A3.18,3.18,0,1,0,6,153a3.18,3.18,0,0,0,3.18,3.18"/><path class="cls-4" d="M27.15,156.17A3.18,3.18,0,1,0,24,153a3.18,3.18,0,0,0,3.18,3.18"/><path class="cls-4" d="M45.13,156.17A3.18,3.18,0,1,0,42,153a3.18,3.18,0,0,0,3.18,3.18"/><path class="cls-4" d="M63.11,156.17A3.18,3.18,0,1,0,59.93,153a3.18,3.18,0,0,0,3.18,3.18"/><path class="cls-4" d="M54.12,246.08a3.18,3.18,0,1,0-3.18-3.18,3.18,3.18,0,0,0,3.18,3.18"/><path class="cls-4" d="M90.09,174.16A3.18,3.18,0,1,0,86.91,171a3.19,3.19,0,0,0,3.18,3.18"/><path class="cls-4" d="M108.07,174.16a3.18,3.18,0,1,0-3.18-3.18,3.18,3.18,0,0,0,3.18,3.18"/><path class="cls-4" d="M72.11,174.16A3.18,3.18,0,1,0,68.93,171a3.19,3.19,0,0,0,3.18,3.18"/><path class="cls-4" d="M126.05,174.16a3.18,3.18,0,1,0-3.18-3.18,3.18,3.18,0,0,0,3.18,3.18"/><path class="cls-4" d="M99.08,192.14A3.18,3.18,0,1,0,95.9,189a3.18,3.18,0,0,0,3.18,3.18"/><path class="cls-4" d="M117.06,192.14a3.18,3.18,0,1,0-3.18-3.18,3.18,3.18,0,0,0,3.18,3.18"/><path class="cls-4" d="M81.1,192.14A3.18,3.18,0,1,0,77.92,189a3.19,3.19,0,0,0,3.18,3.18"/><path class="cls-4" d="M135,192.14a3.18,3.18,0,1,0-3.18-3.18,3.18,3.18,0,0,0,3.18,3.18"/><path class="cls-4" d="M90.09,210.12a3.18,3.18,0,1,0-3.18-3.18,3.18,3.18,0,0,0,3.18,3.18"/><path class="cls-4" d="M108.07,210.12a3.18,3.18,0,1,0-3.18-3.18,3.18,3.18,0,0,0,3.18,3.18"/><path class="cls-4" d="M72.11,210.12a3.18,3.18,0,1,0-3.18-3.18,3.18,3.18,0,0,0,3.18,3.18"/><path class="cls-4" d="M126.05,210.12a3.18,3.18,0,1,0-3.18-3.18,3.18,3.18,0,0,0,3.18,3.18"/><path class="cls-4" d="M99.08,228.1a3.18,3.18,0,1,0-3.18-3.18,3.18,3.18,0,0,0,3.18,3.18"/><path class="cls-4" d="M117.06,228.1a3.18,3.18,0,1,0-3.18-3.18,3.18,3.18,0,0,0,3.18,3.18"/><path class="cls-4" d="M81.1,228.1a3.18,3.18,0,1,0-3.18-3.18,3.18,3.18,0,0,0,3.18,3.18"/><path class="cls-4" d="M135,228.1a3.18,3.18,0,1,0-3.18-3.18A3.18,3.18,0,0,0,135,228.1"/><path class="cls-4" d="M99.08,156.17A3.18,3.18,0,1,0,95.9,153a3.18,3.18,0,0,0,3.18,3.18"/><path class="cls-4" d="M117.06,156.17a3.18,3.18,0,1,0-3.18-3.18,3.18,3.18,0,0,0,3.18,3.18"/><path class="cls-4" d="M81.1,156.17A3.18,3.18,0,1,0,77.92,153a3.18,3.18,0,0,0,3.18,3.18"/><path class="cls-4" d="M135,156.17a3.18,3.18,0,1,0-3.18-3.18,3.18,3.18,0,0,0,3.18,3.18"/><path class="cls-4" d="M90.09,246.08a3.18,3.18,0,1,0-3.18-3.18,3.18,3.18,0,0,0,3.18,3.18"/><path class="cls-4" d="M108.07,246.08a3.18,3.18,0,1,0-3.18-3.18,3.18,3.18,0,0,0,3.18,3.18"/><path class="cls-4" d="M72.11,246.08a3.18,3.18,0,1,0-3.18-3.18,3.18,3.18,0,0,0,3.18,3.18"/><path class="cls-4" d="M126.05,246.08a3.18,3.18,0,1,0-3.18-3.18,3.18,3.18,0,0,0,3.18,3.18"/><path class="cls-4" d="M108.07,282.05a3.18,3.18,0,1,0-3.18-3.18,3.18,3.18,0,0,0,3.18,3.18"/><path class="cls-4" d="M126.05,282.05a3.18,3.18,0,1,0-3.18-3.18,3.18,3.18,0,0,0,3.18,3.18"/><path class="cls-4" d="M99.08,264.07a3.18,3.18,0,1,0-3.18-3.18,3.18,3.18,0,0,0,3.18,3.18"/><path class="cls-4" d="M117.06,264.07a3.18,3.18,0,1,0-3.18-3.18,3.18,3.18,0,0,0,3.18,3.18"/><path class="cls-4" d="M81.1,264.07a3.18,3.18,0,1,0-3.18-3.18,3.19,3.19,0,0,0,3.18,3.18"/><path class="cls-4" d="M135,264.07a3.18,3.18,0,1,0-3.18-3.18,3.18,3.18,0,0,0,3.18,3.18"/><path class="cls-4" d="M153,12.31a3.18,3.18,0,1,0-3.18-3.18A3.18,3.18,0,0,0,153,12.31"/><path class="cls-4" d="M171,12.31a3.18,3.18,0,1,0-3.18-3.18A3.18,3.18,0,0,0,171,12.31"/><path class="cls-4" d="M180,30.29a3.18,3.18,0,1,0-3.18-3.18A3.18,3.18,0,0,0,180,30.29"/><path class="cls-4" d="M198,30.29a3.18,3.18,0,1,0-3.18-3.18A3.18,3.18,0,0,0,198,30.29"/><path class="cls-4" d="M144,30.29a3.18,3.18,0,1,0-3.18-3.18A3.18,3.18,0,0,0,144,30.29"/><path class="cls-4" d="M162,30.29a3.18,3.18,0,1,0-3.18-3.18A3.18,3.18,0,0,0,162,30.29"/><path class="cls-4" d="M216,30.29a3.18,3.18,0,1,0-3.18-3.18A3.18,3.18,0,0,0,216,30.29"/><path class="cls-4" d="M180,66.26a3.18,3.18,0,1,0-3.18-3.18A3.18,3.18,0,0,0,180,66.26"/><path class="cls-4" d="M198,66.26a3.18,3.18,0,1,0-3.18-3.18A3.18,3.18,0,0,0,198,66.26"/><path class="cls-4" d="M144,66.26a3.18,3.18,0,1,0-3.18-3.18A3.18,3.18,0,0,0,144,66.26"/><path class="cls-4" d="M162,66.26a3.18,3.18,0,1,0-3.18-3.18A3.18,3.18,0,0,0,162,66.26"/><path class="cls-4" d="M216,66.26a3.18,3.18,0,1,0-3.18-3.18A3.18,3.18,0,0,0,216,66.26"/><path class="cls-4" d="M234,66.26a3.18,3.18,0,1,0-3.18-3.18A3.18,3.18,0,0,0,234,66.26"/><path class="cls-4" d="M189,84.24a3.18,3.18,0,1,0-3.18-3.18A3.18,3.18,0,0,0,189,84.24"/><path class="cls-4" d="M207,84.24a3.18,3.18,0,1,0-3.18-3.18A3.18,3.18,0,0,0,207,84.24"/><path class="cls-4" d="M153,84.24a3.18,3.18,0,1,0-3.18-3.18A3.18,3.18,0,0,0,153,84.24"/><path class="cls-4" d="M171,84.24a3.18,3.18,0,1,0-3.18-3.18A3.18,3.18,0,0,0,171,84.24"/><path class="cls-4" d="M225,84.24a3.18,3.18,0,1,0-3.18-3.18A3.18,3.18,0,0,0,225,84.24"/><path class="cls-4" d="M242.94,84.24a3.18,3.18,0,1,0-3.18-3.18,3.18,3.18,0,0,0,3.18,3.18"/><path class="cls-4" d="M180,102.22A3.18,3.18,0,1,0,176.82,99a3.18,3.18,0,0,0,3.18,3.18"/><path class="cls-4" d="M198,102.22A3.18,3.18,0,1,0,194.8,99a3.18,3.18,0,0,0,3.18,3.18"/><path class="cls-4" d="M144,102.22A3.18,3.18,0,1,0,140.86,99a3.18,3.18,0,0,0,3.18,3.18"/><path class="cls-4" d="M162,102.22A3.18,3.18,0,1,0,158.84,99a3.18,3.18,0,0,0,3.18,3.18"/><path class="cls-4" d="M216,102.22A3.18,3.18,0,1,0,212.79,99a3.18,3.18,0,0,0,3.18,3.18"/><path class="cls-4" d="M234,102.22A3.18,3.18,0,1,0,230.77,99a3.18,3.18,0,0,0,3.18,3.18"/><path class="cls-4" d="M189,120.21a3.18,3.18,0,1,0-3.18-3.18,3.18,3.18,0,0,0,3.18,3.18"/><path class="cls-4" d="M207,120.21a3.18,3.18,0,1,0-3.18-3.18,3.18,3.18,0,0,0,3.18,3.18"/><path class="cls-4" d="M153,120.21a3.18,3.18,0,1,0-3.18-3.18,3.19,3.19,0,0,0,3.18,3.18"/><path class="cls-4" d="M171,120.21a3.18,3.18,0,1,0-3.18-3.18,3.18,3.18,0,0,0,3.18,3.18"/><path class="cls-4" d="M225,120.21a3.18,3.18,0,1,0-3.18-3.18,3.19,3.19,0,0,0,3.18,3.18"/><path class="cls-4" d="M242.94,120.21a3.18,3.18,0,1,0-3.18-3.18,3.18,3.18,0,0,0,3.18,3.18"/><path class="cls-4" d="M189,48.28a3.18,3.18,0,1,0-3.18-3.18A3.18,3.18,0,0,0,189,48.28"/><path class="cls-4" d="M207,48.28a3.18,3.18,0,1,0-3.18-3.18A3.18,3.18,0,0,0,207,48.28"/><path class="cls-4" d="M153,48.28a3.18,3.18,0,1,0-3.18-3.18A3.19,3.19,0,0,0,153,48.28"/><path class="cls-4" d="M171,48.28a3.18,3.18,0,1,0-3.18-3.18A3.18,3.18,0,0,0,171,48.28"/><path class="cls-4" d="M225,48.28a3.18,3.18,0,1,0-3.18-3.18A3.19,3.19,0,0,0,225,48.28"/><path class="cls-4" d="M242.94,48.28a3.18,3.18,0,1,0-3.18-3.18,3.18,3.18,0,0,0,3.18,3.18"/><path class="cls-4" d="M180,138.19a3.18,3.18,0,1,0-3.18-3.18,3.18,3.18,0,0,0,3.18,3.18"/><path class="cls-4" d="M198,138.19A3.18,3.18,0,1,0,194.8,135a3.18,3.18,0,0,0,3.18,3.18"/><path class="cls-4" d="M144,138.19a3.18,3.18,0,1,0-3.18-3.18,3.18,3.18,0,0,0,3.18,3.18"/><path class="cls-4" d="M162,138.19a3.18,3.18,0,1,0-3.18-3.18,3.18,3.18,0,0,0,3.18,3.18"/><path class="cls-4" d="M216,138.19a3.18,3.18,0,1,0-3.18-3.18,3.18,3.18,0,0,0,3.18,3.18"/><path class="cls-4" d="M234,138.19a3.18,3.18,0,1,0-3.18-3.18,3.18,3.18,0,0,0,3.18,3.18"/><path class="cls-4" d="M251.93,66.26a3.18,3.18,0,1,0-3.18-3.18,3.18,3.18,0,0,0,3.18,3.18"/><path class="cls-4" d="M260.92,84.24a3.18,3.18,0,1,0-3.18-3.18,3.18,3.18,0,0,0,3.18,3.18"/><path class="cls-4" d="M269.91,102.22A3.18,3.18,0,1,0,266.73,99a3.18,3.18,0,0,0,3.18,3.18"/><path class="cls-4" d="M251.93,102.22A3.18,3.18,0,1,0,248.75,99a3.18,3.18,0,0,0,3.18,3.18"/><path class="cls-4" d="M278.9,120.21a3.18,3.18,0,1,0-3.18-3.18,3.18,3.18,0,0,0,3.18,3.18"/><path class="cls-4" d="M260.92,120.21a3.18,3.18,0,1,0-3.18-3.18,3.18,3.18,0,0,0,3.18,3.18"/><path class="cls-4" d="M269.91,138.19a3.18,3.18,0,1,0-3.18-3.18,3.18,3.18,0,0,0,3.18,3.18"/><path class="cls-4" d="M251.93,138.19a3.18,3.18,0,1,0-3.18-3.18,3.18,3.18,0,0,0,3.18,3.18"/><path class="cls-4" d="M117.06,12.31a3.18,3.18,0,1,0-3.18-3.18,3.18,3.18,0,0,0,3.18,3.18"/><path class="cls-4" d="M135,12.31a3.18,3.18,0,1,0-3.18-3.18A3.18,3.18,0,0,0,135,12.31"/><path class="cls-4" d="M90.09,30.29a3.18,3.18,0,1,0-3.18-3.18,3.18,3.18,0,0,0,3.18,3.18"/><path class="cls-4" d="M108.07,30.29a3.18,3.18,0,1,0-3.18-3.18,3.18,3.18,0,0,0,3.18,3.18"/><path class="cls-4" d="M72.11,30.29a3.18,3.18,0,1,0-3.18-3.18,3.18,3.18,0,0,0,3.18,3.18"/><path class="cls-4" d="M126.05,30.29a3.18,3.18,0,1,0-3.18-3.18,3.18,3.18,0,0,0,3.18,3.18"/><path class="cls-4" d="M36.14,66.26A3.18,3.18,0,1,0,33,63.08a3.18,3.18,0,0,0,3.18,3.18"/><path class="cls-4" d="M54.12,66.26a3.18,3.18,0,1,0-3.18-3.18,3.18,3.18,0,0,0,3.18,3.18"/><path class="cls-4" d="M27.15,84.24A3.18,3.18,0,1,0,24,81.06a3.18,3.18,0,0,0,3.18,3.18"/><path class="cls-4" d="M45.13,84.24A3.18,3.18,0,1,0,42,81.06a3.18,3.18,0,0,0,3.18,3.18"/><path class="cls-4" d="M63.11,84.24a3.18,3.18,0,1,0-3.18-3.18,3.18,3.18,0,0,0,3.18,3.18"/><path class="cls-4" d="M18.16,102.22A3.18,3.18,0,1,0,15,99a3.18,3.18,0,0,0,3.18,3.18"/><path class="cls-4" d="M36.14,102.22A3.18,3.18,0,1,0,33,99a3.18,3.18,0,0,0,3.18,3.18"/><path class="cls-4" d="M54.12,102.22A3.18,3.18,0,1,0,50.94,99a3.18,3.18,0,0,0,3.18,3.18"/><path class="cls-4" d="M9.17,120.21A3.18,3.18,0,1,0,6,117a3.19,3.19,0,0,0,3.18,3.18"/><path class="cls-4" d="M27.15,120.21A3.18,3.18,0,1,0,24,117a3.18,3.18,0,0,0,3.18,3.18"/><path class="cls-4" d="M45.13,120.21A3.18,3.18,0,1,0,42,117a3.18,3.18,0,0,0,3.18,3.18"/><path class="cls-4" d="M63.11,120.21A3.18,3.18,0,1,0,59.93,117a3.18,3.18,0,0,0,3.18,3.18"/><path class="cls-4" d="M45.13,48.28A3.18,3.18,0,1,0,42,45.1a3.18,3.18,0,0,0,3.18,3.18"/><path class="cls-4" d="M63.11,48.28a3.18,3.18,0,1,0-3.18-3.18,3.18,3.18,0,0,0,3.18,3.18"/><path class="cls-4" d="M18.16,138.19A3.18,3.18,0,1,0,15,135a3.18,3.18,0,0,0,3.18,3.18"/><path class="cls-4" d="M36.14,138.19A3.18,3.18,0,1,0,33,135a3.18,3.18,0,0,0,3.18,3.18"/><path class="cls-4" d="M54.12,138.19A3.18,3.18,0,1,0,50.94,135a3.18,3.18,0,0,0,3.18,3.18"/><path class="cls-4" d="M90.09,66.26a3.18,3.18,0,1,0-3.18-3.18,3.18,3.18,0,0,0,3.18,3.18"/><path class="cls-4" d="M108.07,66.26a3.18,3.18,0,1,0-3.18-3.18,3.18,3.18,0,0,0,3.18,3.18"/><path class="cls-4" d="M72.11,66.26a3.18,3.18,0,1,0-3.18-3.18,3.18,3.18,0,0,0,3.18,3.18"/><path class="cls-4" d="M126.05,66.26a3.18,3.18,0,1,0-3.18-3.18,3.18,3.18,0,0,0,3.18,3.18"/><path class="cls-4" d="M99.08,84.24a3.18,3.18,0,1,0-3.18-3.18,3.18,3.18,0,0,0,3.18,3.18"/><path class="cls-4" d="M117.06,84.24a3.18,3.18,0,1,0-3.18-3.18,3.18,3.18,0,0,0,3.18,3.18"/><path class="cls-4" d="M81.1,84.24a3.18,3.18,0,1,0-3.18-3.18,3.18,3.18,0,0,0,3.18,3.18"/><path class="cls-4" d="M135,84.24a3.18,3.18,0,1,0-3.18-3.18A3.18,3.18,0,0,0,135,84.24"/><path class="cls-4" d="M90.09,102.22A3.18,3.18,0,1,0,86.91,99a3.18,3.18,0,0,0,3.18,3.18"/><path class="cls-4" d="M108.07,102.22A3.18,3.18,0,1,0,104.89,99a3.18,3.18,0,0,0,3.18,3.18"/><path class="cls-4" d="M72.11,102.22A3.18,3.18,0,1,0,68.93,99a3.18,3.18,0,0,0,3.18,3.18"/><path class="cls-4" d="M126.05,102.22A3.18,3.18,0,1,0,122.87,99a3.18,3.18,0,0,0,3.18,3.18"/><path class="cls-4" d="M99.08,120.21A3.18,3.18,0,1,0,95.9,117a3.18,3.18,0,0,0,3.18,3.18"/><path class="cls-4" d="M117.06,120.21a3.18,3.18,0,1,0-3.18-3.18,3.18,3.18,0,0,0,3.18,3.18"/><path class="cls-4" d="M81.1,120.21A3.18,3.18,0,1,0,77.92,117a3.19,3.19,0,0,0,3.18,3.18"/><path class="cls-4" d="M135,120.21a3.18,3.18,0,1,0-3.18-3.18,3.18,3.18,0,0,0,3.18,3.18"/><path class="cls-4" d="M99.08,48.28A3.18,3.18,0,1,0,95.9,45.1a3.18,3.18,0,0,0,3.18,3.18"/><path class="cls-4" d="M117.06,48.28a3.18,3.18,0,1,0-3.18-3.18,3.18,3.18,0,0,0,3.18,3.18"/><path class="cls-4" d="M81.1,48.28a3.18,3.18,0,1,0-3.18-3.18,3.19,3.19,0,0,0,3.18,3.18"/><path class="cls-4" d="M135,48.28a3.18,3.18,0,1,0-3.18-3.18A3.18,3.18,0,0,0,135,48.28"/><path class="cls-4" d="M90.09,138.19A3.18,3.18,0,1,0,86.91,135a3.18,3.18,0,0,0,3.18,3.18"/><path class="cls-4" d="M108.07,138.19a3.18,3.18,0,1,0-3.18-3.18,3.18,3.18,0,0,0,3.18,3.18"/><path class="cls-4" d="M72.11,138.19A3.18,3.18,0,1,0,68.93,135a3.18,3.18,0,0,0,3.18,3.18"/><path class="cls-4" d="M126.05,138.19a3.18,3.18,0,1,0-3.18-3.18,3.18,3.18,0,0,0,3.18,3.18"/></g><path class="cls-5" d="M144,288C64.6,288,0,223.4,0,144S64.6,0,144,0,288,64.6,288,144,223.4,288,144,288ZM144,6C67.91,6,6,67.91,6,144S67.91,282,144,282s138-61.91,138-138S220.09,6,144,6Z"/><path class="cls-6" d="M93.71,146.15l5.08-17.08h4.32L95.42,155H92l-7.69-25.89h4.33Z"/><path class="cls-6" d="M103.41,151.47a9.48,9.48,0,0,1-.75-2.41,19.31,19.31,0,0,1-.21-3.13,14.79,14.79,0,0,1,.44-3.66,9.08,9.08,0,0,1,1.15-2.83,5.83,5.83,0,0,1,1.69-1.7,7.08,7.08,0,0,1,4-1.11,5.83,5.83,0,0,1,3.76,1.28q3,2.43,2.87,9H106.1q0,3.45,1.83,4.64a3.58,3.58,0,0,0,2,.62,4.88,4.88,0,0,0,1.71-.26,4,4,0,0,0,1.1-.58,5.32,5.32,0,0,0,.75-.75,4.25,4.25,0,0,0,.63-1l2.33,1.51a9.09,9.09,0,0,1-2.7,3.14,6.16,6.16,0,0,1-3.5,1.06,9.46,9.46,0,0,1-3.25-.49,6.08,6.08,0,0,1-2.18-1.32A6.52,6.52,0,0,1,103.41,151.47Zm2.86-7.65h6.33a5.47,5.47,0,0,0-.46-2.31,2.74,2.74,0,0,0-2.46-1.79,3.16,3.16,0,0,0-1.65.42,2.77,2.77,0,0,0-1.07,1.08A5.33,5.33,0,0,0,106.27,143.82Z"/><path class="cls-6" d="M132.68,141.45V155H129V142.4a2.61,2.61,0,0,0-.74-2,2.44,2.44,0,0,0-1.77-.73,3.86,3.86,0,0,0-2,.61,5.67,5.67,0,0,0-1.51,1.2V155h-3.66v-18H123v1.92a9.63,9.63,0,0,1,2.08-1.61,5.05,5.05,0,0,1,2.54-.61,5.48,5.48,0,0,1,3.65,1.2A4.45,4.45,0,0,1,132.68,141.45Z"/><path class="cls-6" d="M134.61,140v-3.1h2.68v-6.58H141v6.58h3.78V140H141v9.67a2.86,2.86,0,0,0,.52,2,2.37,2.37,0,0,0,1.75.54,6.73,6.73,0,0,0,1-.07,2.92,2.92,0,0,0,.51-.08v2.58a8.61,8.61,0,0,1-1.43.54,5.44,5.44,0,0,1-1.23.12H141c-.23,0-.52-.06-.85-.12a3.55,3.55,0,0,1-.87-.29,3.33,3.33,0,0,1-.76-.52,2.62,2.62,0,0,1-.65-.82,6.11,6.11,0,0,1-.57-2.83V140Z"/><path class="cls-6" d="M146.83,150.45V136.93h3.66V149.5a2.57,2.57,0,0,0,.74,1.95,2.42,2.42,0,0,0,1.76.73,3.86,3.86,0,0,0,2-.61,5.74,5.74,0,0,0,1.52-1.2V136.93h3.65v18h-3.65v-1.91a6.56,6.56,0,0,1-4.62,2.22,5.51,5.51,0,0,1-3.57-1.13A4.45,4.45,0,0,1,146.83,150.45Z"/><path class="cls-6" d="M163.75,155v-18h3.65v2.48a4.49,4.49,0,0,0,.31-.44l.41-.62a4.84,4.84,0,0,1,4.17-1.72,3.24,3.24,0,0,1,.62.05v3.06c-2.08,0-3.57.61-4.48,1.72a6.49,6.49,0,0,0-1,1.93V155Z"/><path class="cls-6" d="M174.49,151.47a9.48,9.48,0,0,1-.75-2.41,18.11,18.11,0,0,1-.22-3.13,14.8,14.8,0,0,1,.45-3.66,8.85,8.85,0,0,1,1.14-2.83,6,6,0,0,1,1.69-1.7,7.12,7.12,0,0,1,4-1.11,5.85,5.85,0,0,1,3.76,1.28q3,2.43,2.87,9H177.18q0,3.45,1.83,4.64a3.55,3.55,0,0,0,2,.62,5,5,0,0,0,1.72-.26,3.81,3.81,0,0,0,1.09-.58,4.9,4.9,0,0,0,.76-.75,5,5,0,0,0,.63-1l2.32,1.51a8.89,8.89,0,0,1-2.7,3.14,6.13,6.13,0,0,1-3.49,1.06,9.42,9.42,0,0,1-3.25-.49,6.22,6.22,0,0,1-2.19-1.32A6.67,6.67,0,0,1,174.49,151.47Zm2.86-7.65h6.32a5.32,5.32,0,0,0-.46-2.31,2.72,2.72,0,0,0-2.46-1.79,3.19,3.19,0,0,0-1.65.42,2.84,2.84,0,0,0-1.07,1.08A5.43,5.43,0,0,0,177.35,143.82Z"/><path class="cls-6" d="M189.66,151.34l2.52-1.54a9.71,9.71,0,0,0,1.12,1.37,4.14,4.14,0,0,0,3,1.2,3,3,0,0,0,2.12-.62,2.26,2.26,0,0,0,.59-1.71,2.33,2.33,0,0,0-.84-1.95,4.48,4.48,0,0,0-1.49-.76l-1.61-.47a8.51,8.51,0,0,1-4-2.12,5.06,5.06,0,0,1-1.25-3.57,4,4,0,0,1,1.56-3.18,7.16,7.16,0,0,1,4.7-1.36,6.61,6.61,0,0,1,4.73,1.88,4.29,4.29,0,0,1,1.08,1.35l-2.12,1.67a5,5,0,0,0-2.4-1.79,5.45,5.45,0,0,0-1.61-.19,2.84,2.84,0,0,0-1.71.51,1.76,1.76,0,0,0-.71,1.51,2,2,0,0,0,1,1.77,7.06,7.06,0,0,0,1.79.84l1.54.43q3.63,1,4.5,3.47a6.87,6.87,0,0,1,.36,2.35,4.07,4.07,0,0,1-.85,2.48,5.47,5.47,0,0,1-2.23,1.75,6.79,6.79,0,0,1-2.79.61,13.49,13.49,0,0,1-2.33-.17,6.39,6.39,0,0,1-1.77-.6A7.41,7.41,0,0,1,189.66,151.34Z"/></svg>